999
FreeCAD v0.22 35594 (Git)
  0
SECTION
  2
HEADER
  9
$ACADVER
  1
AC1014
  9
$ACADMAINTVER
 70
     9
  9
$DWGCODEPAGE
  3
ANSI_1252
  9
$TEXTSTYLE
  7
STANDARD
  9
$DIMSTYLE
  2
STANDARD
  9
$DIMTXSTY
  7
STANDARD
  9
$CMLSTYLE
  2
STANDARD
  9
$LUNITS
 70
2
  9
$INSUNITS
 70
4
  9
$PEXTMAX
 10
50
 20
50
 30
50
  9
$PEXTMIN
 10
0
 20
0
 30
0
  9
$HANDSEED
  5
FFFF
  0
ENDSEC
  0
SECTION
  2
CLASSES
  0
CLASS
  1
ACDBDICTIONARYWDFLT
  2
AcDbDictionaryWithDefault
  3
ObjectDBX Classes
 90
        0
280
     0
281
     0
  0
CLASS
  1
XRECORD
  2
AcDbXrecord
  3
ObjectDBX Classes
 90
        0
280
     0
281
     0
  0
CLASS
  1
LWPOLYLINE
  2
AcDbPolyline
  3
ObjectDBX Classes
 90
        0
280
     0
281
     1
  0
ENDSEC
  0
SECTION
  2
TABLES
  0
TABLE
  2
VPORT
  5
20
330
0
100
AcDbSymbolTable
 70
     1
  0
VPORT
  5
21
330
20
100
AcDbSymbolTableRecord
100
AcDbViewportTableRecord
  2
*ACTIVE
 70
     0
  0
ENDTAB
  0
TABLE
  2
LTYPE
  5
22
330
0
100
AcDbSymbolTable
 70
     1
  0
LTYPE
  5
23
330
21
100
AcDbSymbolTableRecord
100
AcDbLinetypeTableRecord
  2
BYBLOCK
 70
     0
  3

 72
    65
 73
     0
 40
0.0
  0
LTYPE
  5
24
330
21
100
AcDbSymbolTableRecord
100
AcDbLinetypeTableRecord
  2
BYLAYER
 70
     0
  3

 72
    65
 73
     0
 40
0.0
  0
LTYPE
  5
25
330
21
100
AcDbSymbolTableRecord
100
AcDbLinetypeTableRecord
  2
CONTINUOUS
 70
     0
  3
Solid line
 72
    65
 73
     0
 40
0.0
  0
ENDTAB
  0
TABLE
  2
LAYER
  5
D32
330
0
100
AcDbSymbolTable
 70
3
  0
LAYER
  5
D33
330
D32
100
AcDbSymbolTableRecord
100
AcDbLayerTableRecord
  2
0
 70
   0
 62
   7
  6
CONTINUOUS
  0
LAYER
  5
D34
330
D32
100
AcDbSymbolTableRecord
100
AcDbLayerTableRecord
  2
none
 70
    0
 62
    7
  6
CONTINUOUS
  0
LAYER
  5
D35
330
D32
100
AcDbSymbolTableRecord
100
AcDbLayerTableRecord
  2
Fusion
 70
    0
 62
    7
  6
CONTINUOUS
  0
ENDTAB
  0
TABLE
  2
STYLE
  5
70
330
0
100
AcDbSymbolTable
 70
     2
  0
STYLE
  5
71
330
70
100
AcDbSymbolTableRecord
100
AcDbTextStyleTableRecord
  2
STANDARD
 70
     0
 40
0.0
 41
1.0
 50
0.0
 71
     0
 42
2.5
  3
arial.ttf
  4

  0
STYLE
  5
72
330
70
100
AcDbSymbolTableRecord
100
AcDbTextStyleTableRecord
  2
ANNOTATIVE
 70
     0
 40
0.0
 41
1.0
 50
0.0
 71
     0
 42
2.5
  3
arial.ttf
  4

  0
ENDTAB
  0
TABLE
  2
VIEW
  5
73
330
0
100
AcDbSymbolTable
 70
     0
  0
ENDTAB
  0
TABLE
  2
UCS
  5
74
330
0
100
AcDbSymbolTable
 70
     0
  0
ENDTAB
  0
TABLE
  2
APPID
  5
75
330
0
100
AcDbSymbolTable
 70
     2
  0
APPID
  5
76
330
75
100
AcDbSymbolTableRecord
100
AcDbRegAppTableRecord
  2
ACAD
 70
     0
  0
APPID
  5
77
330
75
100
AcDbSymbolTableRecord
100
AcDbRegAppTableRecord
  2
ACADANNOTATIVE
 70
     0
  0
ENDTAB
  0
TABLE
  2
DIMSTYLE
  5
78
330
0
100
AcDbSymbolTable
 70
     2
  0
DIMSTYLE
105
79
330
78
100
AcDbSymbolTableRecord
100
AcDbDimStyleTableRecord
  2
STANDARD
 70
     0
  3

  4

  5

  6

  7

 40
0.0
 41
2.5
 42
0.625
 43
3.75
 44
1.25
 45
0.0
 46
0.0
 47
0.0
 48
0.0
140
2.5
141
2.5
142
0.0
143
0.03937007874016
144
1.0
145
0.0
146
1.0
147
0.625
 71
     0
 72
     0
 73
     0
 74
     0
 75
     0
 76
     0
 77
     1
 78
     8
170
     0
171
     3
172
     1
173
     0
174
     0
175
     0
176
     0
177
     0
178
     0
270
     2
271
     2
272
     2
273
     2
274
     3
340
71
275
     0
280
     0
281
     0
282
     0
283
     0
284
     8
285
     0
286
     0
287
     3
288
     0
  0
ENDTAB
  0
TABLE
  2
BLOCK_RECORD
  5
A01
330
0
100
AcDbSymbolTable
  70
5
  0
BLOCK_RECORD
  5
A02
330
A01
100
AcDbSymbolTableRecord
100
AcDbBlockTableRecord
  2
*MODEL_SPACE
  0
BLOCK_RECORD
  5
A03
330
A01
100
AcDbSymbolTableRecord
100
AcDbBlockTableRecord
  2
*PAPER_SPACE
  0
ENDTAB
  0
ENDSEC
  0
SECTION
  2
BLOCKS
  0
BLOCK
  5
A04
330
A02
100
AcDbEntity
  8
0
100
AcDbBlockBegin
  2
*MODEL_SPACE
 70
   0
 10
0
 20
0
 30
0
  3
*MODEL_SPACE
  1
 
  0
ENDBLK
  5
A05
330
A02
100
AcDbEntity
  8
0
100
AcDbBlockEnd
  0
BLOCK
  5
A06
330
A03
100
AcDbEntity
 67
1
  8
0
100
AcDbBlockBegin
  2
*PAPER_SPACE
 70
   0
 10
0
 20
0
 30
0
  3
*PAPER_SPACE
  1
 
  0
ENDBLK
  5
A07
330
A03
100
AcDbEntity
 67
    1
  8
0
100
AcDbBlockEnd
  0
ENDSEC
  0
SECTION
  2
ENTITIES
  0
LINE
  5
A08
330
A02
100
AcDbEntity
  8
Fusion
100
AcDbLine
 10
30
 20
0
 30
0
 11
30
 21
0
 31
9.3
  0
LINE
  5
A09
330
A02
100
AcDbEntity
  8
Fusion
100
AcDbLine
 10
30
 20
0
 30
9.3
 11
30
 21
36
 31
9.3
  0
LINE
  5
A0A
330
A02
100
AcDbEntity
  8
Fusion
100
AcDbLine
 10
30
 20
36
 30
0
 11
30
 21
36
 31
9.3
  0
LINE
  5
A0B
330
A02
100
AcDbEntity
  8
Fusion
100
AcDbLine
 10
30
 20
0
 30
0
 11
30
 21
36
 31
0
  0
LINE
  5
A0C
330
A02
100
AcDbEntity
  8
Fusion
100
AcDbLine
 10
30
 20
0
 30
0
 11
130
 21
0
 31
0
  0
LINE
  5
A0D
330
A02
100
AcDbEntity
  8
Fusion
100
AcDbLine
 10
130
 20
0
 30
0
 11
130
 21
0
 31
9.3
  0
LINE
  5
A0E
330
A02
100
AcDbEntity
  8
Fusion
100
AcDbLine
 10
30
 20
0
 30
9.3
 11
130
 21
0
 31
9.3
  0
LINE
  5
A0F
330
A02
100
AcDbEntity
  8
Fusion
100
AcDbLine
 10
30
 20
0
 30
0
 11
30
 21
0
 31
9.3
  0
LINE
  5
A10
330
A02
100
AcDbEntity
  8
Fusion
100
AcDbLine
 10
30
 20
0
 30
9.3
 11
30
 21
36
 31
9.3
  0
LINE
  5
A11
330
A02
100
AcDbEntity
  8
Fusion
100
AcDbLine
 10
30
 20
36
 30
9.3
 11
130
 21
36
 31
9.3
  0
LINE
  5
A12
330
A02
100
AcDbEntity
  8
Fusion
100
AcDbLine
 10
30
 20
0
 30
9.3
 11
130
 21
0
 31
9.3
  0
LINE
  5
A13
330
A02
100
AcDbEntity
  8
Fusion
100
AcDbLine
 10
130
 20
0
 30
9.3
 11
130
 21
36
 31
9.3
  0
LINE
  5
A14
330
A02
100
AcDbEntity
  8
Fusion
100
AcDbLine
 10
36
 20
3
 30
9.3
 11
36
 21
33
 31
9.3
  0
LINE
  5
A15
330
A02
100
AcDbEntity
  8
Fusion
100
AcDbLine
 10
36
 20
3
 30
9.3
 11
126
 21
3
 31
9.3
  0
LINE
  5
A16
330
A02
100
AcDbEntity
  8
Fusion
100
AcDbLine
 10
126
 20
3
 30
9.3
 11
126
 21
33
 31
9.3
  0
LINE
  5
A17
330
A02
100
AcDbEntity
  8
Fusion
100
AcDbLine
 10
36
 20
33
 30
9.3
 11
126
 21
33
 31
9.3
  0
LINE
  5
A18
330
A02
100
AcDbEntity
  8
Fusion
100
AcDbLine
 10
30
 20
36
 30
0
 11
130
 21
36
 31
0
  0
LINE
  5
A19
330
A02
100
AcDbEntity
  8
Fusion
100
AcDbLine
 10
130
 20
36
 30
0
 11
130
 21
36
 31
9.3
  0
LINE
  5
A1A
330
A02
100
AcDbEntity
  8
Fusion
100
AcDbLine
 10
30
 20
36
 30
9.3
 11
130
 21
36
 31
9.3
  0
LINE
  5
A1B
330
A02
100
AcDbEntity
  8
Fusion
100
AcDbLine
 10
30
 20
36
 30
0
 11
30
 21
36
 31
9.3
  0
LINE
  5
A1C
330
A02
100
AcDbEntity
  8
Fusion
100
AcDbLine
 10
30
 20
0
 30
0
 11
30
 21
36
 31
0
  0
LINE
  5
A1D
330
A02
100
AcDbEntity
  8
Fusion
100
AcDbLine
 10
30
 20
36
 30
0
 11
130
 21
36
 31
0
  0
LINE
  5
A1E
330
A02
100
AcDbEntity
  8
Fusion
100
AcDbLine
 10
130
 20
0
 30
0
 11
130
 21
36
 31
0
  0
LINE
  5
A1F
330
A02
100
AcDbEntity
  8
Fusion
100
AcDbLine
 10
30
 20
0
 30
0
 11
130
 21
0
 31
0
  0
LINE
  5
A20
330
A02
100
AcDbEntity
  8
Fusion
100
AcDbLine
 10
130
 20
0
 30
0
 11
130
 21
0
 31
9.3
  0
LINE
  5
A21
330
A02
100
AcDbEntity
  8
Fusion
100
AcDbLine
 10
130
 20
0
 30
9.3
 11
130
 21
36
 31
9.3
  0
LINE
  5
A22
330
A02
100
AcDbEntity
  8
Fusion
100
AcDbLine
 10
130
 20
36
 30
0
 11
130
 21
36
 31
9.3
  0
LINE
  5
A23
330
A02
100
AcDbEntity
  8
Fusion
100
AcDbLine
 10
130
 20
0
 30
0
 11
130
 21
36
 31
0
  0
LINE
  5
A24
330
A02
100
AcDbEntity
  8
Fusion
100
AcDbLine
 10
36
 20
3
 30
6.3
 11
36
 21
3
 31
9.3
  0
LINE
  5
A25
330
A02
100
AcDbEntity
  8
Fusion
100
AcDbLine
 10
36
 20
3
 30
9.3
 11
36
 21
33
 31
9.3
  0
LINE
  5
A26
330
A02
100
AcDbEntity
  8
Fusion
100
AcDbLine
 10
36
 20
33
 30
6.3
 11
36
 21
33
 31
9.3
  0
LINE
  5
A27
330
A02
100
AcDbEntity
  8
Fusion
100
AcDbLine
 10
36
 20
3
 30
6.3
 11
36
 21
33
 31
6.3
  0
LINE
  5
A28
330
A02
100
AcDbEntity
  8
Fusion
100
AcDbLine
 10
36
 20
3
 30
6.3
 11
126
 21
3
 31
6.3
  0
LINE
  5
A29
330
A02
100
AcDbEntity
  8
Fusion
100
AcDbLine
 10
126
 20
3
 30
6.3
 11
126
 21
3
 31
9.3
  0
LINE
  5
A2A
330
A02
100
AcDbEntity
  8
Fusion
100
AcDbLine
 10
36
 20
3
 30
9.3
 11
126
 21
3
 31
9.3
  0
LINE
  5
A2B
330
A02
100
AcDbEntity
  8
Fusion
100
AcDbLine
 10
36
 20
3
 30
6.3
 11
36
 21
3
 31
9.3
  0
LINE
  5
A2C
330
A02
100
AcDbEntity
  8
Fusion
100
AcDbLine
 10
126
 20
3
 30
6.3
 11
126
 21
3
 31
9.3
  0
LINE
  5
A2D
330
A02
100
AcDbEntity
  8
Fusion
100
AcDbLine
 10
126
 20
3
 30
9.3
 11
126
 21
33
 31
9.3
  0
LINE
  5
A2E
330
A02
100
AcDbEntity
  8
Fusion
100
AcDbLine
 10
126
 20
33
 30
6.3
 11
126
 21
33
 31
9.3
  0
LINE
  5
A2F
330
A02
100
AcDbEntity
  8
Fusion
100
AcDbLine
 10
126
 20
3
 30
6.3
 11
126
 21
33
 31
6.3
  0
LINE
  5
A30
330
A02
100
AcDbEntity
  8
Fusion
100
AcDbLine
 10
36
 20
33
 30
6.3
 11
126
 21
33
 31
6.3
  0
LINE
  5
A31
330
A02
100
AcDbEntity
  8
Fusion
100
AcDbLine
 10
126
 20
33
 30
6.3
 11
126
 21
33
 31
9.3
  0
LINE
  5
A32
330
A02
100
AcDbEntity
  8
Fusion
100
AcDbLine
 10
36
 20
33
 30
9.3
 11
126
 21
33
 31
9.3
  0
LINE
  5
A33
330
A02
100
AcDbEntity
  8
Fusion
100
AcDbLine
 10
36
 20
33
 30
6.3
 11
36
 21
33
 31
9.3
  0
LINE
  5
A34
330
A02
100
AcDbEntity
  8
Fusion
100
AcDbLine
 10
36
 20
3
 30
6.3
 11
36
 21
33
 31
6.3
  0
LINE
  5
A35
330
A02
100
AcDbEntity
  8
Fusion
100
AcDbLine
 10
36
 20
33
 30
6.3
 11
126
 21
33
 31
6.3
  0
LINE
  5
A36
330
A02
100
AcDbEntity
  8
Fusion
100
AcDbLine
 10
36
 20
3
 30
6.3
 11
126
 21
3
 31
6.3
  0
LINE
  5
A37
330
A02
100
AcDbEntity
  8
Fusion
100
AcDbLine
 10
126
 20
3
 30
6.3
 11
126
 21
33
 31
6.3
  0
LINE
  5
A38
330
A02
100
AcDbEntity
  8
Fusion
100
AcDbLine
 10
97.8861
 20
10.1395
 30
6.3
 11
95.7399
 21
10.4535
 31
6.3
  0
SPLINE
  5
A39
330
A02
100
AcDbEntity
  8
Fusion
100
AcDbSpline
210
0
220
0
230
1
 70
8
 71
3
 72
11
 73
7
 74
0
 40
0
 40
0
 40
0
 40
0
 40
0.433994
 40
0.433994
 40
0.433994
 40
1
 40
1
 40
1
 40
1
 10
95.7399
 20
10.4535
 30
6.3
 10
95.7276
 20
9.93077
 30
6.3
 10
95.7834
 20
9.40506
 30
6.3
 10
95.948
 20
8.91328
 30
6.3
 10
96.1577
 20
8.27025
 30
6.3
 10
96.5755
 20
7.70507
 30
6.3
 10
97.1257
 20
7.3115
 30
6.3
  0
SPLINE
  5
A3A
330
A02
100
AcDbEntity
  8
Fusion
100
AcDbSpline
210
0
220
0
230
1
 70
8
 71
3
 72
11
 73
7
 74
0
 40
0
 40
0
 40
0
 40
0
 40
0.515864
 40
0.515864
 40
0.515864
 40
1
 40
1
 40
1
 40
1
 10
97.1257
 20
7.3115
 30
6.3
 10
97.6743
 20
6.91111
 30
6.3
 10
98.3115
 20
6.63963
 30
6.3
 10
98.9749
 20
6.47886
 30
6.3
 10
99.5984
 20
6.32709
 30
6.3
 10
100.245
 20
6.2676
 30
6.3
 10
100.891
 20
6.26744
 30
6.3
  0
SPLINE
  5
A3B
330
A02
100
AcDbEntity
  8
Fusion
100
AcDbSpline
210
0
220
0
230
1
 70
8
 71
3
 72
8
 73
4
 74
0
 40
0
 40
0
 40
0
 40
0
 40
1
 40
1
 40
1
 40
1
 10
100.891
 20
6.26744
 30
6.3
 10
102.038
 20
6.26682
 30
6.3
 10
103.2
 20
6.45683
 30
6.3
 10
104.195
 20
7.00164
 30
6.3
  0
SPLINE
  5
A3C
330
A02
100
AcDbEntity
  8
Fusion
100
AcDbSpline
210
0
220
0
230
1
 70
8
 71
3
 72
11
 73
7
 74
0
 40
0
 40
0
 40
0
 40
0
 40
0.370788
 40
0.370788
 40
0.370788
 40
1
 40
1
 40
1
 40
1
 10
104.195
 20
7.00164
 30
6.3
 10
104.508
 20
7.17119
 30
6.3
 10
104.799
 20
7.37023
 30
6.3
 10
105.069
 20
7.59875
 30
6.3
 10
105.524
 20
7.98599
 30
6.3
 10
105.897
 20
8.46457
 30
6.3
 10
106.158
 20
9.00145
 30
6.3
  0
SPLINE
  5
A3D
330
A02
100
AcDbEntity
  8
Fusion
100
AcDbSpline
210
0
220
0
230
1
 70
8
 71
3
 72
11
 73
7
 74
0
 40
0
 40
0
 40
0
 40
0
 40
0.369014
 40
0.369014
 40
0.369014
 40
1
 40
1
 40
1
 40
1
 10
106.158
 20
9.00145
 30
6.3
 10
106.385
 20
9.47185
 30
6.3
 10
106.507
 20
9.99854
 30
6.3
 10
106.595
 20
10.5274
 30
6.3
 10
106.739
 20
11.4362
 30
6.3
 10
106.776
 20
12.3688
 30
6.3
 10
106.777
 20
13.3003
 30
6.3
  0
LINE
  5
A3E
330
A02
100
AcDbEntity
  8
Fusion
100
AcDbLine
 10
106.777
 20
13.3003
 30
6.3
 11
106.777
 21
24.5291
 31
6.3
  0
LINE
  5
A3F
330
A02
100
AcDbEntity
  8
Fusion
100
AcDbLine
 10
106.777
 20
24.5291
 30
6.3
 11
104.742
 21
24.5291
 31
6.3
  0
LINE
  5
A40
330
A02
100
AcDbEntity
  8
Fusion
100
AcDbLine
 10
104.742
 20
24.5291
 30
6.3
 11
104.742
 21
22.9094
 31
6.3
  0
SPLINE
  5
A41
330
A02
100
AcDbEntity
  8
Fusion
100
AcDbSpline
210
0
220
0
230
1
 70
8
 71
3
 72
11
 73
7
 74
0
 40
0
 40
0
 40
0
 40
0
 40
0.558645
 40
0.558645
 40
0.558645
 40
1
 40
1
 40
1
 40
1
 10
104.742
 20
22.9094
 30
6.3
 10
104.232
 20
23.5536
 30
6.3
 10
103.586
 20
24.0963
 30
6.3
 10
102.831
 20
24.4182
 30
6.3
 10
102.238
 20
24.6751
 30
6.3
 10
101.588
 20
24.7919
 30
6.3
 10
100.94
 20
24.7907
 30
6.3
  0
SPLINE
  5
A42
330
A02
100
AcDbEntity
  8
Fusion
100
AcDbSpline
210
0
220
0
230
1
 70
8
 71
3
 72
11
 73
7
 74
0
 40
0
 40
0
 40
0
 40
0
 40
0.42843
 40
0.42843
 40
0.42843
 40
1
 40
1
 40
1
 40
1
 10
100.94
 20
24.7907
 30
6.3
 10
100.481
 20
24.7926
 30
6.3
 10
100.029
 20
24.7437
 30
6.3
 10
99.5846
 20
24.6438
 30
6.3
 10
98.9945
 20
24.5092
 30
6.3
 10
98.4303
 20
24.2703
 30
6.3
 10
97.9286
 20
23.9339
 30
6.3
  0
SPLINE
  5
A43
330
A02
100
AcDbEntity
  8
Fusion
100
AcDbSpline
210
0
220
0
230
1
 70
8
 71
3
 72
11
 73
7
 74
0
 40
0
 40
0
 40
0
 40
0
 40
0.579777
 40
0.579777
 40
0.579777
 40
1
 40
1
 40
1
 40
1
 10
97.9286
 20
23.9339
 30
6.3
 10
97.4209
 20
23.5954
 30
6.3
 10
96.9786
 20
23.1627
 30
6.3
 10
96.6225
 20
22.6658
 30
6.3
 10
96.3644
 20
22.3036
 30
6.3
 10
96.1479
 20
21.9164
 30
6.3
 10
95.9729
 20
21.504
 30
6.3
  0
SPLINE
  5
A44
330
A02
100
AcDbEntity
  8
Fusion
100
AcDbSpline
210
0
220
0
230
1
 70
8
 71
3
 72
8
 73
4
 74
0
 40
0
 40
0
 40
0
 40
0
 40
1
 40
1
 40
1
 40
1
 10
95.9729
 20
21.504
 30
6.3
 10
95.5084
 20
20.427
 30
6.3
 10
95.2963
 20
19.2496
 30
6.3
 10
95.2984
 20
18.0718
 30
6.3
  0
SPLINE
  5
A45
330
A02
100
AcDbEntity
  8
Fusion
100
AcDbSpline
210
0
220
0
230
1
 70
8
 71
3
 72
11
 73
7
 74
0
 40
0
 40
0
 40
0
 40
0
 40
0.522513
 40
0.522513
 40
0.522513
 40
1
 40
1
 40
1
 40
1
 10
95.2984
 20
18.0718
 30
6.3
 10
95.2979
 20
17.2064
 30
6.3
 10
95.4131
 20
16.3394
 30
6.3
 10
95.6797
 20
15.5183
 30
6.3
 10
95.9217
 20
14.7679
 30
6.3
 10
96.2918
 20
14.0603
 30
6.3
 10
96.7701
 20
13.4336
 30
6.3
  0
SPLINE
  5
A46
330
A02
100
AcDbEntity
  8
Fusion
100
AcDbSpline
210
0
220
0
230
1
 70
8
 71
3
 72
14
 73
10
 74
0
 40
0
 40
0
 40
0
 40
0
 40
0.365601
 40
0.365601
 40
0.365601
 40
0.62484
 40
0.62484
 40
0.62484
 40
1
 40
1
 40
1
 40
1
 10
96.7701
 20
13.4336
 30
6.3
 10
97.1213
 20
12.9708
 30
6.3
 10
97.5491
 20
12.5657
 30
6.3
 10
98.0407
 20
12.2577
 30
6.3
 10
98.3911
 20
12.0386
 30
6.3
 10
98.7642
 20
11.8687
 30
6.3
 10
99.1601
 20
11.7478
 30
6.3
 10
99.7299
 20
11.5724
 30
6.3
 10
100.329
 20
11.4998
 30
6.3
 10
100.928
 20
11.5
 30
6.3
  0
SPLINE
  5
A47
330
A02
100
AcDbEntity
  8
Fusion
100
AcDbSpline
210
0
220
0
230
1
 70
8
 71
3
 72
11
 73
7
 74
0
 40
0
 40
0
 40
0
 40
0
 40
0.439464
 40
0.439464
 40
0.439464
 40
1
 40
1
 40
1
 40
1
 10
100.928
 20
11.5
 30
6.3
 10
101.534
 20
11.499
 30
6.3
 10
102.141
 20
11.6054
 30
6.3
 10
102.7
 20
11.8377
 30
6.3
 10
103.415
 20
12.1311
 30
6.3
 10
104.036
 20
12.6268
 30
6.3
 10
104.533
 20
13.221
 30
6.3
  0
SPLINE
  5
A48
330
A02
100
AcDbEntity
  8
Fusion
100
AcDbSpline
210
0
220
0
230
1
 70
8
 71
3
 72
11
 73
7
 74
0
 40
0
 40
0
 40
0
 40
0
 40
0.592932
 40
0.592932
 40
0.592932
 40
1
 40
1
 40
1
 40
1
 10
104.533
 20
13.221
 30
6.3
 10
104.536
 20
12.644
 30
6.3
 10
104.531
 20
12.0689
 30
6.3
 10
104.502
 20
11.509
 30
6.3
 10
104.48
 20
11.1281
 30
6.3
 10
104.453
 20
10.7424
 30
6.3
 10
104.374
 20
10.4175
 30
6.3
  0
SPLINE
  5
A49
330
A02
100
AcDbEntity
  8
Fusion
100
AcDbSpline
210
0
220
0
230
1
 70
8
 71
3
 72
11
 73
7
 74
0
 40
0
 40
0
 40
0
 40
0
 40
0.481499
 40
0.481499
 40
0.481499
 40
1
 40
1
 40
1
 40
1
 10
104.374
 20
10.4175
 30
6.3
 10
104.287
 20
10.0874
 30
6.3
 10
104.154
 20
9.78034
 30
6.3
 10
103.977
 20
9.49631
 30
6.3
 10
103.785
 20
9.1933
 30
6.3
 10
103.536
 20
8.92939
 30
6.3
 10
103.245
 20
8.71857
 30
6.3
  0
SPLINE
  5
A4A
330
A02
100
AcDbEntity
  8
Fusion
100
AcDbSpline
210
0
220
0
230
1
 70
8
 71
3
 72
11
 73
7
 74
0
 40
0
 40
0
 40
0
 40
0
 40
0.422224
 40
0.422224
 40
0.422224
 40
1
 40
1
 40
1
 40
1
 10
103.245
 20
8.71857
 30
6.3
 10
102.971
 20
8.51855
 30
6.3
 10
102.651
 20
8.37833
 30
6.3
 10
102.316
 20
8.28491
 30
6.3
 10
101.857
 20
8.15705
 30
6.3
 10
101.368
 20
8.11232
 30
6.3
 10
100.878
 20
8.11192
 30
6.3
  0
SPLINE
  5
A4B
330
A02
100
AcDbEntity
  8
Fusion
100
AcDbSpline
210
0
220
0
230
1
 70
8
 71
3
 72
11
 73
7
 74
0
 40
0
 40
0
 40
0
 40
0
 40
0.523244
 40
0.523244
 40
0.523244
 40
1
 40
1
 40
1
 40
1
 10
100.878
 20
8.11192
 30
6.3
 10
100.456
 20
8.11208
 30
6.3
 10
100.037
 20
8.15119
 30
6.3
 10
99.6376
 20
8.25443
 30
6.3
 10
99.2747
 20
8.3482
 30
6.3
 10
98.9296
 20
8.49788
 30
6.3
 10
98.6342
 20
8.7153
 30
6.3
  0
SPLINE
  5
A4C
330
A02
100
AcDbEntity
  8
Fusion
100
AcDbSpline
210
0
220
0
230
1
 70
8
 71
3
 72
11
 73
7
 74
0
 40
0
 40
0
 40
0
 40
0
 40
0.629297
 40
0.629297
 40
0.629297
 40
1
 40
1
 40
1
 40
1
 10
98.6342
 20
8.7153
 30
6.3
 10
98.3586
 20
8.91392
 30
6.3
 10
98.1573
 20
9.20204
 30
6.3
 10
98.0355
 20
9.52967
 30
6.3
 10
97.9639
 20
9.72382
 30
6.3
 10
97.9141
 20
9.9271
 30
6.3
 10
97.8861
 20
10.1395
 30
6.3
  0
LINE
  5
A4D
330
A02
100
AcDbEntity
  8
Fusion
100
AcDbLine
 10
41
 20
29.5
 30
6.3
 11
41
 21
11.5
 31
6.3
  0
LINE
  5
A4E
330
A02
100
AcDbEntity
  8
Fusion
100
AcDbLine
 10
41
 20
11.5
 30
6.3
 11
43.3792
 21
11.5
 31
6.3
  0
LINE
  5
A4F
330
A02
100
AcDbEntity
  8
Fusion
100
AcDbLine
 10
43.3792
 20
11.5
 30
6.3
 11
43.3792
 21
29.5
 31
6.3
  0
LINE
  5
A50
330
A02
100
AcDbEntity
  8
Fusion
100
AcDbLine
 10
43.3792
 20
29.5
 30
6.3
 11
41
 21
29.5
 31
6.3
  0
LINE
  5
A51
330
A02
100
AcDbEntity
  8
Fusion
100
AcDbLine
 10
52.4111
 20
11.5
 30
6.3
 11
52.0922
 21
13.4491
 31
6.3
  0
SPLINE
  5
A52
330
A02
100
AcDbEntity
  8
Fusion
100
AcDbSpline
210
0
220
0
230
1
 70
8
 71
3
 72
8
 73
4
 74
0
 40
0
 40
0
 40
0
 40
0
 40
1
 40
1
 40
1
 40
1
 10
52.0922
 20
13.4491
 30
6.3
 10
51.7364
 20
13.4028
 30
6.3
 10
51.4005
 20
13.3709
 30
6.3
 10
51.1234
 20
13.3706
 30
6.3
  0
SPLINE
  5
A53
330
A02
100
AcDbEntity
  8
Fusion
100
AcDbSpline
210
0
220
0
230
1
 70
8
 71
3
 72
8
 73
4
 74
0
 40
0
 40
0
 40
0
 40
0
 40
1
 40
1
 40
1
 40
1
 10
51.1234
 20
13.3706
 30
6.3
 10
50.8271
 20
13.3705
 30
6.3
 10
50.5595
 20
13.4147
 30
6.3
 10
50.3687
 20
13.5301
 30
6.3
  0
SPLINE
  5
A54
330
A02
100
AcDbEntity
  8
Fusion
100
AcDbSpline
210
0
220
0
230
1
 70
8
 71
2
 72
6
 73
3
 74
0
 40
0
 40
0
 40
0
 40
1
 40
1
 40
1
 10
50.3687
 20
13.5301
 30
6.3
 10
50.1067
 20
13.6891
 30
6.3
 10
49.9886
 20
13.9609
 30
6.3
  0
SPLINE
  5
A55
330
A02
100
AcDbEntity
  8
Fusion
100
AcDbSpline
210
0
220
0
230
1
 70
8
 71
3
 72
11
 73
7
 74
0
 40
0
 40
0
 40
0
 40
0
 40
0.242108
 40
0.242108
 40
0.242108
 40
1
 40
1
 40
1
 40
1
 10
49.9886
 20
13.9609
 30
6.3
 10
49.963
 20
14.0232
 30
6.3
 10
49.943
 20
14.0995
 30
6.3
 10
49.9284
 20
14.1899
 30
6.3
 10
49.8825
 20
14.4712
 30
6.3
 10
49.8732
 20
14.8222
 30
6.3
 10
49.8725
 20
15.1783
 30
6.3
  0
LINE
  5
A56
330
A02
100
AcDbEntity
  8
Fusion
100
AcDbLine
 10
49.8725
 20
15.1783
 30
6.3
 11
49.8725
 21
22.8154
 31
6.3
  0
LINE
  5
A57
330
A02
100
AcDbEntity
  8
Fusion
100
AcDbLine
 10
49.8725
 20
22.8154
 30
6.3
 11
52.0922
 21
22.8154
 31
6.3
  0
LINE
  5
A58
330
A02
100
AcDbEntity
  8
Fusion
100
AcDbLine
 10
52.0922
 20
22.8154
 30
6.3
 11
52.0922
 21
24.5291
 31
6.3
  0
LINE
  5
A59
330
A02
100
AcDbEntity
  8
Fusion
100
AcDbLine
 10
52.0922
 20
24.5291
 30
6.3
 11
49.8725
 21
24.5291
 31
6.3
  0
LINE
  5
A5A
330
A02
100
AcDbEntity
  8
Fusion
100
AcDbLine
 10
49.8725
 20
24.5291
 30
6.3
 11
49.8725
 21
29.0814
 31
6.3
  0
LINE
  5
A5B
330
A02
100
AcDbEntity
  8
Fusion
100
AcDbLine
 10
49.8725
 20
29.0814
 30
6.3
 11
47.6772
 21
27.7561
 31
6.3
  0
LINE
  5
A5C
330
A02
100
AcDbEntity
  8
Fusion
100
AcDbLine
 10
47.6772
 20
27.7561
 30
6.3
 11
47.6772
 21
24.5291
 31
6.3
  0
LINE
  5
A5D
330
A02
100
AcDbEntity
  8
Fusion
100
AcDbLine
 10
47.6772
 20
24.5291
 30
6.3
 11
46.0584
 21
24.5291
 31
6.3
  0
LINE
  5
A5E
330
A02
100
AcDbEntity
  8
Fusion
100
AcDbLine
 10
46.0584
 20
24.5291
 30
6.3
 11
46.0584
 21
22.8154
 31
6.3
  0
LINE
  5
A5F
330
A02
100
AcDbEntity
  8
Fusion
100
AcDbLine
 10
46.0584
 20
22.8154
 30
6.3
 11
47.6772
 21
22.8154
 31
6.3
  0
LINE
  5
A60
330
A02
100
AcDbEntity
  8
Fusion
100
AcDbLine
 10
47.6772
 20
22.8154
 30
6.3
 11
47.6772
 21
15.3263
 31
6.3
  0
SPLINE
  5
A61
330
A02
100
AcDbEntity
  8
Fusion
100
AcDbSpline
210
0
220
0
230
1
 70
8
 71
3
 72
11
 73
7
 74
0
 40
0
 40
0
 40
0
 40
0
 40
0.596206
 40
0.596206
 40
0.596206
 40
1
 40
1
 40
1
 40
1
 10
47.6772
 20
15.3263
 30
6.3
 10
47.6779
 20
14.7815
 30
6.3
 10
47.6902
 20
14.2385
 30
6.3
 10
47.7415
 20
13.714
 30
6.3
 10
47.7787
 20
13.3626
 30
6.3
 10
47.8274
 20
13.0075
 30
6.3
 10
47.947
 20
12.7215
 30
6.3
  0
SPLINE
  5
A62
330
A02
100
AcDbEntity
  8
Fusion
100
AcDbSpline
210
0
220
0
230
1
 70
8
 71
3
 72
8
 73
4
 74
0
 40
0
 40
0
 40
0
 40
0
 40
1
 40
1
 40
1
 40
1
 10
47.947
 20
12.7215
 30
6.3
 10
48.1285
 20
12.2985
 30
6.3
 10
48.4637
 20
11.958
 30
6.3
 10
48.8791
 20
11.7224
 30
6.3
  0
SPLINE
  5
A63
330
A02
100
AcDbEntity
  8
Fusion
100
AcDbSpline
210
0
220
0
230
1
 70
8
 71
3
 72
11
 73
7
 74
0
 40
0
 40
0
 40
0
 40
0
 40
0.313701
 40
0.313701
 40
0.313701
 40
1
 40
1
 40
1
 40
1
 10
48.8791
 20
11.7224
 30
6.3
 10
49.0453
 20
11.6288
 30
6.3
 10
49.2242
 20
11.5551
 30
6.3
 10
49.4156
 20
11.5013
 30
6.3
 10
49.8324
 20
11.3825
 30
6.3
 10
50.2855
 20
11.3436
 30
6.3
 10
50.7432
 20
11.343
 30
6.3
  0
SPLINE
  5
A64
330
A02
100
AcDbEntity
  8
Fusion
100
AcDbSpline
210
0
220
0
230
1
 70
8
 71
3
 72
8
 73
4
 74
0
 40
0
 40
0
 40
0
 40
0
 40
1
 40
1
 40
1
 40
1
 10
50.7432
 20
11.343
 30
6.3
 10
51.2822
 20
11.3434
 30
6.3
 10
51.8438
 20
11.4047
 30
6.3
 10
52.4111
 20
11.5
 30
6.3
  0
LINE
  5
A65
330
A02
100
AcDbEntity
  8
Fusion
100
AcDbLine
 10
62.6816
 20
13.1434
 30
6.3
 11
62.6816
 21
11.5
 31
6.3
  0
LINE
  5
A66
330
A02
100
AcDbEntity
  8
Fusion
100
AcDbLine
 10
62.6816
 20
11.5
 30
6.3
 11
64.7297
 21
11.5
 31
6.3
  0
LINE
  5
A67
330
A02
100
AcDbEntity
  8
Fusion
100
AcDbLine
 10
64.7297
 20
11.5
 30
6.3
 11
64.7297
 21
29.5
 31
6.3
  0
LINE
  5
A68
330
A02
100
AcDbEntity
  8
Fusion
100
AcDbLine
 10
64.7297
 20
29.5
 30
6.3
 11
62.5344
 21
29.5
 31
6.3
  0
LINE
  5
A69
330
A02
100
AcDbEntity
  8
Fusion
100
AcDbLine
 10
62.5344
 20
29.5
 30
6.3
 11
62.5344
 21
23.028
 31
6.3
  0
SPLINE
  5
A6A
330
A02
100
AcDbEntity
  8
Fusion
100
AcDbSpline
210
0
220
0
230
1
 70
8
 71
3
 72
8
 73
4
 74
0
 40
0
 40
0
 40
0
 40
0
 40
1
 40
1
 40
1
 40
1
 10
62.5344
 20
23.028
 30
6.3
 10
62.1457
 20
23.56
 30
6.3
 10
61.6278
 20
23.9901
 30
6.3
 10
61.0382
 20
24.3018
 30
6.3
  0
SPLINE
  5
A6B
330
A02
100
AcDbEntity
  8
Fusion
100
AcDbSpline
210
0
220
0
230
1
 70
8
 71
3
 72
8
 73
4
 74
0
 40
0
 40
0
 40
0
 40
0
 40
1
 40
1
 40
1
 40
1
 10
61.0382
 20
24.3018
 30
6.3
 10
60.4026
 20
24.642
 30
6.3
 10
59.6749
 20
24.7926
 30
6.3
 10
58.9411
 20
24.7907
 30
6.3
  0
SPLINE
  5
A6C
330
A02
100
AcDbEntity
  8
Fusion
100
AcDbSpline
210
0
220
0
230
1
 70
8
 71
3
 72
11
 73
7
 74
0
 40
0
 40
0
 40
0
 40
0
 40
0.614723
 40
0.614723
 40
0.614723
 40
1
 40
1
 40
1
 40
1
 10
58.9411
 20
24.7907
 30
6.3
 10
58.3097
 20
24.7914
 30
6.3
 10
57.6799
 20
24.6904
 30
6.3
 10
57.0895
 20
24.475
 30
6.3
 10
56.7184
 20
24.3395
 30
6.3
 10
56.3667
 20
24.1637
 30
6.3
 10
56.0346
 20
23.9478
 30
6.3
  0
SPLINE
  5
A6D
330
A02
100
AcDbEntity
  8
Fusion
100
AcDbSpline
210
0
220
0
230
1
 70
8
 71
3
 72
11
 73
7
 74
0
 40
0
 40
0
 40
0
 40
0
 40
0.602239
 40
0.602239
 40
0.602239
 40
1
 40
1
 40
1
 40
1
 10
56.0346
 20
23.9478
 30
6.3
 10
55.5023
 20
23.6043
 30
6.3
 10
55.0423
 20
23.1542
 30
6.3
 10
54.6815
 20
22.6324
 30
6.3
 10
54.4432
 20
22.286
 30
6.3
 10
54.2442
 20
21.9167
 30
6.3
 10
54.0847
 20
21.5244
 30
6.3
  0
SPLINE
  5
A6E
330
A02
100
AcDbEntity
  8
Fusion
100
AcDbSpline
210
0
220
0
230
1
 70
8
 71
3
 72
8
 73
4
 74
0
 40
0
 40
0
 40
0
 40
0
 40
1
 40
1
 40
1
 40
1
 10
54.0847
 20
21.5244
 30
6.3
 10
53.6275
 20
20.4163
 30
6.3
 10
53.4333
 20
19.2084
 30
6.3
 10
53.4347
 20
18.0023
 30
6.3
  0
SPLINE
  5
A6F
330
A02
100
AcDbEntity
  8
Fusion
100
AcDbSpline
210
0
220
0
230
1
 70
8
 71
3
 72
8
 73
4
 74
0
 40
0
 40
0
 40
0
 40
0
 40
1
 40
1
 40
1
 40
1
 10
53.4347
 20
18.0023
 30
6.3
 10
53.4331
 20
16.7893
 30
6.3
 10
53.6395
 20
15.5705
 30
6.3
 10
54.1517
 20
14.4801
 30
6.3
  0
SPLINE
  5
A70
330
A02
100
AcDbEntity
  8
Fusion
100
AcDbSpline
210
0
220
0
230
1
 70
8
 71
3
 72
8
 73
4
 74
0
 40
0
 40
0
 40
0
 40
0
 40
1
 40
1
 40
1
 40
1
 10
54.1517
 20
14.4801
 30
6.3
 10
54.5975
 20
13.5163
 30
6.3
 10
55.2871
 20
12.6679
 30
6.3
 10
56.1752
 20
12.0928
 30
6.3
  0
SPLINE
  5
A71
330
A02
100
AcDbEntity
  8
Fusion
100
AcDbSpline
210
0
220
0
230
1
 70
8
 71
3
 72
11
 73
7
 74
0
 40
0
 40
0
 40
0
 40
0
 40
0.50718
 40
0.50718
 40
0.50718
 40
1
 40
1
 40
1
 40
1
 10
56.1752
 20
12.0928
 30
6.3
 10
56.6052
 20
11.8111
 30
6.3
 10
57.0731
 20
11.59
 30
6.3
 10
57.5646
 20
11.446
 30
6.3
 10
58.0418
 20
11.3054
 30
6.3
 10
58.5399
 20
11.238
 30
6.3
 10
59.0392
 20
11.2384
 30
6.3
  0
SPLINE
  5
A72
330
A02
100
AcDbEntity
  8
Fusion
100
AcDbSpline
210
0
220
0
230
1
 70
8
 71
3
 72
11
 73
7
 74
0
 40
0
 40
0
 40
0
 40
0
 40
0.566994
 40
0.566994
 40
0.566994
 40
1
 40
1
 40
1
 40
1
 10
59.0392
 20
11.2384
 30
6.3
 10
59.8545
 20
11.2354
 30
6.3
 10
60.6797
 20
11.4119
 30
6.3
 10
61.373
 20
11.84
 30
6.3
 10
61.9033
 20
12.1628
 30
6.3
 10
62.3437
 20
12.621
 30
6.3
 10
62.6816
 20
13.1434
 30
6.3
  0
SPLINE
  5
A73
330
A02
100
AcDbEntity
  8
Fusion
100
AcDbSpline
210
0
220
0
230
1
 70
8
 71
3
 72
14
 73
10
 74
0
 40
0
 40
0
 40
0
 40
0
 40
0.326435
 40
0.326435
 40
0.326435
 40
0.569955
 40
0.569955
 40
0.569955
 40
1
 40
1
 40
1
 40
1
 10
69.3924
 20
23.3501
 30
6.3
 10
68.9076
 20
22.9336
 30
6.3
 10
68.5055
 20
22.4238
 30
6.3
 10
68.2049
 20
21.8595
 30
6.3
 10
67.9812
 20
21.4361
 30
6.3
 10
67.8075
 20
20.9923
 30
6.3
 10
67.6839
 20
20.5282
 30
6.3
 10
67.4631
 20
19.7122
 30
6.3
 10
67.3815
 20
18.8618
 30
6.3
 10
67.3811
 20
18.0145
 30
6.3
  0
SPLINE
  5
A74
330
A02
100
AcDbEntity
  8
Fusion
100
AcDbSpline
210
0
220
0
230
1
 70
8
 71
3
 72
11
 73
7
 74
0
 40
0
 40
0
 40
0
 40
0
 40
0.457372
 40
0.457372
 40
0.457372
 40
1
 40
1
 40
1
 40
1
 10
67.3811
 20
18.0145
 30
6.3
 10
67.3814
 20
17.1814
 30
6.3
 10
67.4612
 20
16.3457
 30
6.3
 10
67.6742
 20
15.5429
 30
6.3
 10
67.9236
 20
14.5923
 30
6.3
 10
68.3815
 20
13.6889
 30
6.3
 10
69.067
 20
12.9839
 30
6.3
  0
SPLINE
  5
A75
330
A02
100
AcDbEntity
  8
Fusion
100
AcDbSpline
210
0
220
0
230
1
 70
8
 71
3
 72
11
 73
7
 74
0
 40
0
 40
0
 40
0
 40
0
 40
0.590244
 40
0.590244
 40
0.590244
 40
1
 40
1
 40
1
 40
1
 10
69.067
 20
12.9839
 30
6.3
 10
69.7327
 20
12.2884
 30
6.3
 10
70.5806
 20
11.7742
 30
6.3
 10
71.5054
 20
11.5066
 30
6.3
 10
72.1466
 20
11.3176
 30
6.3
 10
72.8181
 20
11.2382
 30
6.3
 10
73.4885
 20
11.2384
 30
6.3
  0
SPLINE
  5
A76
330
A02
100
AcDbEntity
  8
Fusion
100
AcDbSpline
210
0
220
0
230
1
 70
8
 71
3
 72
8
 73
4
 74
0
 40
0
 40
0
 40
0
 40
0
 40
1
 40
1
 40
1
 40
1
 10
73.4885
 20
11.2384
 30
6.3
 10
74.5849
 20
11.234
 30
6.3
 10
75.677
 20
11.4996
 30
6.3
 10
76.6337
 20
12.0314
 30
6.3
  0
SPLINE
  5
A77
330
A02
100
AcDbEntity
  8
Fusion
100
AcDbSpline
210
0
220
0
230
1
 70
8
 71
3
 72
11
 73
7
 74
0
 40
0
 40
0
 40
0
 40
0
 40
0.547189
 40
0.547189
 40
0.547189
 40
1
 40
1
 40
1
 40
1
 10
76.6337
 20
12.0314
 30
6.3
 10
77.1427
 20
12.3111
 30
6.3
 10
77.6088
 20
12.6658
 30
6.3
 10
78.0028
 20
13.0894
 30
6.3
 10
78.3299
 20
13.4421
 30
6.3
 10
78.6053
 20
13.8324
 30
6.3
 10
78.8289
 20
14.2602
 30
6.3
  0
SPLINE
  5
A78
330
A02
100
AcDbEntity
  8
Fusion
100
AcDbSpline
210
0
220
0
230
1
 70
8
 71
3
 72
11
 73
7
 74
0
 40
0
 40
0
 40
0
 40
0
 40
0.399934
 40
0.399934
 40
0.399934
 40
1
 40
1
 40
1
 40
1
 10
78.8289
 20
14.2602
 30
6.3
 10
79.0762
 20
14.731
 30
6.3
 10
79.2422
 20
15.2456
 30
6.3
 10
79.3561
 20
15.7716
 30
6.3
 10
79.526
 20
16.5626
 30
6.3
 10
79.5827
 20
17.3803
 30
6.3
 10
79.5836
 20
18.1977
 30
6.3
  0
SPLINE
  5
A79
330
A02
100
AcDbEntity
  8
Fusion
100
AcDbSpline
210
0
220
0
230
1
 70
8
 71
3
 72
14
 73
10
 74
0
 40
0
 40
0
 40
0
 40
0
 40
0.384244
 40
0.384244
 40
0.384244
 40
0.643174
 40
0.643174
 40
0.643174
 40
1
 40
1
 40
1
 40
1
 10
79.5836
 20
18.1977
 30
6.3
 10
79.5835
 20
18.8752
 30
6.3
 10
79.5224
 20
19.5535
 30
6.3
 10
79.3712
 20
20.2118
 30
6.3
 10
79.2704
 20
20.6572
 30
6.3
 10
79.1249
 20
21.0867
 30
6.3
 10
78.9346
 20
21.5004
 30
6.3
 10
78.6719
 20
22.0679
 30
6.3
 10
78.3153
 20
22.5912
 30
6.3
 10
77.8789
 20
23.0386
 30
6.3
  0
SPLINE
  5
A7A
330
A02
100
AcDbEntity
  8
Fusion
100
AcDbSpline
210
0
220
0
230
1
 70
8
 71
3
 72
11
 73
7
 74
0
 40
0
 40
0
 40
0
 40
0
 40
0.619179
 40
0.619179
 40
0.619179
 40
1
 40
1
 40
1
 40
1
 10
77.8789
 20
23.0386
 30
6.3
 10
77.1821
 20
23.7621
 30
6.3
 10
76.2928
 20
24.294
 30
6.3
 10
75.323
 20
24.556
 30
6.3
 10
74.7277
 20
24.7203
 30
6.3
 10
74.1078
 20
24.7909
 30
6.3
 10
73.4885
 20
24.7907
 30
6.3
  0
SPLINE
  5
A7B
330
A02
100
AcDbEntity
  8
Fusion
100
AcDbSpline
210
0
220
0
230
1
 70
8
 71
3
 72
11
 73
7
 74
0
 40
0
 40
0
 40
0
 40
0
 40
0.685513
 40
0.685513
 40
0.685513
 40
1
 40
1
 40
1
 40
1
 10
73.4885
 20
24.7907
 30
6.3
 10
72.472
 20
24.7934
 30
6.3
 10
71.4497
 20
24.5906
 30
6.3
 10
70.5468
 20
24.1265
 30
6.3
 10
70.1315
 20
23.9137
 30
6.3
 10
69.7467
 20
23.6549
 30
6.3
 10
69.3924
 20
23.3501
 30
6.3
  0
LINE
  5
A7C
330
A02
100
AcDbEntity
  8
Fusion
100
AcDbLine
 10
82.1737
 20
24.5291
 30
6.3
 11
82.1737
 21
11.5
 31
6.3
  0
LINE
  5
A7D
330
A02
100
AcDbEntity
  8
Fusion
100
AcDbLine
 10
82.1737
 20
11.5
 30
6.3
 11
84.3812
 21
11.5
 31
6.3
  0
LINE
  5
A7E
330
A02
100
AcDbEntity
  8
Fusion
100
AcDbLine
 10
84.3812
 20
11.5
 30
6.3
 11
84.3812
 21
18.6057
 31
6.3
  0
SPLINE
  5
A7F
330
A02
100
AcDbEntity
  8
Fusion
100
AcDbSpline
210
0
220
0
230
1
 70
8
 71
3
 72
11
 73
7
 74
0
 40
0
 40
0
 40
0
 40
0
 40
0.638697
 40
0.638697
 40
0.638697
 40
1
 40
1
 40
1
 40
1
 10
84.3812
 20
18.6057
 30
6.3
 10
84.3841
 20
19.3931
 30
6.3
 10
84.4481
 20
20.1903
 30
6.3
 10
84.7091
 20
20.9208
 30
6.3
 10
84.8577
 20
21.3306
 30
6.3
 10
85.0807
 20
21.7171
 30
6.3
 10
85.4048
 20
21.9995
 30
6.3
  0
SPLINE
  5
A80
330
A02
100
AcDbEntity
  8
Fusion
100
AcDbSpline
210
0
220
0
230
1
 70
8
 71
3
 72
11
 73
7
 74
0
 40
0
 40
0
 40
0
 40
0
 40
0.423215
 40
0.423215
 40
0.423215
 40
1
 40
1
 40
1
 40
1
 10
85.4048
 20
21.9995
 30
6.3
 10
85.6889
 20
22.2491
 30
6.3
 10
86.0032
 20
22.449
 30
6.3
 10
86.3476
 20
22.5992
 30
6.3
 10
86.8147
 20
22.8019
 30
6.3
 10
87.3261
 20
22.8948
 30
6.3
 10
87.8396
 20
22.8939
 30
6.3
  0
SPLINE
  5
A81
330
A02
100
AcDbEntity
  8
Fusion
100
AcDbSpline
210
0
220
0
230
1
 70
8
 71
3
 72
8
 73
4
 74
0
 40
0
 40
0
 40
0
 40
0
 40
1
 40
1
 40
1
 40
1
 10
87.8396
 20
22.8939
 30
6.3
 10
88.3888
 20
22.8956
 30
6.3
 10
88.9258
 20
22.7727
 30
6.3
 10
89.3783
 20
22.4957
 30
6.3
  0
SPLINE
  5
A82
330
A02
100
AcDbEntity
  8
Fusion
100
AcDbSpline
210
0
220
0
230
1
 70
8
 71
3
 72
8
 73
4
 74
0
 40
0
 40
0
 40
0
 40
0
 40
1
 40
1
 40
1
 40
1
 10
89.3783
 20
22.4957
 30
6.3
 10
89.797
 20
22.2453
 30
6.3
 10
90.1233
 20
21.877
 30
6.3
 10
90.2923
 20
21.4296
 30
6.3
  0
SPLINE
  5
A83
330
A02
100
AcDbEntity
  8
Fusion
100
AcDbSpline
210
0
220
0
230
1
 70
8
 71
3
 72
11
 73
7
 74
0
 40
0
 40
0
 40
0
 40
0
 40
0.66419
 40
0.66419
 40
0.66419
 40
1
 40
1
 40
1
 40
1
 10
90.2923
 20
21.4296
 30
6.3
 10
90.4397
 20
21.041
 30
6.3
 10
90.4985
 20
20.5853
 30
6.3
 10
90.5291
 20
20.1251
 30
6.3
 10
90.5434
 20
19.8909
 30
6.3
 10
90.5503
 20
19.6539
 30
6.3
 10
90.5499
 20
19.4142
 30
6.3
  0
LINE
  5
A84
330
A02
100
AcDbEntity
  8
Fusion
100
AcDbLine
 10
90.5499
 20
19.4142
 30
6.3
 11
90.5499
 21
11.5
 31
6.3
  0
LINE
  5
A85
330
A02
100
AcDbEntity
  8
Fusion
100
AcDbLine
 10
90.5499
 20
11.5
 30
6.3
 11
92.7574
 21
11.5
 31
6.3
  0
LINE
  5
A86
330
A02
100
AcDbEntity
  8
Fusion
100
AcDbLine
 10
92.7574
 20
11.5
 30
6.3
 11
92.7574
 21
19.4919
 31
6.3
  0
SPLINE
  5
A87
330
A02
100
AcDbEntity
  8
Fusion
100
AcDbSpline
210
0
220
0
230
1
 70
8
 71
3
 72
11
 73
7
 74
0
 40
0
 40
0
 40
0
 40
0
 40
0.66876
 40
0.66876
 40
0.66876
 40
1
 40
1
 40
1
 40
1
 10
92.7574
 20
19.4919
 30
6.3
 10
92.7569
 20
19.9955
 30
6.3
 10
92.7488
 20
20.4955
 30
6.3
 10
92.7152
 20
20.9694
 30
6.3
 10
92.6981
 20
21.2029
 30
6.3
 10
92.6747
 20
21.4313
 30
6.3
 10
92.6347
 20
21.6332
 30
6.3
  0
SPLINE
  5
A88
330
A02
100
AcDbEntity
  8
Fusion
100
AcDbSpline
210
0
220
0
230
1
 70
8
 71
3
 72
8
 73
4
 74
0
 40
0
 40
0
 40
0
 40
0
 40
1
 40
1
 40
1
 40
1
 10
92.6347
 20
21.6332
 30
6.3
 10
92.5125
 20
22.2242
 30
6.3
 10
92.2898
 20
22.785
 30
6.3
 10
91.9479
 20
23.261
 30
6.3
  0
SPLINE
  5
A89
330
A02
100
AcDbEntity
  8
Fusion
100
AcDbSpline
210
0
220
0
230
1
 70
8
 71
3
 72
8
 73
4
 74
0
 40
0
 40
0
 40
0
 40
0
 40
1
 40
1
 40
1
 40
1
 10
91.9479
 20
23.261
 30
6.3
 10
91.5933
 20
23.7583
 30
6.3
 10
91.0579
 20
24.118
 30
6.3
 10
90.4697
 20
24.368
 30
6.3
  0
SPLINE
  5
A8A
330
A02
100
AcDbEntity
  8
Fusion
100
AcDbSpline
210
0
220
0
230
1
 70
8
 71
3
 72
8
 73
4
 74
0
 40
0
 40
0
 40
0
 40
0
 40
1
 40
1
 40
1
 40
1
 10
90.4697
 20
24.368
 30
6.3
 10
89.7931
 20
24.6592
 30
6.3
 10
89.0523
 20
24.7919
 30
6.3
 10
88.3056
 20
24.7907
 30
6.3
  0
SPLINE
  5
A8B
330
A02
100
AcDbEntity
  8
Fusion
100
AcDbSpline
210
0
220
0
230
1
 70
8
 71
3
 72
11
 73
7
 74
0
 40
0
 40
0
 40
0
 40
0
 40
0.565833
 40
0.565833
 40
0.565833
 40
1
 40
1
 40
1
 40
1
 10
88.3056
 20
24.7907
 30
6.3
 10
87.3858
 20
24.7939
 30
6.3
 10
86.4542
 20
24.5966
 30
6.3
 10
85.666
 20
24.1204
 30
6.3
 10
85.0605
 20
23.7596
 30
6.3
 10
84.5534
 20
23.247
 30
6.3
 10
84.1604
 20
22.6609
 30
6.3
  0
LINE
  5
A8C
330
A02
100
AcDbEntity
  8
Fusion
100
AcDbLine
 10
84.1604
 20
22.6609
 30
6.3
 11
84.1604
 21
24.5291
 31
6.3
  0
LINE
  5
A8D
330
A02
100
AcDbEntity
  8
Fusion
100
AcDbLine
 10
84.1604
 20
24.5291
 30
6.3
 11
82.1737
 21
24.5291
 31
6.3
  0
SPLINE
  5
A8E
330
A02
100
AcDbEntity
  8
Fusion
100
AcDbSpline
210
0
220
0
230
1
 70
8
 71
3
 72
14
 73
10
 74
0
 40
0
 40
0
 40
0
 40
0
 40
0.326435
 40
0.326435
 40
0.326435
 40
0.569955
 40
0.569955
 40
0.569955
 40
1
 40
1
 40
1
 40
1
 10
111.305
 20
23.3501
 30
6.3
 10
110.82
 20
22.9336
 30
6.3
 10
110.418
 20
22.4238
 30
6.3
 10
110.118
 20
21.8595
 30
6.3
 10
109.894
 20
21.4361
 30
6.3
 10
109.72
 20
20.9923
 30
6.3
 10
109.597
 20
20.5282
 30
6.3
 10
109.376
 20
19.7122
 30
6.3
 10
109.294
 20
18.8618
 30
6.3
 10
109.294
 20
18.0145
 30
6.3
  0
SPLINE
  5
A8F
330
A02
100
AcDbEntity
  8
Fusion
100
AcDbSpline
210
0
220
0
230
1
 70
8
 71
3
 72
11
 73
7
 74
0
 40
0
 40
0
 40
0
 40
0
 40
0.457372
 40
0.457372
 40
0.457372
 40
1
 40
1
 40
1
 40
1
 10
109.294
 20
18.0145
 30
6.3
 10
109.294
 20
17.1814
 30
6.3
 10
109.374
 20
16.3457
 30
6.3
 10
109.587
 20
15.5429
 30
6.3
 10
109.836
 20
14.5923
 30
6.3
 10
110.294
 20
13.6889
 30
6.3
 10
110.98
 20
12.9839
 30
6.3
  0
SPLINE
  5
A90
330
A02
100
AcDbEntity
  8
Fusion
100
AcDbSpline
210
0
220
0
230
1
 70
8
 71
3
 72
11
 73
7
 74
0
 40
0
 40
0
 40
0
 40
0
 40
0.590244
 40
0.590244
 40
0.590244
 40
1
 40
1
 40
1
 40
1
 10
110.98
 20
12.9839
 30
6.3
 10
111.646
 20
12.2884
 30
6.3
 10
112.493
 20
11.7742
 30
6.3
 10
113.418
 20
11.5066
 30
6.3
 10
114.059
 20
11.3176
 30
6.3
 10
114.731
 20
11.2382
 30
6.3
 10
115.401
 20
11.2384
 30
6.3
  0
SPLINE
  5
A91
330
A02
100
AcDbEntity
  8
Fusion
100
AcDbSpline
210
0
220
0
230
1
 70
8
 71
3
 72
8
 73
4
 74
0
 40
0
 40
0
 40
0
 40
0
 40
1
 40
1
 40
1
 40
1
 10
115.401
 20
11.2384
 30
6.3
 10
116.498
 20
11.234
 30
6.3
 10
117.59
 20
11.4996
 30
6.3
 10
118.547
 20
12.0314
 30
6.3
  0
SPLINE
  5
A92
330
A02
100
AcDbEntity
  8
Fusion
100
AcDbSpline
210
0
220
0
230
1
 70
8
 71
3
 72
11
 73
7
 74
0
 40
0
 40
0
 40
0
 40
0
 40
0.547189
 40
0.547189
 40
0.547189
 40
1
 40
1
 40
1
 40
1
 10
118.547
 20
12.0314
 30
6.3
 10
119.055
 20
12.3111
 30
6.3
 10
119.522
 20
12.6658
 30
6.3
 10
119.916
 20
13.0894
 30
6.3
 10
120.243
 20
13.4421
 30
6.3
 10
120.518
 20
13.8324
 30
6.3
 10
120.742
 20
14.2602
 30
6.3
  0
SPLINE
  5
A93
330
A02
100
AcDbEntity
  8
Fusion
100
AcDbSpline
210
0
220
0
230
1
 70
8
 71
3
 72
11
 73
7
 74
0
 40
0
 40
0
 40
0
 40
0
 40
0.399934
 40
0.399934
 40
0.399934
 40
1
 40
1
 40
1
 40
1
 10
120.742
 20
14.2602
 30
6.3
 10
120.989
 20
14.731
 30
6.3
 10
121.155
 20
15.2456
 30
6.3
 10
121.269
 20
15.7716
 30
6.3
 10
121.439
 20
16.5626
 30
6.3
 10
121.496
 20
17.3803
 30
6.3
 10
121.496
 20
18.1977
 30
6.3
  0
SPLINE
  5
A94
330
A02
100
AcDbEntity
  8
Fusion
100
AcDbSpline
210
0
220
0
230
1
 70
8
 71
3
 72
14
 73
10
 74
0
 40
0
 40
0
 40
0
 40
0
 40
0.384244
 40
0.384244
 40
0.384244
 40
0.643174
 40
0.643174
 40
0.643174
 40
1
 40
1
 40
1
 40
1
 10
121.496
 20
18.1977
 30
6.3
 10
121.496
 20
18.8752
 30
6.3
 10
121.435
 20
19.5535
 30
6.3
 10
121.284
 20
20.2118
 30
6.3
 10
121.183
 20
20.6572
 30
6.3
 10
121.038
 20
21.0867
 30
6.3
 10
120.847
 20
21.5004
 30
6.3
 10
120.585
 20
22.0679
 30
6.3
 10
120.228
 20
22.5912
 30
6.3
 10
119.792
 20
23.0386
 30
6.3
  0
SPLINE
  5
A95
330
A02
100
AcDbEntity
  8
Fusion
100
AcDbSpline
210
0
220
0
230
1
 70
8
 71
3
 72
11
 73
7
 74
0
 40
0
 40
0
 40
0
 40
0
 40
0.619179
 40
0.619179
 40
0.619179
 40
1
 40
1
 40
1
 40
1
 10
119.792
 20
23.0386
 30
6.3
 10
119.095
 20
23.7621
 30
6.3
 10
118.206
 20
24.294
 30
6.3
 10
117.236
 20
24.556
 30
6.3
 10
116.64
 20
24.7203
 30
6.3
 10
116.021
 20
24.7909
 30
6.3
 10
115.401
 20
24.7907
 30
6.3
  0
SPLINE
  5
A96
330
A02
100
AcDbEntity
  8
Fusion
100
AcDbSpline
210
0
220
0
230
1
 70
8
 71
3
 72
11
 73
7
 74
0
 40
0
 40
0
 40
0
 40
0
 40
0.685513
 40
0.685513
 40
0.685513
 40
1
 40
1
 40
1
 40
1
 10
115.401
 20
24.7907
 30
6.3
 10
114.385
 20
24.7934
 30
6.3
 10
113.363
 20
24.5906
 30
6.3
 10
112.46
 20
24.1265
 30
6.3
 10
112.044
 20
23.9137
 30
6.3
 10
111.66
 20
23.6549
 30
6.3
 10
111.305
 20
23.3501
 30
6.3
  0
LINE
  5
A97
330
A02
100
AcDbEntity
  8
Fusion
100
AcDbLine
 10
97.8861
 20
10.1395
 30
6.3
 11
95.7399
 21
10.4535
 31
6.3
  0
LINE
  5
A98
330
A02
100
AcDbEntity
  8
Fusion
100
AcDbLine
 10
97.8861
 20
10.1395
 30
6.3
 11
97.8861
 21
10.1395
 31
9.5
  0
LINE
  5
A99
330
A02
100
AcDbEntity
  8
Fusion
100
AcDbLine
 10
95.7399
 20
10.4535
 30
9.5
 11
97.8861
 21
10.1395
 31
9.5
  0
LINE
  5
A9A
330
A02
100
AcDbEntity
  8
Fusion
100
AcDbLine
 10
95.7399
 20
10.4535
 30
6.3
 11
95.7399
 21
10.4535
 31
9.5
  0
SPLINE
  5
A9B
330
A02
100
AcDbEntity
  8
Fusion
100
AcDbSpline
210
0
220
0
230
1
 70
8
 71
3
 72
11
 73
7
 74
0
 40
0
 40
0
 40
0
 40
0
 40
0.433994
 40
0.433994
 40
0.433994
 40
1
 40
1
 40
1
 40
1
 10
95.7399
 20
10.4535
 30
6.3
 10
95.7276
 20
9.93077
 30
6.3
 10
95.7834
 20
9.40506
 30
6.3
 10
95.948
 20
8.91328
 30
6.3
 10
96.1577
 20
8.27025
 30
6.3
 10
96.5755
 20
7.70507
 30
6.3
 10
97.1257
 20
7.3115
 30
6.3
  0
LINE
  5
A9C
330
A02
100
AcDbEntity
  8
Fusion
100
AcDbLine
 10
95.7399
 20
10.4535
 30
6.3
 11
95.7399
 21
10.4535
 31
9.5
  0
SPLINE
  5
A9D
330
A02
100
AcDbEntity
  8
Fusion
100
AcDbSpline
210
0
220
0
230
1
 70
8
 71
2
 72
6
 73
3
 74
0
 40
0
 40
0
 40
0
 40
1
 40
1
 40
1
 10
97.1257
 20
7.3115
 30
9.5
 10
95.6909
 20
8.35474
 30
9.5
 10
95.7399
 20
10.4535
 30
9.5
  0
LINE
  5
A9E
330
A02
100
AcDbEntity
  8
Fusion
100
AcDbLine
 10
97.1257
 20
7.3115
 30
6.3
 11
97.1257
 21
7.3115
 31
9.5
  0
SPLINE
  5
A9F
330
A02
100
AcDbEntity
  8
Fusion
100
AcDbSpline
210
0
220
0
230
1
 70
8
 71
3
 72
11
 73
7
 74
0
 40
0
 40
0
 40
0
 40
0
 40
0.515864
 40
0.515864
 40
0.515864
 40
1
 40
1
 40
1
 40
1
 10
97.1257
 20
7.3115
 30
6.3
 10
97.6743
 20
6.91111
 30
6.3
 10
98.3115
 20
6.63963
 30
6.3
 10
98.9749
 20
6.47886
 30
6.3
 10
99.5984
 20
6.32709
 30
6.3
 10
100.245
 20
6.2676
 30
6.3
 10
100.891
 20
6.26744
 30
6.3
  0
LINE
  5
AA0
330
A02
100
AcDbEntity
  8
Fusion
100
AcDbLine
 10
97.1257
 20
7.3115
 30
6.3
 11
97.1257
 21
7.3115
 31
9.5
  0
SPLINE
  5
AA1
330
A02
100
AcDbEntity
  8
Fusion
100
AcDbSpline
210
0
220
0
230
1
 70
8
 71
2
 72
6
 73
3
 74
0
 40
0
 40
0
 40
0
 40
1
 40
1
 40
1
 10
100.891
 20
6.26744
 30
9.5
 10
98.5606
 20
6.26744
 30
9.5
 10
97.1257
 20
7.3115
 30
9.5
  0
LINE
  5
AA2
330
A02
100
AcDbEntity
  8
Fusion
100
AcDbLine
 10
100.891
 20
6.26744
 30
6.3
 11
100.891
 21
6.26744
 31
9.5
  0
SPLINE
  5
AA3
330
A02
100
AcDbEntity
  8
Fusion
100
AcDbSpline
210
0
220
0
230
1
 70
8
 71
3
 72
8
 73
4
 74
0
 40
0
 40
0
 40
0
 40
0
 40
1
 40
1
 40
1
 40
1
 10
100.891
 20
6.26744
 30
6.3
 10
102.038
 20
6.26682
 30
6.3
 10
103.2
 20
6.45683
 30
6.3
 10
104.195
 20
7.00164
 30
6.3
  0
LINE
  5
AA4
330
A02
100
AcDbEntity
  8
Fusion
100
AcDbLine
 10
100.891
 20
6.26744
 30
6.3
 11
100.891
 21
6.26744
 31
9.5
  0
SPLINE
  5
AA5
330
A02
100
AcDbEntity
  8
Fusion
100
AcDbSpline
210
0
220
0
230
1
 70
8
 71
2
 72
6
 73
3
 74
0
 40
0
 40
0
 40
0
 40
1
 40
1
 40
1
 10
104.195
 20
7.00164
 30
9.5
 10
102.853
 20
6.26744
 30
9.5
 10
100.891
 20
6.26744
 30
9.5
  0
LINE
  5
AA6
330
A02
100
AcDbEntity
  8
Fusion
100
AcDbLine
 10
104.195
 20
7.00164
 30
6.3
 11
104.195
 21
7.00164
 31
9.5
  0
SPLINE
  5
AA7
330
A02
100
AcDbEntity
  8
Fusion
100
AcDbSpline
210
0
220
0
230
1
 70
8
 71
3
 72
11
 73
7
 74
0
 40
0
 40
0
 40
0
 40
0
 40
0.370788
 40
0.370788
 40
0.370788
 40
1
 40
1
 40
1
 40
1
 10
104.195
 20
7.00164
 30
6.3
 10
104.508
 20
7.17119
 30
6.3
 10
104.799
 20
7.37023
 30
6.3
 10
105.069
 20
7.59875
 30
6.3
 10
105.524
 20
7.98599
 30
6.3
 10
105.897
 20
8.46457
 30
6.3
 10
106.158
 20
9.00145
 30
6.3
  0
LINE
  5
AA8
330
A02
100
AcDbEntity
  8
Fusion
100
AcDbLine
 10
104.195
 20
7.00164
 30
6.3
 11
104.195
 21
7.00164
 31
9.5
  0
SPLINE
  5
AA9
330
A02
100
AcDbEntity
  8
Fusion
100
AcDbSpline
210
0
220
0
230
1
 70
8
 71
2
 72
6
 73
3
 74
0
 40
0
 40
0
 40
0
 40
1
 40
1
 40
1
 10
106.158
 20
9.00145
 30
9.5
 10
105.539
 20
7.73501
 30
9.5
 10
104.195
 20
7.00164
 30
9.5
  0
LINE
  5
AAA
330
A02
100
AcDbEntity
  8
Fusion
100
AcDbLine
 10
106.158
 20
9.00145
 30
6.3
 11
106.158
 21
9.00145
 31
9.5
  0
SPLINE
  5
AAB
330
A02
100
AcDbEntity
  8
Fusion
100
AcDbSpline
210
0
220
0
230
1
 70
8
 71
3
 72
11
 73
7
 74
0
 40
0
 40
0
 40
0
 40
0
 40
0.369014
 40
0.369014
 40
0.369014
 40
1
 40
1
 40
1
 40
1
 10
106.158
 20
9.00145
 30
6.3
 10
106.385
 20
9.47185
 30
6.3
 10
106.507
 20
9.99854
 30
6.3
 10
106.595
 20
10.5274
 30
6.3
 10
106.739
 20
11.4362
 30
6.3
 10
106.776
 20
12.3688
 30
6.3
 10
106.777
 20
13.3003
 30
6.3
  0
LINE
  5
AAC
330
A02
100
AcDbEntity
  8
Fusion
100
AcDbLine
 10
106.158
 20
9.00145
 30
6.3
 11
106.158
 21
9.00145
 31
9.5
  0
SPLINE
  5
AAD
330
A02
100
AcDbEntity
  8
Fusion
100
AcDbSpline
210
0
220
0
230
1
 70
8
 71
2
 72
6
 73
3
 74
0
 40
0
 40
0
 40
0
 40
1
 40
1
 40
1
 10
106.777
 20
13.3003
 30
9.5
 10
106.777
 20
10.2671
 30
9.5
 10
106.158
 20
9.00145
 30
9.5
  0
LINE
  5
AAE
330
A02
100
AcDbEntity
  8
Fusion
100
AcDbLine
 10
106.777
 20
13.3003
 30
6.3
 11
106.777
 21
13.3003
 31
9.5
  0
LINE
  5
AAF
330
A02
100
AcDbEntity
  8
Fusion
100
AcDbLine
 10
106.777
 20
13.3003
 30
6.3
 11
106.777
 21
24.5291
 31
6.3
  0
LINE
  5
AB0
330
A02
100
AcDbEntity
  8
Fusion
100
AcDbLine
 10
106.777
 20
13.3003
 30
6.3
 11
106.777
 21
13.3003
 31
9.5
  0
LINE
  5
AB1
330
A02
100
AcDbEntity
  8
Fusion
100
AcDbLine
 10
106.777
 20
24.5291
 30
9.5
 11
106.777
 21
13.3003
 31
9.5
  0
LINE
  5
AB2
330
A02
100
AcDbEntity
  8
Fusion
100
AcDbLine
 10
106.777
 20
24.5291
 30
6.3
 11
106.777
 21
24.5291
 31
9.5
  0
LINE
  5
AB3
330
A02
100
AcDbEntity
  8
Fusion
100
AcDbLine
 10
106.777
 20
24.5291
 30
6.3
 11
104.742
 21
24.5291
 31
6.3
  0
LINE
  5
AB4
330
A02
100
AcDbEntity
  8
Fusion
100
AcDbLine
 10
106.777
 20
24.5291
 30
6.3
 11
106.777
 21
24.5291
 31
9.5
  0
LINE
  5
AB5
330
A02
100
AcDbEntity
  8
Fusion
100
AcDbLine
 10
104.742
 20
24.5291
 30
9.5
 11
106.777
 21
24.5291
 31
9.5
  0
LINE
  5
AB6
330
A02
100
AcDbEntity
  8
Fusion
100
AcDbLine
 10
104.742
 20
24.5291
 30
6.3
 11
104.742
 21
24.5291
 31
9.5
  0
LINE
  5
AB7
330
A02
100
AcDbEntity
  8
Fusion
100
AcDbLine
 10
104.742
 20
24.5291
 30
6.3
 11
104.742
 21
22.9094
 31
6.3
  0
LINE
  5
AB8
330
A02
100
AcDbEntity
  8
Fusion
100
AcDbLine
 10
104.742
 20
24.5291
 30
6.3
 11
104.742
 21
24.5291
 31
9.5
  0
LINE
  5
AB9
330
A02
100
AcDbEntity
  8
Fusion
100
AcDbLine
 10
104.742
 20
22.9094
 30
9.5
 11
104.742
 21
24.5291
 31
9.5
  0
LINE
  5
ABA
330
A02
100
AcDbEntity
  8
Fusion
100
AcDbLine
 10
104.742
 20
22.9094
 30
6.3
 11
104.742
 21
22.9094
 31
9.5
  0
SPLINE
  5
ABB
330
A02
100
AcDbEntity
  8
Fusion
100
AcDbSpline
210
0
220
0
230
1
 70
8
 71
3
 72
11
 73
7
 74
0
 40
0
 40
0
 40
0
 40
0
 40
0.558645
 40
0.558645
 40
0.558645
 40
1
 40
1
 40
1
 40
1
 10
104.742
 20
22.9094
 30
6.3
 10
104.232
 20
23.5536
 30
6.3
 10
103.586
 20
24.0963
 30
6.3
 10
102.831
 20
24.4182
 30
6.3
 10
102.238
 20
24.6751
 30
6.3
 10
101.588
 20
24.7919
 30
6.3
 10
100.94
 20
24.7907
 30
6.3
  0
LINE
  5
ABC
330
A02
100
AcDbEntity
  8
Fusion
100
AcDbLine
 10
104.742
 20
22.9094
 30
6.3
 11
104.742
 21
22.9094
 31
9.5
  0
SPLINE
  5
ABD
330
A02
100
AcDbEntity
  8
Fusion
100
AcDbSpline
210
0
220
0
230
1
 70
8
 71
2
 72
6
 73
3
 74
0
 40
0
 40
0
 40
0
 40
1
 40
1
 40
1
 10
100.94
 20
24.7907
 30
9.5
 10
103.245
 20
24.7907
 30
9.5
 10
104.742
 20
22.9094
 30
9.5
  0
LINE
  5
ABE
330
A02
100
AcDbEntity
  8
Fusion
100
AcDbLine
 10
100.94
 20
24.7907
 30
6.3
 11
100.94
 21
24.7907
 31
9.5
  0
SPLINE
  5
ABF
330
A02
100
AcDbEntity
  8
Fusion
100
AcDbSpline
210
0
220
0
230
1
 70
8
 71
3
 72
11
 73
7
 74
0
 40
0
 40
0
 40
0
 40
0
 40
0.42843
 40
0.42843
 40
0.42843
 40
1
 40
1
 40
1
 40
1
 10
100.94
 20
24.7907
 30
6.3
 10
100.481
 20
24.7926
 30
6.3
 10
100.029
 20
24.7437
 30
6.3
 10
99.5846
 20
24.6438
 30
6.3
 10
98.9945
 20
24.5092
 30
6.3
 10
98.4303
 20
24.2703
 30
6.3
 10
97.9286
 20
23.9339
 30
6.3
  0
LINE
  5
AC0
330
A02
100
AcDbEntity
  8
Fusion
100
AcDbLine
 10
100.94
 20
24.7907
 30
6.3
 11
100.94
 21
24.7907
 31
9.5
  0
SPLINE
  5
AC1
330
A02
100
AcDbEntity
  8
Fusion
100
AcDbSpline
210
0
220
0
230
1
 70
8
 71
2
 72
6
 73
3
 74
0
 40
0
 40
0
 40
0
 40
1
 40
1
 40
1
 10
97.9286
 20
23.9339
 30
9.5
 10
99.2106
 20
24.7907
 30
9.5
 10
100.94
 20
24.7907
 30
9.5
  0
LINE
  5
AC2
330
A02
100
AcDbEntity
  8
Fusion
100
AcDbLine
 10
97.9286
 20
23.9339
 30
6.3
 11
97.9286
 21
23.9339
 31
9.5
  0
SPLINE
  5
AC3
330
A02
100
AcDbEntity
  8
Fusion
100
AcDbSpline
210
0
220
0
230
1
 70
8
 71
3
 72
11
 73
7
 74
0
 40
0
 40
0
 40
0
 40
0
 40
0.579777
 40
0.579777
 40
0.579777
 40
1
 40
1
 40
1
 40
1
 10
97.9286
 20
23.9339
 30
6.3
 10
97.4209
 20
23.5954
 30
6.3
 10
96.9786
 20
23.1627
 30
6.3
 10
96.6225
 20
22.6658
 30
6.3
 10
96.3644
 20
22.3036
 30
6.3
 10
96.1479
 20
21.9164
 30
6.3
 10
95.9729
 20
21.504
 30
6.3
  0
LINE
  5
AC4
330
A02
100
AcDbEntity
  8
Fusion
100
AcDbLine
 10
97.9286
 20
23.9339
 30
6.3
 11
97.9286
 21
23.9339
 31
9.5
  0
SPLINE
  5
AC5
330
A02
100
AcDbEntity
  8
Fusion
100
AcDbSpline
210
0
220
0
230
1
 70
8
 71
2
 72
6
 73
3
 74
0
 40
0
 40
0
 40
0
 40
1
 40
1
 40
1
 10
95.9729
 20
21.504
 30
9.5
 10
96.6474
 20
23.077
 30
9.5
 10
97.9286
 20
23.9339
 30
9.5
  0
LINE
  5
AC6
330
A02
100
AcDbEntity
  8
Fusion
100
AcDbLine
 10
95.9729
 20
21.504
 30
6.3
 11
95.9729
 21
21.504
 31
9.5
  0
SPLINE
  5
AC7
330
A02
100
AcDbEntity
  8
Fusion
100
AcDbSpline
210
0
220
0
230
1
 70
8
 71
3
 72
8
 73
4
 74
0
 40
0
 40
0
 40
0
 40
0
 40
1
 40
1
 40
1
 40
1
 10
95.9729
 20
21.504
 30
6.3
 10
95.5084
 20
20.427
 30
6.3
 10
95.2963
 20
19.2496
 30
6.3
 10
95.2984
 20
18.0718
 30
6.3
  0
LINE
  5
AC8
330
A02
100
AcDbEntity
  8
Fusion
100
AcDbLine
 10
95.9729
 20
21.504
 30
6.3
 11
95.9729
 21
21.504
 31
9.5
  0
SPLINE
  5
AC9
330
A02
100
AcDbEntity
  8
Fusion
100
AcDbSpline
210
0
220
0
230
1
 70
8
 71
2
 72
6
 73
3
 74
0
 40
0
 40
0
 40
0
 40
1
 40
1
 40
1
 10
95.2984
 20
18.0718
 30
9.5
 10
95.2984
 20
19.9318
 30
9.5
 10
95.9729
 20
21.504
 30
9.5
  0
LINE
  5
ACA
330
A02
100
AcDbEntity
  8
Fusion
100
AcDbLine
 10
95.2984
 20
18.0718
 30
6.3
 11
95.2984
 21
18.0718
 31
9.5
  0
SPLINE
  5
ACB
330
A02
100
AcDbEntity
  8
Fusion
100
AcDbSpline
210
0
220
0
230
1
 70
8
 71
3
 72
11
 73
7
 74
0
 40
0
 40
0
 40
0
 40
0
 40
0.522513
 40
0.522513
 40
0.522513
 40
1
 40
1
 40
1
 40
1
 10
95.2984
 20
18.0718
 30
6.3
 10
95.2979
 20
17.2064
 30
6.3
 10
95.4131
 20
16.3394
 30
6.3
 10
95.6797
 20
15.5183
 30
6.3
 10
95.9217
 20
14.7679
 30
6.3
 10
96.2918
 20
14.0603
 30
6.3
 10
96.7701
 20
13.4336
 30
6.3
  0
LINE
  5
ACC
330
A02
100
AcDbEntity
  8
Fusion
100
AcDbLine
 10
95.2984
 20
18.0718
 30
6.3
 11
95.2984
 21
18.0718
 31
9.5
  0
SPLINE
  5
ACD
330
A02
100
AcDbEntity
  8
Fusion
100
AcDbSpline
210
0
220
0
230
1
 70
8
 71
2
 72
6
 73
3
 74
0
 40
0
 40
0
 40
0
 40
1
 40
1
 40
1
 10
96.7701
 20
13.4336
 30
9.5
 10
95.2984
 20
15.3672
 30
9.5
 10
95.2984
 20
18.0718
 30
9.5
  0
LINE
  5
ACE
330
A02
100
AcDbEntity
  8
Fusion
100
AcDbLine
 10
96.7701
 20
13.4336
 30
6.3
 11
96.7701
 21
13.4336
 31
9.5
  0
SPLINE
  5
ACF
330
A02
100
AcDbEntity
  8
Fusion
100
AcDbSpline
210
0
220
0
230
1
 70
8
 71
3
 72
14
 73
10
 74
0
 40
0
 40
0
 40
0
 40
0
 40
0.365601
 40
0.365601
 40
0.365601
 40
0.62484
 40
0.62484
 40
0.62484
 40
1
 40
1
 40
1
 40
1
 10
96.7701
 20
13.4336
 30
6.3
 10
97.1213
 20
12.9708
 30
6.3
 10
97.5491
 20
12.5657
 30
6.3
 10
98.0407
 20
12.2577
 30
6.3
 10
98.3911
 20
12.0386
 30
6.3
 10
98.7642
 20
11.8687
 30
6.3
 10
99.1601
 20
11.7478
 30
6.3
 10
99.7299
 20
11.5724
 30
6.3
 10
100.329
 20
11.4998
 30
6.3
 10
100.928
 20
11.5
 30
6.3
  0
LINE
  5
AD0
330
A02
100
AcDbEntity
  8
Fusion
100
AcDbLine
 10
96.7701
 20
13.4336
 30
6.3
 11
96.7701
 21
13.4336
 31
9.5
  0
SPLINE
  5
AD1
330
A02
100
AcDbEntity
  8
Fusion
100
AcDbSpline
210
0
220
0
230
1
 70
8
 71
2
 72
6
 73
3
 74
0
 40
0
 40
0
 40
0
 40
1
 40
1
 40
1
 10
100.928
 20
11.5
 30
9.5
 10
98.2417
 20
11.5
 30
9.5
 10
96.7701
 20
13.4336
 30
9.5
  0
LINE
  5
AD2
330
A02
100
AcDbEntity
  8
Fusion
100
AcDbLine
 10
100.928
 20
11.5
 30
6.3
 11
100.928
 21
11.5
 31
9.5
  0
SPLINE
  5
AD3
330
A02
100
AcDbEntity
  8
Fusion
100
AcDbSpline
210
0
220
0
230
1
 70
8
 71
3
 72
11
 73
7
 74
0
 40
0
 40
0
 40
0
 40
0
 40
0.439464
 40
0.439464
 40
0.439464
 40
1
 40
1
 40
1
 40
1
 10
100.928
 20
11.5
 30
6.3
 10
101.534
 20
11.499
 30
6.3
 10
102.141
 20
11.6054
 30
6.3
 10
102.7
 20
11.8377
 30
6.3
 10
103.415
 20
12.1311
 30
6.3
 10
104.036
 20
12.6268
 30
6.3
 10
104.533
 20
13.221
 30
6.3
  0
LINE
  5
AD4
330
A02
100
AcDbEntity
  8
Fusion
100
AcDbLine
 10
100.928
 20
11.5
 30
6.3
 11
100.928
 21
11.5
 31
9.5
  0
SPLINE
  5
AD5
330
A02
100
AcDbEntity
  8
Fusion
100
AcDbSpline
210
0
220
0
230
1
 70
8
 71
2
 72
6
 73
3
 74
0
 40
0
 40
0
 40
0
 40
1
 40
1
 40
1
 10
104.533
 20
13.221
 30
9.5
 10
103.086
 20
11.5
 30
9.5
 10
100.928
 20
11.5
 30
9.5
  0
LINE
  5
AD6
330
A02
100
AcDbEntity
  8
Fusion
100
AcDbLine
 10
104.533
 20
13.221
 30
6.3
 11
104.533
 21
13.221
 31
9.5
  0
SPLINE
  5
AD7
330
A02
100
AcDbEntity
  8
Fusion
100
AcDbSpline
210
0
220
0
230
1
 70
8
 71
3
 72
11
 73
7
 74
0
 40
0
 40
0
 40
0
 40
0
 40
0.592932
 40
0.592932
 40
0.592932
 40
1
 40
1
 40
1
 40
1
 10
104.533
 20
13.221
 30
6.3
 10
104.536
 20
12.644
 30
6.3
 10
104.531
 20
12.0689
 30
6.3
 10
104.502
 20
11.509
 30
6.3
 10
104.48
 20
11.1281
 30
6.3
 10
104.453
 20
10.7424
 30
6.3
 10
104.374
 20
10.4175
 30
6.3
  0
LINE
  5
AD8
330
A02
100
AcDbEntity
  8
Fusion
100
AcDbLine
 10
104.533
 20
13.221
 30
6.3
 11
104.533
 21
13.221
 31
9.5
  0
SPLINE
  5
AD9
330
A02
100
AcDbEntity
  8
Fusion
100
AcDbSpline
210
0
220
0
230
1
 70
8
 71
2
 72
6
 73
3
 74
0
 40
0
 40
0
 40
0
 40
1
 40
1
 40
1
 10
104.374
 20
10.4175
 30
9.5
 10
104.545
 20
11.0855
 30
9.5
 10
104.533
 20
13.221
 30
9.5
  0
LINE
  5
ADA
330
A02
100
AcDbEntity
  8
Fusion
100
AcDbLine
 10
104.374
 20
10.4175
 30
6.3
 11
104.374
 21
10.4175
 31
9.5
  0
SPLINE
  5
ADB
330
A02
100
AcDbEntity
  8
Fusion
100
AcDbSpline
210
0
220
0
230
1
 70
8
 71
3
 72
11
 73
7
 74
0
 40
0
 40
0
 40
0
 40
0
 40
0.481499
 40
0.481499
 40
0.481499
 40
1
 40
1
 40
1
 40
1
 10
104.374
 20
10.4175
 30
6.3
 10
104.287
 20
10.0874
 30
6.3
 10
104.154
 20
9.78034
 30
6.3
 10
103.977
 20
9.49631
 30
6.3
 10
103.785
 20
9.1933
 30
6.3
 10
103.536
 20
8.92939
 30
6.3
 10
103.245
 20
8.71857
 30
6.3
  0
LINE
  5
ADC
330
A02
100
AcDbEntity
  8
Fusion
100
AcDbLine
 10
104.374
 20
10.4175
 30
6.3
 11
104.374
 21
10.4175
 31
9.5
  0
SPLINE
  5
ADD
330
A02
100
AcDbEntity
  8
Fusion
100
AcDbSpline
210
0
220
0
230
1
 70
8
 71
2
 72
6
 73
3
 74
0
 40
0
 40
0
 40
0
 40
1
 40
1
 40
1
 10
103.245
 20
8.71857
 30
9.5
 10
104.079
 20
9.32522
 30
9.5
 10
104.374
 20
10.4175
 30
9.5
  0
LINE
  5
ADE
330
A02
100
AcDbEntity
  8
Fusion
100
AcDbLine
 10
103.245
 20
8.71857
 30
6.3
 11
103.245
 21
8.71857
 31
9.5
  0
SPLINE
  5
ADF
330
A02
100
AcDbEntity
  8
Fusion
100
AcDbSpline
210
0
220
0
230
1
 70
8
 71
3
 72
11
 73
7
 74
0
 40
0
 40
0
 40
0
 40
0
 40
0.422224
 40
0.422224
 40
0.422224
 40
1
 40
1
 40
1
 40
1
 10
103.245
 20
8.71857
 30
6.3
 10
102.971
 20
8.51855
 30
6.3
 10
102.651
 20
8.37833
 30
6.3
 10
102.316
 20
8.28491
 30
6.3
 10
101.857
 20
8.15705
 30
6.3
 10
101.368
 20
8.11232
 30
6.3
 10
100.878
 20
8.11192
 30
6.3
  0
LINE
  5
AE0
330
A02
100
AcDbEntity
  8
Fusion
100
AcDbLine
 10
103.245
 20
8.71857
 30
6.3
 11
103.245
 21
8.71857
 31
9.5
  0
SPLINE
  5
AE1
330
A02
100
AcDbEntity
  8
Fusion
100
AcDbSpline
210
0
220
0
230
1
 70
8
 71
2
 72
6
 73
3
 74
0
 40
0
 40
0
 40
0
 40
1
 40
1
 40
1
 10
100.878
 20
8.11192
 30
9.5
 10
102.411
 20
8.11192
 30
9.5
 10
103.245
 20
8.71857
 30
9.5
  0
LINE
  5
AE2
330
A02
100
AcDbEntity
  8
Fusion
100
AcDbLine
 10
100.878
 20
8.11192
 30
6.3
 11
100.878
 21
8.11192
 31
9.5
  0
SPLINE
  5
AE3
330
A02
100
AcDbEntity
  8
Fusion
100
AcDbSpline
210
0
220
0
230
1
 70
8
 71
3
 72
11
 73
7
 74
0
 40
0
 40
0
 40
0
 40
0
 40
0.523244
 40
0.523244
 40
0.523244
 40
1
 40
1
 40
1
 40
1
 10
100.878
 20
8.11192
 30
6.3
 10
100.456
 20
8.11208
 30
6.3
 10
100.037
 20
8.15119
 30
6.3
 10
99.6376
 20
8.25443
 30
6.3
 10
99.2747
 20
8.3482
 30
6.3
 10
98.9296
 20
8.49788
 30
6.3
 10
98.6342
 20
8.7153
 30
6.3
  0
LINE
  5
AE4
330
A02
100
AcDbEntity
  8
Fusion
100
AcDbLine
 10
100.878
 20
8.11192
 30
6.3
 11
100.878
 21
8.11192
 31
9.5
  0
SPLINE
  5
AE5
330
A02
100
AcDbEntity
  8
Fusion
100
AcDbSpline
210
0
220
0
230
1
 70
8
 71
2
 72
6
 73
3
 74
0
 40
0
 40
0
 40
0
 40
1
 40
1
 40
1
 10
98.6342
 20
8.7153
 30
9.5
 10
99.4559
 20
8.11192
 30
9.5
 10
100.878
 20
8.11192
 30
9.5
  0
LINE
  5
AE6
330
A02
100
AcDbEntity
  8
Fusion
100
AcDbLine
 10
98.6342
 20
8.7153
 30
6.3
 11
98.6342
 21
8.7153
 31
9.5
  0
SPLINE
  5
AE7
330
A02
100
AcDbEntity
  8
Fusion
100
AcDbSpline
210
0
220
0
230
1
 70
8
 71
3
 72
11
 73
7
 74
0
 40
0
 40
0
 40
0
 40
0
 40
0.629297
 40
0.629297
 40
0.629297
 40
1
 40
1
 40
1
 40
1
 10
98.6342
 20
8.7153
 30
6.3
 10
98.3586
 20
8.91392
 30
6.3
 10
98.1573
 20
9.20204
 30
6.3
 10
98.0355
 20
9.52967
 30
6.3
 10
97.9639
 20
9.72382
 30
6.3
 10
97.9141
 20
9.9271
 30
6.3
 10
97.8861
 20
10.1395
 30
6.3
  0
LINE
  5
AE8
330
A02
100
AcDbEntity
  8
Fusion
100
AcDbLine
 10
98.6342
 20
8.7153
 30
6.3
 11
98.6342
 21
8.7153
 31
9.5
  0
SPLINE
  5
AE9
330
A02
100
AcDbEntity
  8
Fusion
100
AcDbSpline
210
0
220
0
230
1
 70
8
 71
2
 72
6
 73
3
 74
0
 40
0
 40
0
 40
0
 40
1
 40
1
 40
1
 10
97.8861
 20
10.1395
 30
9.5
 10
98.021
 20
9.1617
 30
9.5
 10
98.6342
 20
8.7153
 30
9.5
  0
LINE
  5
AEA
330
A02
100
AcDbEntity
  8
Fusion
100
AcDbLine
 10
97.8861
 20
10.1395
 30
6.3
 11
97.8861
 21
10.1395
 31
9.5
  0
LINE
  5
AEB
330
A02
100
AcDbEntity
  8
Fusion
100
AcDbLine
 10
41
 20
29.5
 30
6.3
 11
41
 21
11.5
 31
6.3
  0
LINE
  5
AEC
330
A02
100
AcDbEntity
  8
Fusion
100
AcDbLine
 10
41
 20
29.5
 30
6.3
 11
41
 21
29.5
 31
9.5
  0
LINE
  5
AED
330
A02
100
AcDbEntity
  8
Fusion
100
AcDbLine
 10
41
 20
11.5
 30
9.5
 11
41
 21
29.5
 31
9.5
  0
LINE
  5
AEE
330
A02
100
AcDbEntity
  8
Fusion
100
AcDbLine
 10
41
 20
11.5
 30
6.3
 11
41
 21
11.5
 31
9.5
  0
LINE
  5
AEF
330
A02
100
AcDbEntity
  8
Fusion
100
AcDbLine
 10
41
 20
11.5
 30
6.3
 11
43.3792
 21
11.5
 31
6.3
  0
LINE
  5
AF0
330
A02
100
AcDbEntity
  8
Fusion
100
AcDbLine
 10
41
 20
11.5
 30
6.3
 11
41
 21
11.5
 31
9.5
  0
LINE
  5
AF1
330
A02
100
AcDbEntity
  8
Fusion
100
AcDbLine
 10
43.3792
 20
11.5
 30
9.5
 11
41
 21
11.5
 31
9.5
  0
LINE
  5
AF2
330
A02
100
AcDbEntity
  8
Fusion
100
AcDbLine
 10
43.3792
 20
11.5
 30
6.3
 11
43.3792
 21
11.5
 31
9.5
  0
LINE
  5
AF3
330
A02
100
AcDbEntity
  8
Fusion
100
AcDbLine
 10
43.3792
 20
11.5
 30
6.3
 11
43.3792
 21
29.5
 31
6.3
  0
LINE
  5
AF4
330
A02
100
AcDbEntity
  8
Fusion
100
AcDbLine
 10
43.3792
 20
11.5
 30
6.3
 11
43.3792
 21
11.5
 31
9.5
  0
LINE
  5
AF5
330
A02
100
AcDbEntity
  8
Fusion
100
AcDbLine
 10
43.3792
 20
29.5
 30
9.5
 11
43.3792
 21
11.5
 31
9.5
  0
LINE
  5
AF6
330
A02
100
AcDbEntity
  8
Fusion
100
AcDbLine
 10
43.3792
 20
29.5
 30
6.3
 11
43.3792
 21
29.5
 31
9.5
  0
LINE
  5
AF7
330
A02
100
AcDbEntity
  8
Fusion
100
AcDbLine
 10
43.3792
 20
29.5
 30
6.3
 11
41
 21
29.5
 31
6.3
  0
LINE
  5
AF8
330
A02
100
AcDbEntity
  8
Fusion
100
AcDbLine
 10
43.3792
 20
29.5
 30
6.3
 11
43.3792
 21
29.5
 31
9.5
  0
LINE
  5
AF9
330
A02
100
AcDbEntity
  8
Fusion
100
AcDbLine
 10
41
 20
29.5
 30
9.5
 11
43.3792
 21
29.5
 31
9.5
  0
LINE
  5
AFA
330
A02
100
AcDbEntity
  8
Fusion
100
AcDbLine
 10
41
 20
29.5
 30
6.3
 11
41
 21
29.5
 31
9.5
  0
LINE
  5
AFB
330
A02
100
AcDbEntity
  8
Fusion
100
AcDbLine
 10
52.4111
 20
11.5
 30
6.3
 11
52.0922
 21
13.4491
 31
6.3
  0
LINE
  5
AFC
330
A02
100
AcDbEntity
  8
Fusion
100
AcDbLine
 10
52.4111
 20
11.5
 30
6.3
 11
52.4111
 21
11.5
 31
9.5
  0
LINE
  5
AFD
330
A02
100
AcDbEntity
  8
Fusion
100
AcDbLine
 10
52.0922
 20
13.4491
 30
9.5
 11
52.4111
 21
11.5
 31
9.5
  0
LINE
  5
AFE
330
A02
100
AcDbEntity
  8
Fusion
100
AcDbLine
 10
52.0922
 20
13.4491
 30
6.3
 11
52.0922
 21
13.4491
 31
9.5
  0
SPLINE
  5
AFF
330
A02
100
AcDbEntity
  8
Fusion
100
AcDbSpline
210
0
220
0
230
1
 70
8
 71
3
 72
8
 73
4
 74
0
 40
0
 40
0
 40
0
 40
0
 40
1
 40
1
 40
1
 40
1
 10
52.0922
 20
13.4491
 30
6.3
 10
51.7364
 20
13.4028
 30
6.3
 10
51.4005
 20
13.3709
 30
6.3
 10
51.1234
 20
13.3706
 30
6.3
  0
LINE
  5
B00
330
A02
100
AcDbEntity
  8
Fusion
100
AcDbLine
 10
52.0922
 20
13.4491
 30
6.3
 11
52.0922
 21
13.4491
 31
9.5
  0
SPLINE
  5
B01
330
A02
100
AcDbEntity
  8
Fusion
100
AcDbSpline
210
0
220
0
230
1
 70
8
 71
2
 72
6
 73
3
 74
0
 40
0
 40
0
 40
0
 40
1
 40
1
 40
1
 10
51.1234
 20
13.3706
 30
9.5
 10
51.4913
 20
13.3706
 30
9.5
 10
52.0922
 20
13.4491
 30
9.5
  0
LINE
  5
B02
330
A02
100
AcDbEntity
  8
Fusion
100
AcDbLine
 10
51.1234
 20
13.3706
 30
6.3
 11
51.1234
 21
13.3706
 31
9.5
  0
SPLINE
  5
B03
330
A02
100
AcDbEntity
  8
Fusion
100
AcDbSpline
210
0
220
0
230
1
 70
8
 71
3
 72
8
 73
4
 74
0
 40
0
 40
0
 40
0
 40
0
 40
1
 40
1
 40
1
 40
1
 10
51.1234
 20
13.3706
 30
6.3
 10
50.8271
 20
13.3705
 30
6.3
 10
50.5595
 20
13.4147
 30
6.3
 10
50.3687
 20
13.5301
 30
6.3
  0
LINE
  5
B04
330
A02
100
AcDbEntity
  8
Fusion
100
AcDbLine
 10
51.1234
 20
13.3706
 30
6.3
 11
51.1234
 21
13.3706
 31
9.5
  0
SPLINE
  5
B05
330
A02
100
AcDbEntity
  8
Fusion
100
AcDbSpline
210
0
220
0
230
1
 70
8
 71
2
 72
6
 73
3
 74
0
 40
0
 40
0
 40
0
 40
1
 40
1
 40
1
 10
50.3687
 20
13.5301
 30
9.5
 10
50.6328
 20
13.3706
 30
9.5
 10
51.1234
 20
13.3706
 30
9.5
  0
LINE
  5
B06
330
A02
100
AcDbEntity
  8
Fusion
100
AcDbLine
 10
50.3687
 20
13.5301
 30
6.3
 11
50.3687
 21
13.5301
 31
9.5
  0
SPLINE
  5
B07
330
A02
100
AcDbEntity
  8
Fusion
100
AcDbSpline
210
0
220
0
230
1
 70
8
 71
2
 72
6
 73
3
 74
0
 40
0
 40
0
 40
0
 40
1
 40
1
 40
1
 10
50.3687
 20
13.5301
 30
6.3
 10
50.1067
 20
13.6891
 30
6.3
 10
49.9886
 20
13.9609
 30
6.3
  0
LINE
  5
B08
330
A02
100
AcDbEntity
  8
Fusion
100
AcDbLine
 10
50.3687
 20
13.5301
 30
6.3
 11
50.3687
 21
13.5301
 31
9.5
  0
SPLINE
  5
B09
330
A02
100
AcDbEntity
  8
Fusion
100
AcDbSpline
210
0
220
0
230
1
 70
8
 71
2
 72
6
 73
3
 74
0
 40
0
 40
0
 40
0
 40
1
 40
1
 40
1
 10
49.9886
 20
13.9609
 30
9.5
 10
50.1055
 20
13.6903
 30
9.5
 10
50.3687
 20
13.5301
 30
9.5
  0
LINE
  5
B0A
330
A02
100
AcDbEntity
  8
Fusion
100
AcDbLine
 10
49.9886
 20
13.9609
 30
6.3
 11
49.9886
 21
13.9609
 31
9.5
  0
SPLINE
  5
B0B
330
A02
100
AcDbEntity
  8
Fusion
100
AcDbSpline
210
0
220
0
230
1
 70
8
 71
3
 72
11
 73
7
 74
0
 40
0
 40
0
 40
0
 40
0
 40
0.242108
 40
0.242108
 40
0.242108
 40
1
 40
1
 40
1
 40
1
 10
49.9886
 20
13.9609
 30
6.3
 10
49.963
 20
14.0232
 30
6.3
 10
49.943
 20
14.0995
 30
6.3
 10
49.9284
 20
14.1899
 30
6.3
 10
49.8825
 20
14.4712
 30
6.3
 10
49.8732
 20
14.8222
 30
6.3
 10
49.8725
 20
15.1783
 30
6.3
  0
LINE
  5
B0C
330
A02
100
AcDbEntity
  8
Fusion
100
AcDbLine
 10
49.9886
 20
13.9609
 30
6.3
 11
49.9886
 21
13.9609
 31
9.5
  0
SPLINE
  5
B0D
330
A02
100
AcDbEntity
  8
Fusion
100
AcDbSpline
210
0
220
0
230
1
 70
8
 71
2
 72
6
 73
3
 74
0
 40
0
 40
0
 40
0
 40
1
 40
1
 40
1
 10
49.8725
 20
15.1783
 30
9.5
 10
49.8725
 20
14.2316
 30
9.5
 10
49.9886
 20
13.9609
 30
9.5
  0
LINE
  5
B0E
330
A02
100
AcDbEntity
  8
Fusion
100
AcDbLine
 10
49.8725
 20
15.1783
 30
6.3
 11
49.8725
 21
15.1783
 31
9.5
  0
LINE
  5
B0F
330
A02
100
AcDbEntity
  8
Fusion
100
AcDbLine
 10
49.8725
 20
15.1783
 30
6.3
 11
49.8725
 21
22.8154
 31
6.3
  0
LINE
  5
B10
330
A02
100
AcDbEntity
  8
Fusion
100
AcDbLine
 10
49.8725
 20
15.1783
 30
6.3
 11
49.8725
 21
15.1783
 31
9.5
  0
LINE
  5
B11
330
A02
100
AcDbEntity
  8
Fusion
100
AcDbLine
 10
49.8725
 20
22.8154
 30
9.5
 11
49.8725
 21
15.1783
 31
9.5
  0
LINE
  5
B12
330
A02
100
AcDbEntity
  8
Fusion
100
AcDbLine
 10
49.8725
 20
22.8154
 30
6.3
 11
49.8725
 21
22.8154
 31
9.5
  0
LINE
  5
B13
330
A02
100
AcDbEntity
  8
Fusion
100
AcDbLine
 10
49.8725
 20
22.8154
 30
6.3
 11
52.0922
 21
22.8154
 31
6.3
  0
LINE
  5
B14
330
A02
100
AcDbEntity
  8
Fusion
100
AcDbLine
 10
49.8725
 20
22.8154
 30
6.3
 11
49.8725
 21
22.8154
 31
9.5
  0
LINE
  5
B15
330
A02
100
AcDbEntity
  8
Fusion
100
AcDbLine
 10
52.0922
 20
22.8154
 30
9.5
 11
49.8725
 21
22.8154
 31
9.5
  0
LINE
  5
B16
330
A02
100
AcDbEntity
  8
Fusion
100
AcDbLine
 10
52.0922
 20
22.8154
 30
6.3
 11
52.0922
 21
22.8154
 31
9.5
  0
LINE
  5
B17
330
A02
100
AcDbEntity
  8
Fusion
100
AcDbLine
 10
52.0922
 20
22.8154
 30
6.3
 11
52.0922
 21
24.5291
 31
6.3
  0
LINE
  5
B18
330
A02
100
AcDbEntity
  8
Fusion
100
AcDbLine
 10
52.0922
 20
22.8154
 30
6.3
 11
52.0922
 21
22.8154
 31
9.5
  0
LINE
  5
B19
330
A02
100
AcDbEntity
  8
Fusion
100
AcDbLine
 10
52.0922
 20
24.5291
 30
9.5
 11
52.0922
 21
22.8154
 31
9.5
  0
LINE
  5
B1A
330
A02
100
AcDbEntity
  8
Fusion
100
AcDbLine
 10
52.0922
 20
24.5291
 30
6.3
 11
52.0922
 21
24.5291
 31
9.5
  0
LINE
  5
B1B
330
A02
100
AcDbEntity
  8
Fusion
100
AcDbLine
 10
52.0922
 20
24.5291
 30
6.3
 11
49.8725
 21
24.5291
 31
6.3
  0
LINE
  5
B1C
330
A02
100
AcDbEntity
  8
Fusion
100
AcDbLine
 10
52.0922
 20
24.5291
 30
6.3
 11
52.0922
 21
24.5291
 31
9.5
  0
LINE
  5
B1D
330
A02
100
AcDbEntity
  8
Fusion
100
AcDbLine
 10
49.8725
 20
24.5291
 30
9.5
 11
52.0922
 21
24.5291
 31
9.5
  0
LINE
  5
B1E
330
A02
100
AcDbEntity
  8
Fusion
100
AcDbLine
 10
49.8725
 20
24.5291
 30
6.3
 11
49.8725
 21
24.5291
 31
9.5
  0
LINE
  5
B1F
330
A02
100
AcDbEntity
  8
Fusion
100
AcDbLine
 10
49.8725
 20
24.5291
 30
6.3
 11
49.8725
 21
29.0814
 31
6.3
  0
LINE
  5
B20
330
A02
100
AcDbEntity
  8
Fusion
100
AcDbLine
 10
49.8725
 20
24.5291
 30
6.3
 11
49.8725
 21
24.5291
 31
9.5
  0
LINE
  5
B21
330
A02
100
AcDbEntity
  8
Fusion
100
AcDbLine
 10
49.8725
 20
29.0814
 30
9.5
 11
49.8725
 21
24.5291
 31
9.5
  0
LINE
  5
B22
330
A02
100
AcDbEntity
  8
Fusion
100
AcDbLine
 10
49.8725
 20
29.0814
 30
6.3
 11
49.8725
 21
29.0814
 31
9.5
  0
LINE
  5
B23
330
A02
100
AcDbEntity
  8
Fusion
100
AcDbLine
 10
49.8725
 20
29.0814
 30
6.3
 11
47.6772
 21
27.7561
 31
6.3
  0
LINE
  5
B24
330
A02
100
AcDbEntity
  8
Fusion
100
AcDbLine
 10
49.8725
 20
29.0814
 30
6.3
 11
49.8725
 21
29.0814
 31
9.5
  0
LINE
  5
B25
330
A02
100
AcDbEntity
  8
Fusion
100
AcDbLine
 10
47.6772
 20
27.7561
 30
9.5
 11
49.8725
 21
29.0814
 31
9.5
  0
LINE
  5
B26
330
A02
100
AcDbEntity
  8
Fusion
100
AcDbLine
 10
47.6772
 20
27.7561
 30
6.3
 11
47.6772
 21
27.7561
 31
9.5
  0
LINE
  5
B27
330
A02
100
AcDbEntity
  8
Fusion
100
AcDbLine
 10
47.6772
 20
27.7561
 30
6.3
 11
47.6772
 21
24.5291
 31
6.3
  0
LINE
  5
B28
330
A02
100
AcDbEntity
  8
Fusion
100
AcDbLine
 10
47.6772
 20
27.7561
 30
6.3
 11
47.6772
 21
27.7561
 31
9.5
  0
LINE
  5
B29
330
A02
100
AcDbEntity
  8
Fusion
100
AcDbLine
 10
47.6772
 20
24.5291
 30
9.5
 11
47.6772
 21
27.7561
 31
9.5
  0
LINE
  5
B2A
330
A02
100
AcDbEntity
  8
Fusion
100
AcDbLine
 10
47.6772
 20
24.5291
 30
6.3
 11
47.6772
 21
24.5291
 31
9.5
  0
LINE
  5
B2B
330
A02
100
AcDbEntity
  8
Fusion
100
AcDbLine
 10
47.6772
 20
24.5291
 30
6.3
 11
46.0584
 21
24.5291
 31
6.3
  0
LINE
  5
B2C
330
A02
100
AcDbEntity
  8
Fusion
100
AcDbLine
 10
47.6772
 20
24.5291
 30
6.3
 11
47.6772
 21
24.5291
 31
9.5
  0
LINE
  5
B2D
330
A02
100
AcDbEntity
  8
Fusion
100
AcDbLine
 10
46.0584
 20
24.5291
 30
9.5
 11
47.6772
 21
24.5291
 31
9.5
  0
LINE
  5
B2E
330
A02
100
AcDbEntity
  8
Fusion
100
AcDbLine
 10
46.0584
 20
24.5291
 30
6.3
 11
46.0584
 21
24.5291
 31
9.5
  0
LINE
  5
B2F
330
A02
100
AcDbEntity
  8
Fusion
100
AcDbLine
 10
46.0584
 20
24.5291
 30
6.3
 11
46.0584
 21
22.8154
 31
6.3
  0
LINE
  5
B30
330
A02
100
AcDbEntity
  8
Fusion
100
AcDbLine
 10
46.0584
 20
24.5291
 30
6.3
 11
46.0584
 21
24.5291
 31
9.5
  0
LINE
  5
B31
330
A02
100
AcDbEntity
  8
Fusion
100
AcDbLine
 10
46.0584
 20
22.8154
 30
9.5
 11
46.0584
 21
24.5291
 31
9.5
  0
LINE
  5
B32
330
A02
100
AcDbEntity
  8
Fusion
100
AcDbLine
 10
46.0584
 20
22.8154
 30
6.3
 11
46.0584
 21
22.8154
 31
9.5
  0
LINE
  5
B33
330
A02
100
AcDbEntity
  8
Fusion
100
AcDbLine
 10
46.0584
 20
22.8154
 30
6.3
 11
47.6772
 21
22.8154
 31
6.3
  0
LINE
  5
B34
330
A02
100
AcDbEntity
  8
Fusion
100
AcDbLine
 10
46.0584
 20
22.8154
 30
6.3
 11
46.0584
 21
22.8154
 31
9.5
  0
LINE
  5
B35
330
A02
100
AcDbEntity
  8
Fusion
100
AcDbLine
 10
47.6772
 20
22.8154
 30
9.5
 11
46.0584
 21
22.8154
 31
9.5
  0
LINE
  5
B36
330
A02
100
AcDbEntity
  8
Fusion
100
AcDbLine
 10
47.6772
 20
22.8154
 30
6.3
 11
47.6772
 21
22.8154
 31
9.5
  0
LINE
  5
B37
330
A02
100
AcDbEntity
  8
Fusion
100
AcDbLine
 10
47.6772
 20
22.8154
 30
6.3
 11
47.6772
 21
15.3263
 31
6.3
  0
LINE
  5
B38
330
A02
100
AcDbEntity
  8
Fusion
100
AcDbLine
 10
47.6772
 20
22.8154
 30
6.3
 11
47.6772
 21
22.8154
 31
9.5
  0
LINE
  5
B39
330
A02
100
AcDbEntity
  8
Fusion
100
AcDbLine
 10
47.6772
 20
15.3263
 30
9.5
 11
47.6772
 21
22.8154
 31
9.5
  0
LINE
  5
B3A
330
A02
100
AcDbEntity
  8
Fusion
100
AcDbLine
 10
47.6772
 20
15.3263
 30
6.3
 11
47.6772
 21
15.3263
 31
9.5
  0
SPLINE
  5
B3B
330
A02
100
AcDbEntity
  8
Fusion
100
AcDbSpline
210
0
220
0
230
1
 70
8
 71
3
 72
11
 73
7
 74
0
 40
0
 40
0
 40
0
 40
0
 40
0.596206
 40
0.596206
 40
0.596206
 40
1
 40
1
 40
1
 40
1
 10
47.6772
 20
15.3263
 30
6.3
 10
47.6779
 20
14.7815
 30
6.3
 10
47.6902
 20
14.2385
 30
6.3
 10
47.7415
 20
13.714
 30
6.3
 10
47.7787
 20
13.3626
 30
6.3
 10
47.8274
 20
13.0075
 30
6.3
 10
47.947
 20
12.7215
 30
6.3
  0
LINE
  5
B3C
330
A02
100
AcDbEntity
  8
Fusion
100
AcDbLine
 10
47.6772
 20
15.3263
 30
6.3
 11
47.6772
 21
15.3263
 31
9.5
  0
SPLINE
  5
B3D
330
A02
100
AcDbEntity
  8
Fusion
100
AcDbSpline
210
0
220
0
230
1
 70
8
 71
2
 72
6
 73
3
 74
0
 40
0
 40
0
 40
0
 40
1
 40
1
 40
1
 10
47.947
 20
12.7215
 30
9.5
 10
47.6772
 20
13.3412
 30
9.5
 10
47.6772
 20
15.3263
 30
9.5
  0
LINE
  5
B3E
330
A02
100
AcDbEntity
  8
Fusion
100
AcDbLine
 10
47.947
 20
12.7215
 30
6.3
 11
47.947
 21
12.7215
 31
9.5
  0
SPLINE
  5
B3F
330
A02
100
AcDbEntity
  8
Fusion
100
AcDbSpline
210
0
220
0
230
1
 70
8
 71
3
 72
8
 73
4
 74
0
 40
0
 40
0
 40
0
 40
0
 40
1
 40
1
 40
1
 40
1
 10
47.947
 20
12.7215
 30
6.3
 10
48.1285
 20
12.2985
 30
6.3
 10
48.4637
 20
11.958
 30
6.3
 10
48.8791
 20
11.7224
 30
6.3
  0
LINE
  5
B40
330
A02
100
AcDbEntity
  8
Fusion
100
AcDbLine
 10
47.947
 20
12.7215
 30
6.3
 11
47.947
 21
12.7215
 31
9.5
  0
SPLINE
  5
B41
330
A02
100
AcDbEntity
  8
Fusion
100
AcDbSpline
210
0
220
0
230
1
 70
8
 71
2
 72
6
 73
3
 74
0
 40
0
 40
0
 40
0
 40
1
 40
1
 40
1
 10
48.8791
 20
11.7224
 30
9.5
 10
48.2168
 20
12.1026
 30
9.5
 10
47.947
 20
12.7215
 30
9.5
  0
LINE
  5
B42
330
A02
100
AcDbEntity
  8
Fusion
100
AcDbLine
 10
48.8791
 20
11.7224
 30
6.3
 11
48.8791
 21
11.7224
 31
9.5
  0
SPLINE
  5
B43
330
A02
100
AcDbEntity
  8
Fusion
100
AcDbSpline
210
0
220
0
230
1
 70
8
 71
3
 72
11
 73
7
 74
0
 40
0
 40
0
 40
0
 40
0
 40
0.313701
 40
0.313701
 40
0.313701
 40
1
 40
1
 40
1
 40
1
 10
48.8791
 20
11.7224
 30
6.3
 10
49.0453
 20
11.6288
 30
6.3
 10
49.2242
 20
11.5551
 30
6.3
 10
49.4156
 20
11.5013
 30
6.3
 10
49.8324
 20
11.3825
 30
6.3
 10
50.2855
 20
11.3436
 30
6.3
 10
50.7432
 20
11.343
 30
6.3
  0
LINE
  5
B44
330
A02
100
AcDbEntity
  8
Fusion
100
AcDbLine
 10
48.8791
 20
11.7224
 30
6.3
 11
48.8791
 21
11.7224
 31
9.5
  0
SPLINE
  5
B45
330
A02
100
AcDbEntity
  8
Fusion
100
AcDbSpline
210
0
220
0
230
1
 70
8
 71
2
 72
6
 73
3
 74
0
 40
0
 40
0
 40
0
 40
1
 40
1
 40
1
 10
50.7432
 20
11.343
 30
9.5
 10
49.5413
 20
11.343
 30
9.5
 10
48.8791
 20
11.7224
 30
9.5
  0
LINE
  5
B46
330
A02
100
AcDbEntity
  8
Fusion
100
AcDbLine
 10
50.7432
 20
11.343
 30
6.3
 11
50.7432
 21
11.343
 31
9.5
  0
SPLINE
  5
B47
330
A02
100
AcDbEntity
  8
Fusion
100
AcDbSpline
210
0
220
0
230
1
 70
8
 71
3
 72
8
 73
4
 74
0
 40
0
 40
0
 40
0
 40
0
 40
1
 40
1
 40
1
 40
1
 10
50.7432
 20
11.343
 30
6.3
 10
51.2822
 20
11.3434
 30
6.3
 10
51.8438
 20
11.4047
 30
6.3
 10
52.4111
 20
11.5
 30
6.3
  0
LINE
  5
B48
330
A02
100
AcDbEntity
  8
Fusion
100
AcDbLine
 10
50.7432
 20
11.343
 30
6.3
 11
50.7432
 21
11.343
 31
9.5
  0
SPLINE
  5
B49
330
A02
100
AcDbEntity
  8
Fusion
100
AcDbSpline
210
0
220
0
230
1
 70
8
 71
2
 72
6
 73
3
 74
0
 40
0
 40
0
 40
0
 40
1
 40
1
 40
1
 10
52.4111
 20
11.5
 30
9.5
 10
51.479
 20
11.343
 30
9.5
 10
50.7432
 20
11.343
 30
9.5
  0
LINE
  5
B4A
330
A02
100
AcDbEntity
  8
Fusion
100
AcDbLine
 10
52.4111
 20
11.5
 30
6.3
 11
52.4111
 21
11.5
 31
9.5
  0
LINE
  5
B4B
330
A02
100
AcDbEntity
  8
Fusion
100
AcDbLine
 10
62.6816
 20
13.1434
 30
6.3
 11
62.6816
 21
11.5
 31
6.3
  0
LINE
  5
B4C
330
A02
100
AcDbEntity
  8
Fusion
100
AcDbLine
 10
62.6816
 20
13.1434
 30
6.3
 11
62.6816
 21
13.1434
 31
9.5
  0
LINE
  5
B4D
330
A02
100
AcDbEntity
  8
Fusion
100
AcDbLine
 10
62.6816
 20
11.5
 30
9.5
 11
62.6816
 21
13.1434
 31
9.5
  0
LINE
  5
B4E
330
A02
100
AcDbEntity
  8
Fusion
100
AcDbLine
 10
62.6816
 20
11.5
 30
6.3
 11
62.6816
 21
11.5
 31
9.5
  0
LINE
  5
B4F
330
A02
100
AcDbEntity
  8
Fusion
100
AcDbLine
 10
62.6816
 20
11.5
 30
6.3
 11
64.7297
 21
11.5
 31
6.3
  0
LINE
  5
B50
330
A02
100
AcDbEntity
  8
Fusion
100
AcDbLine
 10
62.6816
 20
11.5
 30
6.3
 11
62.6816
 21
11.5
 31
9.5
  0
LINE
  5
B51
330
A02
100
AcDbEntity
  8
Fusion
100
AcDbLine
 10
64.7297
 20
11.5
 30
9.5
 11
62.6816
 21
11.5
 31
9.5
  0
LINE
  5
B52
330
A02
100
AcDbEntity
  8
Fusion
100
AcDbLine
 10
64.7297
 20
11.5
 30
6.3
 11
64.7297
 21
11.5
 31
9.5
  0
LINE
  5
B53
330
A02
100
AcDbEntity
  8
Fusion
100
AcDbLine
 10
64.7297
 20
11.5
 30
6.3
 11
64.7297
 21
29.5
 31
6.3
  0
LINE
  5
B54
330
A02
100
AcDbEntity
  8
Fusion
100
AcDbLine
 10
64.7297
 20
11.5
 30
6.3
 11
64.7297
 21
11.5
 31
9.5
  0
LINE
  5
B55
330
A02
100
AcDbEntity
  8
Fusion
100
AcDbLine
 10
64.7297
 20
29.5
 30
9.5
 11
64.7297
 21
11.5
 31
9.5
  0
LINE
  5
B56
330
A02
100
AcDbEntity
  8
Fusion
100
AcDbLine
 10
64.7297
 20
29.5
 30
6.3
 11
64.7297
 21
29.5
 31
9.5
  0
LINE
  5
B57
330
A02
100
AcDbEntity
  8
Fusion
100
AcDbLine
 10
64.7297
 20
29.5
 30
6.3
 11
62.5344
 21
29.5
 31
6.3
  0
LINE
  5
B58
330
A02
100
AcDbEntity
  8
Fusion
100
AcDbLine
 10
64.7297
 20
29.5
 30
6.3
 11
64.7297
 21
29.5
 31
9.5
  0
LINE
  5
B59
330
A02
100
AcDbEntity
  8
Fusion
100
AcDbLine
 10
62.5344
 20
29.5
 30
9.5
 11
64.7297
 21
29.5
 31
9.5
  0
LINE
  5
B5A
330
A02
100
AcDbEntity
  8
Fusion
100
AcDbLine
 10
62.5344
 20
29.5
 30
6.3
 11
62.5344
 21
29.5
 31
9.5
  0
LINE
  5
B5B
330
A02
100
AcDbEntity
  8
Fusion
100
AcDbLine
 10
62.5344
 20
29.5
 30
6.3
 11
62.5344
 21
23.028
 31
6.3
  0
LINE
  5
B5C
330
A02
100
AcDbEntity
  8
Fusion
100
AcDbLine
 10
62.5344
 20
29.5
 30
6.3
 11
62.5344
 21
29.5
 31
9.5
  0
LINE
  5
B5D
330
A02
100
AcDbEntity
  8
Fusion
100
AcDbLine
 10
62.5344
 20
23.028
 30
9.5
 11
62.5344
 21
29.5
 31
9.5
  0
LINE
  5
B5E
330
A02
100
AcDbEntity
  8
Fusion
100
AcDbLine
 10
62.5344
 20
23.028
 30
6.3
 11
62.5344
 21
23.028
 31
9.5
  0
SPLINE
  5
B5F
330
A02
100
AcDbEntity
  8
Fusion
100
AcDbSpline
210
0
220
0
230
1
 70
8
 71
3
 72
8
 73
4
 74
0
 40
0
 40
0
 40
0
 40
0
 40
1
 40
1
 40
1
 40
1
 10
62.5344
 20
23.028
 30
6.3
 10
62.1457
 20
23.56
 30
6.3
 10
61.6278
 20
23.9901
 30
6.3
 10
61.0382
 20
24.3018
 30
6.3
  0
LINE
  5
B60
330
A02
100
AcDbEntity
  8
Fusion
100
AcDbLine
 10
62.5344
 20
23.028
 30
6.3
 11
62.5344
 21
23.028
 31
9.5
  0
SPLINE
  5
B61
330
A02
100
AcDbEntity
  8
Fusion
100
AcDbSpline
210
0
220
0
230
1
 70
8
 71
2
 72
6
 73
3
 74
0
 40
0
 40
0
 40
0
 40
1
 40
1
 40
1
 10
61.0382
 20
24.3018
 30
9.5
 10
61.958
 20
23.8129
 30
9.5
 10
62.5344
 20
23.028
 30
9.5
  0
LINE
  5
B62
330
A02
100
AcDbEntity
  8
Fusion
100
AcDbLine
 10
61.0382
 20
24.3018
 30
6.3
 11
61.0382
 21
24.3018
 31
9.5
  0
SPLINE
  5
B63
330
A02
100
AcDbEntity
  8
Fusion
100
AcDbSpline
210
0
220
0
230
1
 70
8
 71
3
 72
8
 73
4
 74
0
 40
0
 40
0
 40
0
 40
0
 40
1
 40
1
 40
1
 40
1
 10
61.0382
 20
24.3018
 30
6.3
 10
60.4026
 20
24.642
 30
6.3
 10
59.6749
 20
24.7926
 30
6.3
 10
58.9411
 20
24.7907
 30
6.3
  0
LINE
  5
B64
330
A02
100
AcDbEntity
  8
Fusion
100
AcDbLine
 10
61.0382
 20
24.3018
 30
6.3
 11
61.0382
 21
24.3018
 31
9.5
  0
SPLINE
  5
B65
330
A02
100
AcDbEntity
  8
Fusion
100
AcDbSpline
210
0
220
0
230
1
 70
8
 71
2
 72
6
 73
3
 74
0
 40
0
 40
0
 40
0
 40
1
 40
1
 40
1
 10
58.9411
 20
24.7907
 30
9.5
 10
60.1185
 20
24.7907
 30
9.5
 10
61.0382
 20
24.3018
 30
9.5
  0
LINE
  5
B66
330
A02
100
AcDbEntity
  8
Fusion
100
AcDbLine
 10
58.9411
 20
24.7907
 30
6.3
 11
58.9411
 21
24.7907
 31
9.5
  0
SPLINE
  5
B67
330
A02
100
AcDbEntity
  8
Fusion
100
AcDbSpline
210
0
220
0
230
1
 70
8
 71
3
 72
11
 73
7
 74
0
 40
0
 40
0
 40
0
 40
0
 40
0.614723
 40
0.614723
 40
0.614723
 40
1
 40
1
 40
1
 40
1
 10
58.9411
 20
24.7907
 30
6.3
 10
58.3097
 20
24.7914
 30
6.3
 10
57.6799
 20
24.6904
 30
6.3
 10
57.0895
 20
24.475
 30
6.3
 10
56.7184
 20
24.3395
 30
6.3
 10
56.3667
 20
24.1637
 30
6.3
 10
56.0346
 20
23.9478
 30
6.3
  0
LINE
  5
B68
330
A02
100
AcDbEntity
  8
Fusion
100
AcDbLine
 10
58.9411
 20
24.7907
 30
6.3
 11
58.9411
 21
24.7907
 31
9.5
  0
SPLINE
  5
B69
330
A02
100
AcDbEntity
  8
Fusion
100
AcDbSpline
210
0
220
0
230
1
 70
8
 71
2
 72
6
 73
3
 74
0
 40
0
 40
0
 40
0
 40
1
 40
1
 40
1
 10
56.0346
 20
23.9478
 30
9.5
 10
57.3346
 20
24.7907
 30
9.5
 10
58.9411
 20
24.7907
 30
9.5
  0
LINE
  5
B6A
330
A02
100
AcDbEntity
  8
Fusion
100
AcDbLine
 10
56.0346
 20
23.9478
 30
6.3
 11
56.0346
 21
23.9478
 31
9.5
  0
SPLINE
  5
B6B
330
A02
100
AcDbEntity
  8
Fusion
100
AcDbSpline
210
0
220
0
230
1
 70
8
 71
3
 72
11
 73
7
 74
0
 40
0
 40
0
 40
0
 40
0
 40
0.602239
 40
0.602239
 40
0.602239
 40
1
 40
1
 40
1
 40
1
 10
56.0346
 20
23.9478
 30
6.3
 10
55.5023
 20
23.6043
 30
6.3
 10
55.0423
 20
23.1542
 30
6.3
 10
54.6815
 20
22.6324
 30
6.3
 10
54.4432
 20
22.286
 30
6.3
 10
54.2442
 20
21.9167
 30
6.3
 10
54.0847
 20
21.5244
 30
6.3
  0
LINE
  5
B6C
330
A02
100
AcDbEntity
  8
Fusion
100
AcDbLine
 10
56.0346
 20
23.9478
 30
6.3
 11
56.0346
 21
23.9478
 31
9.5
  0
SPLINE
  5
B6D
330
A02
100
AcDbEntity
  8
Fusion
100
AcDbSpline
210
0
220
0
230
1
 70
8
 71
2
 72
6
 73
3
 74
0
 40
0
 40
0
 40
0
 40
1
 40
1
 40
1
 10
54.0847
 20
21.5244
 30
9.5
 10
54.7346
 20
23.1057
 30
9.5
 10
56.0346
 20
23.9478
 30
9.5
  0
LINE
  5
B6E
330
A02
100
AcDbEntity
  8
Fusion
100
AcDbLine
 10
54.0847
 20
21.5244
 30
6.3
 11
54.0847
 21
21.5244
 31
9.5
  0
SPLINE
  5
B6F
330
A02
100
AcDbEntity
  8
Fusion
100
AcDbSpline
210
0
220
0
230
1
 70
8
 71
3
 72
8
 73
4
 74
0
 40
0
 40
0
 40
0
 40
0
 40
1
 40
1
 40
1
 40
1
 10
54.0847
 20
21.5244
 30
6.3
 10
53.6275
 20
20.4163
 30
6.3
 10
53.4333
 20
19.2084
 30
6.3
 10
53.4347
 20
18.0023
 30
6.3
  0
LINE
  5
B70
330
A02
100
AcDbEntity
  8
Fusion
100
AcDbLine
 10
54.0847
 20
21.5244
 30
6.3
 11
54.0847
 21
21.5244
 31
9.5
  0
SPLINE
  5
B71
330
A02
100
AcDbEntity
  8
Fusion
100
AcDbSpline
210
0
220
0
230
1
 70
8
 71
2
 72
6
 73
3
 74
0
 40
0
 40
0
 40
0
 40
1
 40
1
 40
1
 10
53.4347
 20
18.0023
 30
9.5
 10
53.4347
 20
19.9432
 30
9.5
 10
54.0847
 20
21.5244
 30
9.5
  0
LINE
  5
B72
330
A02
100
AcDbEntity
  8
Fusion
100
AcDbLine
 10
53.4347
 20
18.0023
 30
6.3
 11
53.4347
 21
18.0023
 31
9.5
  0
SPLINE
  5
B73
330
A02
100
AcDbEntity
  8
Fusion
100
AcDbSpline
210
0
220
0
230
1
 70
8
 71
3
 72
8
 73
4
 74
0
 40
0
 40
0
 40
0
 40
0
 40
1
 40
1
 40
1
 40
1
 10
53.4347
 20
18.0023
 30
6.3
 10
53.4331
 20
16.7893
 30
6.3
 10
53.6395
 20
15.5705
 30
6.3
 10
54.1517
 20
14.4801
 30
6.3
  0
LINE
  5
B74
330
A02
100
AcDbEntity
  8
Fusion
100
AcDbLine
 10
53.4347
 20
18.0023
 30
6.3
 11
53.4347
 21
18.0023
 31
9.5
  0
SPLINE
  5
B75
330
A02
100
AcDbEntity
  8
Fusion
100
AcDbSpline
210
0
220
0
230
1
 70
8
 71
2
 72
6
 73
3
 74
0
 40
0
 40
0
 40
0
 40
1
 40
1
 40
1
 10
54.1517
 20
14.4801
 30
9.5
 10
53.4347
 20
16.0123
 30
9.5
 10
53.4347
 20
18.0023
 30
9.5
  0
LINE
  5
B76
330
A02
100
AcDbEntity
  8
Fusion
100
AcDbLine
 10
54.1517
 20
14.4801
 30
6.3
 11
54.1517
 21
14.4801
 31
9.5
  0
SPLINE
  5
B77
330
A02
100
AcDbEntity
  8
Fusion
100
AcDbSpline
210
0
220
0
230
1
 70
8
 71
3
 72
8
 73
4
 74
0
 40
0
 40
0
 40
0
 40
0
 40
1
 40
1
 40
1
 40
1
 10
54.1517
 20
14.4801
 30
6.3
 10
54.5975
 20
13.5163
 30
6.3
 10
55.2871
 20
12.6679
 30
6.3
 10
56.1752
 20
12.0928
 30
6.3
  0
LINE
  5
B78
330
A02
100
AcDbEntity
  8
Fusion
100
AcDbLine
 10
54.1517
 20
14.4801
 30
6.3
 11
54.1517
 21
14.4801
 31
9.5
  0
SPLINE
  5
B79
330
A02
100
AcDbEntity
  8
Fusion
100
AcDbSpline
210
0
220
0
230
1
 70
8
 71
2
 72
6
 73
3
 74
0
 40
0
 40
0
 40
0
 40
1
 40
1
 40
1
 10
56.1752
 20
12.0928
 30
9.5
 10
54.8695
 20
12.9479
 30
9.5
 10
54.1517
 20
14.4801
 30
9.5
  0
LINE
  5
B7A
330
A02
100
AcDbEntity
  8
Fusion
100
AcDbLine
 10
56.1752
 20
12.0928
 30
6.3
 11
56.1752
 21
12.0928
 31
9.5
  0
SPLINE
  5
B7B
330
A02
100
AcDbEntity
  8
Fusion
100
AcDbSpline
210
0
220
0
230
1
 70
8
 71
3
 72
11
 73
7
 74
0
 40
0
 40
0
 40
0
 40
0
 40
0.50718
 40
0.50718
 40
0.50718
 40
1
 40
1
 40
1
 40
1
 10
56.1752
 20
12.0928
 30
6.3
 10
56.6052
 20
11.8111
 30
6.3
 10
57.0731
 20
11.59
 30
6.3
 10
57.5646
 20
11.446
 30
6.3
 10
58.0418
 20
11.3054
 30
6.3
 10
58.5399
 20
11.238
 30
6.3
 10
59.0392
 20
11.2384
 30
6.3
  0
LINE
  5
B7C
330
A02
100
AcDbEntity
  8
Fusion
100
AcDbLine
 10
56.1752
 20
12.0928
 30
6.3
 11
56.1752
 21
12.0928
 31
9.5
  0
SPLINE
  5
B7D
330
A02
100
AcDbEntity
  8
Fusion
100
AcDbSpline
210
0
220
0
230
1
 70
8
 71
2
 72
6
 73
3
 74
0
 40
0
 40
0
 40
0
 40
1
 40
1
 40
1
 10
59.0392
 20
11.2384
 30
9.5
 10
57.4817
 20
11.2384
 30
9.5
 10
56.1752
 20
12.0928
 30
9.5
  0
LINE
  5
B7E
330
A02
100
AcDbEntity
  8
Fusion
100
AcDbLine
 10
59.0392
 20
11.2384
 30
6.3
 11
59.0392
 21
11.2384
 31
9.5
  0
SPLINE
  5
B7F
330
A02
100
AcDbEntity
  8
Fusion
100
AcDbSpline
210
0
220
0
230
1
 70
8
 71
3
 72
11
 73
7
 74
0
 40
0
 40
0
 40
0
 40
0
 40
0.566994
 40
0.566994
 40
0.566994
 40
1
 40
1
 40
1
 40
1
 10
59.0392
 20
11.2384
 30
6.3
 10
59.8545
 20
11.2354
 30
6.3
 10
60.6797
 20
11.4119
 30
6.3
 10
61.373
 20
11.84
 30
6.3
 10
61.9033
 20
12.1628
 30
6.3
 10
62.3437
 20
12.621
 30
6.3
 10
62.6816
 20
13.1434
 30
6.3
  0
LINE
  5
B80
330
A02
100
AcDbEntity
  8
Fusion
100
AcDbLine
 10
59.0392
 20
11.2384
 30
6.3
 11
59.0392
 21
11.2384
 31
9.5
  0
SPLINE
  5
B81
330
A02
100
AcDbEntity
  8
Fusion
100
AcDbSpline
210
0
220
0
230
1
 70
8
 71
2
 72
6
 73
3
 74
0
 40
0
 40
0
 40
0
 40
1
 40
1
 40
1
 10
62.6816
 20
13.1434
 30
9.5
 10
61.443
 20
11.2384
 30
9.5
 10
59.0392
 20
11.2384
 30
9.5
  0
LINE
  5
B82
330
A02
100
AcDbEntity
  8
Fusion
100
AcDbLine
 10
62.6816
 20
13.1434
 30
6.3
 11
62.6816
 21
13.1434
 31
9.5
  0
SPLINE
  5
B83
330
A02
100
AcDbEntity
  8
Fusion
100
AcDbSpline
210
0
220
0
230
1
 70
8
 71
3
 72
14
 73
10
 74
0
 40
0
 40
0
 40
0
 40
0
 40
0.326435
 40
0.326435
 40
0.326435
 40
0.569955
 40
0.569955
 40
0.569955
 40
1
 40
1
 40
1
 40
1
 10
69.3924
 20
23.3501
 30
6.3
 10
68.9076
 20
22.9336
 30
6.3
 10
68.5055
 20
22.4238
 30
6.3
 10
68.2049
 20
21.8595
 30
6.3
 10
67.9812
 20
21.4361
 30
6.3
 10
67.8075
 20
20.9923
 30
6.3
 10
67.6839
 20
20.5282
 30
6.3
 10
67.4631
 20
19.7122
 30
6.3
 10
67.3815
 20
18.8618
 30
6.3
 10
67.3811
 20
18.0145
 30
6.3
  0
LINE
  5
B84
330
A02
100
AcDbEntity
  8
Fusion
100
AcDbLine
 10
69.3924
 20
23.3501
 30
6.3
 11
69.3924
 21
23.3501
 31
9.5
  0
SPLINE
  5
B85
330
A02
100
AcDbEntity
  8
Fusion
100
AcDbSpline
210
0
220
0
230
1
 70
8
 71
2
 72
6
 73
3
 74
0
 40
0
 40
0
 40
0
 40
1
 40
1
 40
1
 10
67.3811
 20
18.0145
 30
9.5
 10
67.3811
 20
21.616
 30
9.5
 10
69.3924
 20
23.3501
 30
9.5
  0
LINE
  5
B86
330
A02
100
AcDbEntity
  8
Fusion
100
AcDbLine
 10
67.3811
 20
18.0145
 30
6.3
 11
67.3811
 21
18.0145
 31
9.5
  0
SPLINE
  5
B87
330
A02
100
AcDbEntity
  8
Fusion
100
AcDbSpline
210
0
220
0
230
1
 70
8
 71
3
 72
11
 73
7
 74
0
 40
0
 40
0
 40
0
 40
0
 40
0.457372
 40
0.457372
 40
0.457372
 40
1
 40
1
 40
1
 40
1
 10
67.3811
 20
18.0145
 30
6.3
 10
67.3814
 20
17.1814
 30
6.3
 10
67.4612
 20
16.3457
 30
6.3
 10
67.6742
 20
15.5429
 30
6.3
 10
67.9236
 20
14.5923
 30
6.3
 10
68.3815
 20
13.6889
 30
6.3
 10
69.067
 20
12.9839
 30
6.3
  0
LINE
  5
B88
330
A02
100
AcDbEntity
  8
Fusion
100
AcDbLine
 10
67.3811
 20
18.0145
 30
6.3
 11
67.3811
 21
18.0145
 31
9.5
  0
SPLINE
  5
B89
330
A02
100
AcDbEntity
  8
Fusion
100
AcDbSpline
210
0
220
0
230
1
 70
8
 71
2
 72
6
 73
3
 74
0
 40
0
 40
0
 40
0
 40
1
 40
1
 40
1
 10
69.067
 20
12.9839
 30
9.5
 10
67.3811
 20
14.7303
 30
9.5
 10
67.3811
 20
18.0145
 30
9.5
  0
LINE
  5
B8A
330
A02
100
AcDbEntity
  8
Fusion
100
AcDbLine
 10
69.067
 20
12.9839
 30
6.3
 11
69.067
 21
12.9839
 31
9.5
  0
SPLINE
  5
B8B
330
A02
100
AcDbEntity
  8
Fusion
100
AcDbSpline
210
0
220
0
230
1
 70
8
 71
3
 72
11
 73
7
 74
0
 40
0
 40
0
 40
0
 40
0
 40
0.590244
 40
0.590244
 40
0.590244
 40
1
 40
1
 40
1
 40
1
 10
69.067
 20
12.9839
 30
6.3
 10
69.7327
 20
12.2884
 30
6.3
 10
70.5806
 20
11.7742
 30
6.3
 10
71.5054
 20
11.5066
 30
6.3
 10
72.1466
 20
11.3176
 30
6.3
 10
72.8181
 20
11.2382
 30
6.3
 10
73.4885
 20
11.2384
 30
6.3
  0
LINE
  5
B8C
330
A02
100
AcDbEntity
  8
Fusion
100
AcDbLine
 10
69.067
 20
12.9839
 30
6.3
 11
69.067
 21
12.9839
 31
9.5
  0
SPLINE
  5
B8D
330
A02
100
AcDbEntity
  8
Fusion
100
AcDbSpline
210
0
220
0
230
1
 70
8
 71
2
 72
6
 73
3
 74
0
 40
0
 40
0
 40
0
 40
1
 40
1
 40
1
 10
73.4885
 20
11.2384
 30
9.5
 10
70.7536
 20
11.2384
 30
9.5
 10
69.067
 20
12.9839
 30
9.5
  0
LINE
  5
B8E
330
A02
100
AcDbEntity
  8
Fusion
100
AcDbLine
 10
73.4885
 20
11.2384
 30
6.3
 11
73.4885
 21
11.2384
 31
9.5
  0
SPLINE
  5
B8F
330
A02
100
AcDbEntity
  8
Fusion
100
AcDbSpline
210
0
220
0
230
1
 70
8
 71
3
 72
8
 73
4
 74
0
 40
0
 40
0
 40
0
 40
0
 40
1
 40
1
 40
1
 40
1
 10
73.4885
 20
11.2384
 30
6.3
 10
74.5849
 20
11.234
 30
6.3
 10
75.677
 20
11.4996
 30
6.3
 10
76.6337
 20
12.0314
 30
6.3
  0
LINE
  5
B90
330
A02
100
AcDbEntity
  8
Fusion
100
AcDbLine
 10
73.4885
 20
11.2384
 30
6.3
 11
73.4885
 21
11.2384
 31
9.5
  0
SPLINE
  5
B91
330
A02
100
AcDbEntity
  8
Fusion
100
AcDbSpline
210
0
220
0
230
1
 70
8
 71
2
 72
6
 73
3
 74
0
 40
0
 40
0
 40
0
 40
1
 40
1
 40
1
 10
76.6337
 20
12.0314
 30
9.5
 10
75.1931
 20
11.2384
 30
9.5
 10
73.4885
 20
11.2384
 30
9.5
  0
LINE
  5
B92
330
A02
100
AcDbEntity
  8
Fusion
100
AcDbLine
 10
76.6337
 20
12.0314
 30
6.3
 11
76.6337
 21
12.0314
 31
9.5
  0
SPLINE
  5
B93
330
A02
100
AcDbEntity
  8
Fusion
100
AcDbSpline
210
0
220
0
230
1
 70
8
 71
3
 72
11
 73
7
 74
0
 40
0
 40
0
 40
0
 40
0
 40
0.547189
 40
0.547189
 40
0.547189
 40
1
 40
1
 40
1
 40
1
 10
76.6337
 20
12.0314
 30
6.3
 10
77.1427
 20
12.3111
 30
6.3
 10
77.6088
 20
12.6658
 30
6.3
 10
78.0028
 20
13.0894
 30
6.3
 10
78.3299
 20
13.4421
 30
6.3
 10
78.6053
 20
13.8324
 30
6.3
 10
78.8289
 20
14.2602
 30
6.3
  0
LINE
  5
B94
330
A02
100
AcDbEntity
  8
Fusion
100
AcDbLine
 10
76.6337
 20
12.0314
 30
6.3
 11
76.6337
 21
12.0314
 31
9.5
  0
SPLINE
  5
B95
330
A02
100
AcDbEntity
  8
Fusion
100
AcDbSpline
210
0
220
0
230
1
 70
8
 71
2
 72
6
 73
3
 74
0
 40
0
 40
0
 40
0
 40
1
 40
1
 40
1
 10
78.8289
 20
14.2602
 30
9.5
 10
78.0751
 20
12.8253
 30
9.5
 10
76.6337
 20
12.0314
 30
9.5
  0
LINE
  5
B96
330
A02
100
AcDbEntity
  8
Fusion
100
AcDbLine
 10
78.8289
 20
14.2602
 30
6.3
 11
78.8289
 21
14.2602
 31
9.5
  0
SPLINE
  5
B97
330
A02
100
AcDbEntity
  8
Fusion
100
AcDbSpline
210
0
220
0
230
1
 70
8
 71
3
 72
11
 73
7
 74
0
 40
0
 40
0
 40
0
 40
0
 40
0.399934
 40
0.399934
 40
0.399934
 40
1
 40
1
 40
1
 40
1
 10
78.8289
 20
14.2602
 30
6.3
 10
79.0762
 20
14.731
 30
6.3
 10
79.2422
 20
15.2456
 30
6.3
 10
79.3561
 20
15.7716
 30
6.3
 10
79.526
 20
16.5626
 30
6.3
 10
79.5827
 20
17.3803
 30
6.3
 10
79.5836
 20
18.1977
 30
6.3
  0
LINE
  5
B98
330
A02
100
AcDbEntity
  8
Fusion
100
AcDbLine
 10
78.8289
 20
14.2602
 30
6.3
 11
78.8289
 21
14.2602
 31
9.5
  0
SPLINE
  5
B99
330
A02
100
AcDbEntity
  8
Fusion
100
AcDbSpline
210
0
220
0
230
1
 70
8
 71
2
 72
6
 73
3
 74
0
 40
0
 40
0
 40
0
 40
1
 40
1
 40
1
 10
79.5836
 20
18.1977
 30
9.5
 10
79.5836
 20
15.695
 30
9.5
 10
78.8289
 20
14.2602
 30
9.5
  0
LINE
  5
B9A
330
A02
100
AcDbEntity
  8
Fusion
100
AcDbLine
 10
79.5836
 20
18.1977
 30
6.3
 11
79.5836
 21
18.1977
 31
9.5
  0
SPLINE
  5
B9B
330
A02
100
AcDbEntity
  8
Fusion
100
AcDbSpline
210
0
220
0
230
1
 70
8
 71
3
 72
14
 73
10
 74
0
 40
0
 40
0
 40
0
 40
0
 40
0.384244
 40
0.384244
 40
0.384244
 40
0.643174
 40
0.643174
 40
0.643174
 40
1
 40
1
 40
1
 40
1
 10
79.5836
 20
18.1977
 30
6.3
 10
79.5835
 20
18.8752
 30
6.3
 10
79.5224
 20
19.5535
 30
6.3
 10
79.3712
 20
20.2118
 30
6.3
 10
79.2704
 20
20.6572
 30
6.3
 10
79.1249
 20
21.0867
 30
6.3
 10
78.9346
 20
21.5004
 30
6.3
 10
78.6719
 20
22.0679
 30
6.3
 10
78.3153
 20
22.5912
 30
6.3
 10
77.8789
 20
23.0386
 30
6.3
  0
LINE
  5
B9C
330
A02
100
AcDbEntity
  8
Fusion
100
AcDbLine
 10
79.5836
 20
18.1977
 30
6.3
 11
79.5836
 21
18.1977
 31
9.5
  0
SPLINE
  5
B9D
330
A02
100
AcDbEntity
  8
Fusion
100
AcDbSpline
210
0
220
0
230
1
 70
8
 71
2
 72
6
 73
3
 74
0
 40
0
 40
0
 40
0
 40
1
 40
1
 40
1
 10
77.8789
 20
23.0386
 30
9.5
 10
79.5836
 20
21.2865
 30
9.5
 10
79.5836
 20
18.1977
 30
9.5
  0
LINE
  5
B9E
330
A02
100
AcDbEntity
  8
Fusion
100
AcDbLine
 10
77.8789
 20
23.0386
 30
6.3
 11
77.8789
 21
23.0386
 31
9.5
  0
SPLINE
  5
B9F
330
A02
100
AcDbEntity
  8
Fusion
100
AcDbSpline
210
0
220
0
230
1
 70
8
 71
3
 72
11
 73
7
 74
0
 40
0
 40
0
 40
0
 40
0
 40
0.619179
 40
0.619179
 40
0.619179
 40
1
 40
1
 40
1
 40
1
 10
77.8789
 20
23.0386
 30
6.3
 10
77.1821
 20
23.7621
 30
6.3
 10
76.2928
 20
24.294
 30
6.3
 10
75.323
 20
24.556
 30
6.3
 10
74.7277
 20
24.7203
 30
6.3
 10
74.1078
 20
24.7909
 30
6.3
 10
73.4885
 20
24.7907
 30
6.3
  0
LINE
  5
BA0
330
A02
100
AcDbEntity
  8
Fusion
100
AcDbLine
 10
77.8789
 20
23.0386
 30
6.3
 11
77.8789
 21
23.0386
 31
9.5
  0
SPLINE
  5
BA1
330
A02
100
AcDbEntity
  8
Fusion
100
AcDbSpline
210
0
220
0
230
1
 70
8
 71
2
 72
6
 73
3
 74
0
 40
0
 40
0
 40
0
 40
1
 40
1
 40
1
 10
73.4885
 20
24.7907
 30
9.5
 10
76.1742
 20
24.7907
 30
9.5
 10
77.8789
 20
23.0386
 30
9.5
  0
LINE
  5
BA2
330
A02
100
AcDbEntity
  8
Fusion
100
AcDbLine
 10
73.4885
 20
24.7907
 30
6.3
 11
73.4885
 21
24.7907
 31
9.5
  0
SPLINE
  5
BA3
330
A02
100
AcDbEntity
  8
Fusion
100
AcDbSpline
210
0
220
0
230
1
 70
8
 71
3
 72
11
 73
7
 74
0
 40
0
 40
0
 40
0
 40
0
 40
0.685513
 40
0.685513
 40
0.685513
 40
1
 40
1
 40
1
 40
1
 10
73.4885
 20
24.7907
 30
6.3
 10
72.472
 20
24.7934
 30
6.3
 10
71.4497
 20
24.5906
 30
6.3
 10
70.5468
 20
24.1265
 30
6.3
 10
70.1315
 20
23.9137
 30
6.3
 10
69.7467
 20
23.6549
 30
6.3
 10
69.3924
 20
23.3501
 30
6.3
  0
LINE
  5
BA4
330
A02
100
AcDbEntity
  8
Fusion
100
AcDbLine
 10
73.4885
 20
24.7907
 30
6.3
 11
73.4885
 21
24.7907
 31
9.5
  0
SPLINE
  5
BA5
330
A02
100
AcDbEntity
  8
Fusion
100
AcDbSpline
210
0
220
0
230
1
 70
8
 71
2
 72
6
 73
3
 74
0
 40
0
 40
0
 40
0
 40
1
 40
1
 40
1
 10
69.3924
 20
23.3501
 30
9.5
 10
71.0725
 20
24.7907
 30
9.5
 10
73.4885
 20
24.7907
 30
9.5
  0
LINE
  5
BA6
330
A02
100
AcDbEntity
  8
Fusion
100
AcDbLine
 10
69.3924
 20
23.3501
 30
6.3
 11
69.3924
 21
23.3501
 31
9.5
  0
LINE
  5
BA7
330
A02
100
AcDbEntity
  8
Fusion
100
AcDbLine
 10
82.1737
 20
24.5291
 30
6.3
 11
82.1737
 21
11.5
 31
6.3
  0
LINE
  5
BA8
330
A02
100
AcDbEntity
  8
Fusion
100
AcDbLine
 10
82.1737
 20
24.5291
 30
6.3
 11
82.1737
 21
24.5291
 31
9.5
  0
LINE
  5
BA9
330
A02
100
AcDbEntity
  8
Fusion
100
AcDbLine
 10
82.1737
 20
11.5
 30
9.5
 11
82.1737
 21
24.5291
 31
9.5
  0
LINE
  5
BAA
330
A02
100
AcDbEntity
  8
Fusion
100
AcDbLine
 10
82.1737
 20
11.5
 30
6.3
 11
82.1737
 21
11.5
 31
9.5
  0
LINE
  5
BAB
330
A02
100
AcDbEntity
  8
Fusion
100
AcDbLine
 10
82.1737
 20
11.5
 30
6.3
 11
84.3812
 21
11.5
 31
6.3
  0
LINE
  5
BAC
330
A02
100
AcDbEntity
  8
Fusion
100
AcDbLine
 10
82.1737
 20
11.5
 30
6.3
 11
82.1737
 21
11.5
 31
9.5
  0
LINE
  5
BAD
330
A02
100
AcDbEntity
  8
Fusion
100
AcDbLine
 10
84.3812
 20
11.5
 30
9.5
 11
82.1737
 21
11.5
 31
9.5
  0
LINE
  5
BAE
330
A02
100
AcDbEntity
  8
Fusion
100
AcDbLine
 10
84.3812
 20
11.5
 30
6.3
 11
84.3812
 21
11.5
 31
9.5
  0
LINE
  5
BAF
330
A02
100
AcDbEntity
  8
Fusion
100
AcDbLine
 10
84.3812
 20
11.5
 30
6.3
 11
84.3812
 21
18.6057
 31
6.3
  0
LINE
  5
BB0
330
A02
100
AcDbEntity
  8
Fusion
100
AcDbLine
 10
84.3812
 20
11.5
 30
6.3
 11
84.3812
 21
11.5
 31
9.5
  0
LINE
  5
BB1
330
A02
100
AcDbEntity
  8
Fusion
100
AcDbLine
 10
84.3812
 20
18.6057
 30
9.5
 11
84.3812
 21
11.5
 31
9.5
  0
LINE
  5
BB2
330
A02
100
AcDbEntity
  8
Fusion
100
AcDbLine
 10
84.3812
 20
18.6057
 30
6.3
 11
84.3812
 21
18.6057
 31
9.5
  0
SPLINE
  5
BB3
330
A02
100
AcDbEntity
  8
Fusion
100
AcDbSpline
210
0
220
0
230
1
 70
8
 71
3
 72
11
 73
7
 74
0
 40
0
 40
0
 40
0
 40
0
 40
0.638697
 40
0.638697
 40
0.638697
 40
1
 40
1
 40
1
 40
1
 10
84.3812
 20
18.6057
 30
6.3
 10
84.3841
 20
19.3931
 30
6.3
 10
84.4481
 20
20.1903
 30
6.3
 10
84.7091
 20
20.9208
 30
6.3
 10
84.8577
 20
21.3306
 30
6.3
 10
85.0807
 20
21.7171
 30
6.3
 10
85.4048
 20
21.9995
 30
6.3
  0
LINE
  5
BB4
330
A02
100
AcDbEntity
  8
Fusion
100
AcDbLine
 10
84.3812
 20
18.6057
 30
6.3
 11
84.3812
 21
18.6057
 31
9.5
  0
SPLINE
  5
BB5
330
A02
100
AcDbEntity
  8
Fusion
100
AcDbSpline
210
0
220
0
230
1
 70
8
 71
2
 72
6
 73
3
 74
0
 40
0
 40
0
 40
0
 40
1
 40
1
 40
1
 10
85.4048
 20
21.9995
 30
9.5
 10
84.3812
 20
21.105
 30
9.5
 10
84.3812
 20
18.6057
 30
9.5
  0
LINE
  5
BB6
330
A02
100
AcDbEntity
  8
Fusion
100
AcDbLine
 10
85.4048
 20
21.9995
 30
6.3
 11
85.4048
 21
21.9995
 31
9.5
  0
SPLINE
  5
BB7
330
A02
100
AcDbEntity
  8
Fusion
100
AcDbSpline
210
0
220
0
230
1
 70
8
 71
3
 72
11
 73
7
 74
0
 40
0
 40
0
 40
0
 40
0
 40
0.423215
 40
0.423215
 40
0.423215
 40
1
 40
1
 40
1
 40
1
 10
85.4048
 20
21.9995
 30
6.3
 10
85.6889
 20
22.2491
 30
6.3
 10
86.0032
 20
22.449
 30
6.3
 10
86.3476
 20
22.5992
 30
6.3
 10
86.8147
 20
22.8019
 30
6.3
 10
87.3261
 20
22.8948
 30
6.3
 10
87.8396
 20
22.8939
 30
6.3
  0
LINE
  5
BB8
330
A02
100
AcDbEntity
  8
Fusion
100
AcDbLine
 10
85.4048
 20
21.9995
 30
6.3
 11
85.4048
 21
21.9995
 31
9.5
  0
SPLINE
  5
BB9
330
A02
100
AcDbEntity
  8
Fusion
100
AcDbSpline
210
0
220
0
230
1
 70
8
 71
2
 72
6
 73
3
 74
0
 40
0
 40
0
 40
0
 40
1
 40
1
 40
1
 10
87.8396
 20
22.8939
 30
9.5
 10
86.4292
 20
22.8939
 30
9.5
 10
85.4048
 20
21.9995
 30
9.5
  0
LINE
  5
BBA
330
A02
100
AcDbEntity
  8
Fusion
100
AcDbLine
 10
87.8396
 20
22.8939
 30
6.3
 11
87.8396
 21
22.8939
 31
9.5
  0
SPLINE
  5
BBB
330
A02
100
AcDbEntity
  8
Fusion
100
AcDbSpline
210
0
220
0
230
1
 70
8
 71
3
 72
8
 73
4
 74
0
 40
0
 40
0
 40
0
 40
0
 40
1
 40
1
 40
1
 40
1
 10
87.8396
 20
22.8939
 30
6.3
 10
88.3888
 20
22.8956
 30
6.3
 10
88.9258
 20
22.7727
 30
6.3
 10
89.3783
 20
22.4957
 30
6.3
  0
LINE
  5
BBC
330
A02
100
AcDbEntity
  8
Fusion
100
AcDbLine
 10
87.8396
 20
22.8939
 30
6.3
 11
87.8396
 21
22.8939
 31
9.5
  0
SPLINE
  5
BBD
330
A02
100
AcDbEntity
  8
Fusion
100
AcDbSpline
210
0
220
0
230
1
 70
8
 71
2
 72
6
 73
3
 74
0
 40
0
 40
0
 40
0
 40
1
 40
1
 40
1
 10
89.3783
 20
22.4957
 30
9.5
 10
88.7226
 20
22.8939
 30
9.5
 10
87.8396
 20
22.8939
 30
9.5
  0
LINE
  5
BBE
330
A02
100
AcDbEntity
  8
Fusion
100
AcDbLine
 10
89.3783
 20
22.4957
 30
6.3
 11
89.3783
 21
22.4957
 31
9.5
  0
SPLINE
  5
BBF
330
A02
100
AcDbEntity
  8
Fusion
100
AcDbSpline
210
0
220
0
230
1
 70
8
 71
3
 72
8
 73
4
 74
0
 40
0
 40
0
 40
0
 40
0
 40
1
 40
1
 40
1
 40
1
 10
89.3783
 20
22.4957
 30
6.3
 10
89.797
 20
22.2453
 30
6.3
 10
90.1233
 20
21.877
 30
6.3
 10
90.2923
 20
21.4296
 30
6.3
  0
LINE
  5
BC0
330
A02
100
AcDbEntity
  8
Fusion
100
AcDbLine
 10
89.3783
 20
22.4957
 30
6.3
 11
89.3783
 21
22.4957
 31
9.5
  0
SPLINE
  5
BC1
330
A02
100
AcDbEntity
  8
Fusion
100
AcDbSpline
210
0
220
0
230
1
 70
8
 71
2
 72
6
 73
3
 74
0
 40
0
 40
0
 40
0
 40
1
 40
1
 40
1
 10
90.2923
 20
21.4296
 30
9.5
 10
90.0348
 20
22.0976
 30
9.5
 10
89.3783
 20
22.4957
 30
9.5
  0
LINE
  5
BC2
330
A02
100
AcDbEntity
  8
Fusion
100
AcDbLine
 10
90.2923
 20
21.4296
 30
6.3
 11
90.2923
 21
21.4296
 31
9.5
  0
SPLINE
  5
BC3
330
A02
100
AcDbEntity
  8
Fusion
100
AcDbSpline
210
0
220
0
230
1
 70
8
 71
3
 72
11
 73
7
 74
0
 40
0
 40
0
 40
0
 40
0
 40
0.66419
 40
0.66419
 40
0.66419
 40
1
 40
1
 40
1
 40
1
 10
90.2923
 20
21.4296
 30
6.3
 10
90.4397
 20
21.041
 30
6.3
 10
90.4985
 20
20.5853
 30
6.3
 10
90.5291
 20
20.1251
 30
6.3
 10
90.5434
 20
19.8909
 30
6.3
 10
90.5503
 20
19.6539
 30
6.3
 10
90.5499
 20
19.4142
 30
6.3
  0
LINE
  5
BC4
330
A02
100
AcDbEntity
  8
Fusion
100
AcDbLine
 10
90.2923
 20
21.4296
 30
6.3
 11
90.2923
 21
21.4296
 31
9.5
  0
SPLINE
  5
BC5
330
A02
100
AcDbEntity
  8
Fusion
100
AcDbSpline
210
0
220
0
230
1
 70
8
 71
2
 72
6
 73
3
 74
0
 40
0
 40
0
 40
0
 40
1
 40
1
 40
1
 10
90.5499
 20
19.4142
 30
9.5
 10
90.5499
 20
20.7624
 30
9.5
 10
90.2923
 20
21.4296
 30
9.5
  0
LINE
  5
BC6
330
A02
100
AcDbEntity
  8
Fusion
100
AcDbLine
 10
90.5499
 20
19.4142
 30
6.3
 11
90.5499
 21
19.4142
 31
9.5
  0
LINE
  5
BC7
330
A02
100
AcDbEntity
  8
Fusion
100
AcDbLine
 10
90.5499
 20
19.4142
 30
6.3
 11
90.5499
 21
11.5
 31
6.3
  0
LINE
  5
BC8
330
A02
100
AcDbEntity
  8
Fusion
100
AcDbLine
 10
90.5499
 20
19.4142
 30
6.3
 11
90.5499
 21
19.4142
 31
9.5
  0
LINE
  5
BC9
330
A02
100
AcDbEntity
  8
Fusion
100
AcDbLine
 10
90.5499
 20
11.5
 30
9.5
 11
90.5499
 21
19.4142
 31
9.5
  0
LINE
  5
BCA
330
A02
100
AcDbEntity
  8
Fusion
100
AcDbLine
 10
90.5499
 20
11.5
 30
6.3
 11
90.5499
 21
11.5
 31
9.5
  0
LINE
  5
BCB
330
A02
100
AcDbEntity
  8
Fusion
100
AcDbLine
 10
90.5499
 20
11.5
 30
6.3
 11
92.7574
 21
11.5
 31
6.3
  0
LINE
  5
BCC
330
A02
100
AcDbEntity
  8
Fusion
100
AcDbLine
 10
90.5499
 20
11.5
 30
6.3
 11
90.5499
 21
11.5
 31
9.5
  0
LINE
  5
BCD
330
A02
100
AcDbEntity
  8
Fusion
100
AcDbLine
 10
92.7574
 20
11.5
 30
9.5
 11
90.5499
 21
11.5
 31
9.5
  0
LINE
  5
BCE
330
A02
100
AcDbEntity
  8
Fusion
100
AcDbLine
 10
92.7574
 20
11.5
 30
6.3
 11
92.7574
 21
11.5
 31
9.5
  0
LINE
  5
BCF
330
A02
100
AcDbEntity
  8
Fusion
100
AcDbLine
 10
92.7574
 20
11.5
 30
6.3
 11
92.7574
 21
19.4919
 31
6.3
  0
LINE
  5
BD0
330
A02
100
AcDbEntity
  8
Fusion
100
AcDbLine
 10
92.7574
 20
11.5
 30
6.3
 11
92.7574
 21
11.5
 31
9.5
  0
LINE
  5
BD1
330
A02
100
AcDbEntity
  8
Fusion
100
AcDbLine
 10
92.7574
 20
19.4919
 30
9.5
 11
92.7574
 21
11.5
 31
9.5
  0
LINE
  5
BD2
330
A02
100
AcDbEntity
  8
Fusion
100
AcDbLine
 10
92.7574
 20
19.4919
 30
6.3
 11
92.7574
 21
19.4919
 31
9.5
  0
SPLINE
  5
BD3
330
A02
100
AcDbEntity
  8
Fusion
100
AcDbSpline
210
0
220
0
230
1
 70
8
 71
3
 72
11
 73
7
 74
0
 40
0
 40
0
 40
0
 40
0
 40
0.66876
 40
0.66876
 40
0.66876
 40
1
 40
1
 40
1
 40
1
 10
92.7574
 20
19.4919
 30
6.3
 10
92.7569
 20
19.9955
 30
6.3
 10
92.7488
 20
20.4955
 30
6.3
 10
92.7152
 20
20.9694
 30
6.3
 10
92.6981
 20
21.2029
 30
6.3
 10
92.6747
 20
21.4313
 30
6.3
 10
92.6347
 20
21.6332
 30
6.3
  0
LINE
  5
BD4
330
A02
100
AcDbEntity
  8
Fusion
100
AcDbLine
 10
92.7574
 20
19.4919
 30
6.3
 11
92.7574
 21
19.4919
 31
9.5
  0
SPLINE
  5
BD5
330
A02
100
AcDbEntity
  8
Fusion
100
AcDbSpline
210
0
220
0
230
1
 70
8
 71
2
 72
6
 73
3
 74
0
 40
0
 40
0
 40
0
 40
1
 40
1
 40
1
 10
92.6347
 20
21.6332
 30
9.5
 10
92.7574
 20
21.0216
 30
9.5
 10
92.7574
 20
19.4919
 30
9.5
  0
LINE
  5
BD6
330
A02
100
AcDbEntity
  8
Fusion
100
AcDbLine
 10
92.6347
 20
21.6332
 30
6.3
 11
92.6347
 21
21.6332
 31
9.5
  0
SPLINE
  5
BD7
330
A02
100
AcDbEntity
  8
Fusion
100
AcDbSpline
210
0
220
0
230
1
 70
8
 71
3
 72
8
 73
4
 74
0
 40
0
 40
0
 40
0
 40
0
 40
1
 40
1
 40
1
 40
1
 10
92.6347
 20
21.6332
 30
6.3
 10
92.5125
 20
22.2242
 30
6.3
 10
92.2898
 20
22.785
 30
6.3
 10
91.9479
 20
23.261
 30
6.3
  0
LINE
  5
BD8
330
A02
100
AcDbEntity
  8
Fusion
100
AcDbLine
 10
92.6347
 20
21.6332
 30
6.3
 11
92.6347
 21
21.6332
 31
9.5
  0
SPLINE
  5
BD9
330
A02
100
AcDbEntity
  8
Fusion
100
AcDbSpline
210
0
220
0
230
1
 70
8
 71
2
 72
6
 73
3
 74
0
 40
0
 40
0
 40
0
 40
1
 40
1
 40
1
 10
91.9479
 20
23.261
 30
9.5
 10
92.4385
 20
22.5759
 30
9.5
 10
92.6347
 20
21.6332
 30
9.5
  0
LINE
  5
BDA
330
A02
100
AcDbEntity
  8
Fusion
100
AcDbLine
 10
91.9479
 20
23.261
 30
6.3
 11
91.9479
 21
23.261
 31
9.5
  0
SPLINE
  5
BDB
330
A02
100
AcDbEntity
  8
Fusion
100
AcDbSpline
210
0
220
0
230
1
 70
8
 71
3
 72
8
 73
4
 74
0
 40
0
 40
0
 40
0
 40
0
 40
1
 40
1
 40
1
 40
1
 10
91.9479
 20
23.261
 30
6.3
 10
91.5933
 20
23.7583
 30
6.3
 10
91.0579
 20
24.118
 30
6.3
 10
90.4697
 20
24.368
 30
6.3
  0
LINE
  5
BDC
330
A02
100
AcDbEntity
  8
Fusion
100
AcDbLine
 10
91.9479
 20
23.261
 30
6.3
 11
91.9479
 21
23.261
 31
9.5
  0
SPLINE
  5
BDD
330
A02
100
AcDbEntity
  8
Fusion
100
AcDbSpline
210
0
220
0
230
1
 70
8
 71
2
 72
6
 73
3
 74
0
 40
0
 40
0
 40
0
 40
1
 40
1
 40
1
 10
90.4697
 20
24.368
 30
9.5
 10
91.4574
 20
23.9461
 30
9.5
 10
91.9479
 20
23.261
 30
9.5
  0
LINE
  5
BDE
330
A02
100
AcDbEntity
  8
Fusion
100
AcDbLine
 10
90.4697
 20
24.368
 30
6.3
 11
90.4697
 21
24.368
 31
9.5
  0
SPLINE
  5
BDF
330
A02
100
AcDbEntity
  8
Fusion
100
AcDbSpline
210
0
220
0
230
1
 70
8
 71
3
 72
8
 73
4
 74
0
 40
0
 40
0
 40
0
 40
0
 40
1
 40
1
 40
1
 40
1
 10
90.4697
 20
24.368
 30
6.3
 10
89.7931
 20
24.6592
 30
6.3
 10
89.0523
 20
24.7919
 30
6.3
 10
88.3056
 20
24.7907
 30
6.3
  0
LINE
  5
BE0
330
A02
100
AcDbEntity
  8
Fusion
100
AcDbLine
 10
90.4697
 20
24.368
 30
6.3
 11
90.4697
 21
24.368
 31
9.5
  0
SPLINE
  5
BE1
330
A02
100
AcDbEntity
  8
Fusion
100
AcDbSpline
210
0
220
0
230
1
 70
8
 71
2
 72
6
 73
3
 74
0
 40
0
 40
0
 40
0
 40
1
 40
1
 40
1
 10
88.3056
 20
24.7907
 30
9.5
 10
89.4829
 20
24.7907
 30
9.5
 10
90.4697
 20
24.368
 30
9.5
  0
LINE
  5
BE2
330
A02
100
AcDbEntity
  8
Fusion
100
AcDbLine
 10
88.3056
 20
24.7907
 30
6.3
 11
88.3056
 21
24.7907
 31
9.5
  0
SPLINE
  5
BE3
330
A02
100
AcDbEntity
  8
Fusion
100
AcDbSpline
210
0
220
0
230
1
 70
8
 71
3
 72
11
 73
7
 74
0
 40
0
 40
0
 40
0
 40
0
 40
0.565833
 40
0.565833
 40
0.565833
 40
1
 40
1
 40
1
 40
1
 10
88.3056
 20
24.7907
 30
6.3
 10
87.3858
 20
24.7939
 30
6.3
 10
86.4542
 20
24.5966
 30
6.3
 10
85.666
 20
24.1204
 30
6.3
 10
85.0605
 20
23.7596
 30
6.3
 10
84.5534
 20
23.247
 30
6.3
 10
84.1604
 20
22.6609
 30
6.3
  0
LINE
  5
BE4
330
A02
100
AcDbEntity
  8
Fusion
100
AcDbLine
 10
88.3056
 20
24.7907
 30
6.3
 11
88.3056
 21
24.7907
 31
9.5
  0
SPLINE
  5
BE5
330
A02
100
AcDbEntity
  8
Fusion
100
AcDbSpline
210
0
220
0
230
1
 70
8
 71
2
 72
6
 73
3
 74
0
 40
0
 40
0
 40
0
 40
1
 40
1
 40
1
 10
84.1604
 20
22.6609
 30
9.5
 10
85.5953
 20
24.7907
 30
9.5
 10
88.3056
 20
24.7907
 30
9.5
  0
LINE
  5
BE6
330
A02
100
AcDbEntity
  8
Fusion
100
AcDbLine
 10
84.1604
 20
22.6609
 30
6.3
 11
84.1604
 21
22.6609
 31
9.5
  0
LINE
  5
BE7
330
A02
100
AcDbEntity
  8
Fusion
100
AcDbLine
 10
84.1604
 20
22.6609
 30
6.3
 11
84.1604
 21
24.5291
 31
6.3
  0
LINE
  5
BE8
330
A02
100
AcDbEntity
  8
Fusion
100
AcDbLine
 10
84.1604
 20
22.6609
 30
6.3
 11
84.1604
 21
22.6609
 31
9.5
  0
LINE
  5
BE9
330
A02
100
AcDbEntity
  8
Fusion
100
AcDbLine
 10
84.1604
 20
24.5291
 30
9.5
 11
84.1604
 21
22.6609
 31
9.5
  0
LINE
  5
BEA
330
A02
100
AcDbEntity
  8
Fusion
100
AcDbLine
 10
84.1604
 20
24.5291
 30
6.3
 11
84.1604
 21
24.5291
 31
9.5
  0
LINE
  5
BEB
330
A02
100
AcDbEntity
  8
Fusion
100
AcDbLine
 10
84.1604
 20
24.5291
 30
6.3
 11
82.1737
 21
24.5291
 31
6.3
  0
LINE
  5
BEC
330
A02
100
AcDbEntity
  8
Fusion
100
AcDbLine
 10
84.1604
 20
24.5291
 30
6.3
 11
84.1604
 21
24.5291
 31
9.5
  0
LINE
  5
BED
330
A02
100
AcDbEntity
  8
Fusion
100
AcDbLine
 10
82.1737
 20
24.5291
 30
9.5
 11
84.1604
 21
24.5291
 31
9.5
  0
LINE
  5
BEE
330
A02
100
AcDbEntity
  8
Fusion
100
AcDbLine
 10
82.1737
 20
24.5291
 30
6.3
 11
82.1737
 21
24.5291
 31
9.5
  0
SPLINE
  5
BEF
330
A02
100
AcDbEntity
  8
Fusion
100
AcDbSpline
210
0
220
0
230
1
 70
8
 71
3
 72
14
 73
10
 74
0
 40
0
 40
0
 40
0
 40
0
 40
0.326435
 40
0.326435
 40
0.326435
 40
0.569955
 40
0.569955
 40
0.569955
 40
1
 40
1
 40
1
 40
1
 10
111.305
 20
23.3501
 30
6.3
 10
110.82
 20
22.9336
 30
6.3
 10
110.418
 20
22.4238
 30
6.3
 10
110.118
 20
21.8595
 30
6.3
 10
109.894
 20
21.4361
 30
6.3
 10
109.72
 20
20.9923
 30
6.3
 10
109.597
 20
20.5282
 30
6.3
 10
109.376
 20
19.7122
 30
6.3
 10
109.294
 20
18.8618
 30
6.3
 10
109.294
 20
18.0145
 30
6.3
  0
LINE
  5
BF0
330
A02
100
AcDbEntity
  8
Fusion
100
AcDbLine
 10
111.305
 20
23.3501
 30
6.3
 11
111.305
 21
23.3501
 31
9.5
  0
SPLINE
  5
BF1
330
A02
100
AcDbEntity
  8
Fusion
100
AcDbSpline
210
0
220
0
230
1
 70
8
 71
2
 72
6
 73
3
 74
0
 40
0
 40
0
 40
0
 40
1
 40
1
 40
1
 10
109.294
 20
18.0145
 30
9.5
 10
109.294
 20
21.616
 30
9.5
 10
111.305
 20
23.3501
 30
9.5
  0
LINE
  5
BF2
330
A02
100
AcDbEntity
  8
Fusion
100
AcDbLine
 10
109.294
 20
18.0145
 30
6.3
 11
109.294
 21
18.0145
 31
9.5
  0
SPLINE
  5
BF3
330
A02
100
AcDbEntity
  8
Fusion
100
AcDbSpline
210
0
220
0
230
1
 70
8
 71
3
 72
11
 73
7
 74
0
 40
0
 40
0
 40
0
 40
0
 40
0.457372
 40
0.457372
 40
0.457372
 40
1
 40
1
 40
1
 40
1
 10
109.294
 20
18.0145
 30
6.3
 10
109.294
 20
17.1814
 30
6.3
 10
109.374
 20
16.3457
 30
6.3
 10
109.587
 20
15.5429
 30
6.3
 10
109.836
 20
14.5923
 30
6.3
 10
110.294
 20
13.6889
 30
6.3
 10
110.98
 20
12.9839
 30
6.3
  0
LINE
  5
BF4
330
A02
100
AcDbEntity
  8
Fusion
100
AcDbLine
 10
109.294
 20
18.0145
 30
6.3
 11
109.294
 21
18.0145
 31
9.5
  0
SPLINE
  5
BF5
330
A02
100
AcDbEntity
  8
Fusion
100
AcDbSpline
210
0
220
0
230
1
 70
8
 71
2
 72
6
 73
3
 74
0
 40
0
 40
0
 40
0
 40
1
 40
1
 40
1
 10
110.98
 20
12.9839
 30
9.5
 10
109.294
 20
14.7303
 30
9.5
 10
109.294
 20
18.0145
 30
9.5
  0
LINE
  5
BF6
330
A02
100
AcDbEntity
  8
Fusion
100
AcDbLine
 10
110.98
 20
12.9839
 30
6.3
 11
110.98
 21
12.9839
 31
9.5
  0
SPLINE
  5
BF7
330
A02
100
AcDbEntity
  8
Fusion
100
AcDbSpline
210
0
220
0
230
1
 70
8
 71
3
 72
11
 73
7
 74
0
 40
0
 40
0
 40
0
 40
0
 40
0.590244
 40
0.590244
 40
0.590244
 40
1
 40
1
 40
1
 40
1
 10
110.98
 20
12.9839
 30
6.3
 10
111.646
 20
12.2884
 30
6.3
 10
112.493
 20
11.7742
 30
6.3
 10
113.418
 20
11.5066
 30
6.3
 10
114.059
 20
11.3176
 30
6.3
 10
114.731
 20
11.2382
 30
6.3
 10
115.401
 20
11.2384
 30
6.3
  0
LINE
  5
BF8
330
A02
100
AcDbEntity
  8
Fusion
100
AcDbLine
 10
110.98
 20
12.9839
 30
6.3
 11
110.98
 21
12.9839
 31
9.5
  0
SPLINE
  5
BF9
330
A02
100
AcDbEntity
  8
Fusion
100
AcDbSpline
210
0
220
0
230
1
 70
8
 71
2
 72
6
 73
3
 74
0
 40
0
 40
0
 40
0
 40
1
 40
1
 40
1
 10
115.401
 20
11.2384
 30
9.5
 10
112.666
 20
11.2384
 30
9.5
 10
110.98
 20
12.9839
 30
9.5
  0
LINE
  5
BFA
330
A02
100
AcDbEntity
  8
Fusion
100
AcDbLine
 10
115.401
 20
11.2384
 30
6.3
 11
115.401
 21
11.2384
 31
9.5
  0
SPLINE
  5
BFB
330
A02
100
AcDbEntity
  8
Fusion
100
AcDbSpline
210
0
220
0
230
1
 70
8
 71
3
 72
8
 73
4
 74
0
 40
0
 40
0
 40
0
 40
0
 40
1
 40
1
 40
1
 40
1
 10
115.401
 20
11.2384
 30
6.3
 10
116.498
 20
11.234
 30
6.3
 10
117.59
 20
11.4996
 30
6.3
 10
118.547
 20
12.0314
 30
6.3
  0
LINE
  5
BFC
330
A02
100
AcDbEntity
  8
Fusion
100
AcDbLine
 10
115.401
 20
11.2384
 30
6.3
 11
115.401
 21
11.2384
 31
9.5
  0
SPLINE
  5
BFD
330
A02
100
AcDbEntity
  8
Fusion
100
AcDbSpline
210
0
220
0
230
1
 70
8
 71
2
 72
6
 73
3
 74
0
 40
0
 40
0
 40
0
 40
1
 40
1
 40
1
 10
118.547
 20
12.0314
 30
9.5
 10
117.106
 20
11.2384
 30
9.5
 10
115.401
 20
11.2384
 30
9.5
  0
LINE
  5
BFE
330
A02
100
AcDbEntity
  8
Fusion
100
AcDbLine
 10
118.547
 20
12.0314
 30
6.3
 11
118.547
 21
12.0314
 31
9.5
  0
SPLINE
  5
BFF
330
A02
100
AcDbEntity
  8
Fusion
100
AcDbSpline
210
0
220
0
230
1
 70
8
 71
3
 72
11
 73
7
 74
0
 40
0
 40
0
 40
0
 40
0
 40
0.547189
 40
0.547189
 40
0.547189
 40
1
 40
1
 40
1
 40
1
 10
118.547
 20
12.0314
 30
6.3
 10
119.055
 20
12.3111
 30
6.3
 10
119.522
 20
12.6658
 30
6.3
 10
119.916
 20
13.0894
 30
6.3
 10
120.243
 20
13.4421
 30
6.3
 10
120.518
 20
13.8324
 30
6.3
 10
120.742
 20
14.2602
 30
6.3
  0
LINE
  5
C00
330
A02
100
AcDbEntity
  8
Fusion
100
AcDbLine
 10
118.547
 20
12.0314
 30
6.3
 11
118.547
 21
12.0314
 31
9.5
  0
SPLINE
  5
C01
330
A02
100
AcDbEntity
  8
Fusion
100
AcDbSpline
210
0
220
0
230
1
 70
8
 71
2
 72
6
 73
3
 74
0
 40
0
 40
0
 40
0
 40
1
 40
1
 40
1
 10
120.742
 20
14.2602
 30
9.5
 10
119.988
 20
12.8253
 30
9.5
 10
118.547
 20
12.0314
 30
9.5
  0
LINE
  5
C02
330
A02
100
AcDbEntity
  8
Fusion
100
AcDbLine
 10
120.742
 20
14.2602
 30
6.3
 11
120.742
 21
14.2602
 31
9.5
  0
SPLINE
  5
C03
330
A02
100
AcDbEntity
  8
Fusion
100
AcDbSpline
210
0
220
0
230
1
 70
8
 71
3
 72
11
 73
7
 74
0
 40
0
 40
0
 40
0
 40
0
 40
0.399934
 40
0.399934
 40
0.399934
 40
1
 40
1
 40
1
 40
1
 10
120.742
 20
14.2602
 30
6.3
 10
120.989
 20
14.731
 30
6.3
 10
121.155
 20
15.2456
 30
6.3
 10
121.269
 20
15.7716
 30
6.3
 10
121.439
 20
16.5626
 30
6.3
 10
121.496
 20
17.3803
 30
6.3
 10
121.496
 20
18.1977
 30
6.3
  0
LINE
  5
C04
330
A02
100
AcDbEntity
  8
Fusion
100
AcDbLine
 10
120.742
 20
14.2602
 30
6.3
 11
120.742
 21
14.2602
 31
9.5
  0
SPLINE
  5
C05
330
A02
100
AcDbEntity
  8
Fusion
100
AcDbSpline
210
0
220
0
230
1
 70
8
 71
2
 72
6
 73
3
 74
0
 40
0
 40
0
 40
0
 40
1
 40
1
 40
1
 10
121.496
 20
18.1977
 30
9.5
 10
121.496
 20
15.695
 30
9.5
 10
120.742
 20
14.2602
 30
9.5
  0
LINE
  5
C06
330
A02
100
AcDbEntity
  8
Fusion
100
AcDbLine
 10
121.496
 20
18.1977
 30
6.3
 11
121.496
 21
18.1977
 31
9.5
  0
SPLINE
  5
C07
330
A02
100
AcDbEntity
  8
Fusion
100
AcDbSpline
210
0
220
0
230
1
 70
8
 71
3
 72
14
 73
10
 74
0
 40
0
 40
0
 40
0
 40
0
 40
0.384244
 40
0.384244
 40
0.384244
 40
0.643174
 40
0.643174
 40
0.643174
 40
1
 40
1
 40
1
 40
1
 10
121.496
 20
18.1977
 30
6.3
 10
121.496
 20
18.8752
 30
6.3
 10
121.435
 20
19.5535
 30
6.3
 10
121.284
 20
20.2118
 30
6.3
 10
121.183
 20
20.6572
 30
6.3
 10
121.038
 20
21.0867
 30
6.3
 10
120.847
 20
21.5004
 30
6.3
 10
120.585
 20
22.0679
 30
6.3
 10
120.228
 20
22.5912
 30
6.3
 10
119.792
 20
23.0386
 30
6.3
  0
LINE
  5
C08
330
A02
100
AcDbEntity
  8
Fusion
100
AcDbLine
 10
121.496
 20
18.1977
 30
6.3
 11
121.496
 21
18.1977
 31
9.5
  0
SPLINE
  5
C09
330
A02
100
AcDbEntity
  8
Fusion
100
AcDbSpline
210
0
220
0
230
1
 70
8
 71
2
 72
6
 73
3
 74
0
 40
0
 40
0
 40
0
 40
1
 40
1
 40
1
 10
119.792
 20
23.0386
 30
9.5
 10
121.496
 20
21.2865
 30
9.5
 10
121.496
 20
18.1977
 30
9.5
  0
LINE
  5
C0A
330
A02
100
AcDbEntity
  8
Fusion
100
AcDbLine
 10
119.792
 20
23.0386
 30
6.3
 11
119.792
 21
23.0386
 31
9.5
  0
SPLINE
  5
C0B
330
A02
100
AcDbEntity
  8
Fusion
100
AcDbSpline
210
0
220
0
230
1
 70
8
 71
3
 72
11
 73
7
 74
0
 40
0
 40
0
 40
0
 40
0
 40
0.619179
 40
0.619179
 40
0.619179
 40
1
 40
1
 40
1
 40
1
 10
119.792
 20
23.0386
 30
6.3
 10
119.095
 20
23.7621
 30
6.3
 10
118.206
 20
24.294
 30
6.3
 10
117.236
 20
24.556
 30
6.3
 10
116.64
 20
24.7203
 30
6.3
 10
116.021
 20
24.7909
 30
6.3
 10
115.401
 20
24.7907
 30
6.3
  0
LINE
  5
C0C
330
A02
100
AcDbEntity
  8
Fusion
100
AcDbLine
 10
119.792
 20
23.0386
 30
6.3
 11
119.792
 21
23.0386
 31
9.5
  0
SPLINE
  5
C0D
330
A02
100
AcDbEntity
  8
Fusion
100
AcDbSpline
210
0
220
0
230
1
 70
8
 71
2
 72
6
 73
3
 74
0
 40
0
 40
0
 40
0
 40
1
 40
1
 40
1
 10
115.401
 20
24.7907
 30
9.5
 10
118.087
 20
24.7907
 30
9.5
 10
119.792
 20
23.0386
 30
9.5
  0
LINE
  5
C0E
330
A02
100
AcDbEntity
  8
Fusion
100
AcDbLine
 10
115.401
 20
24.7907
 30
6.3
 11
115.401
 21
24.7907
 31
9.5
  0
SPLINE
  5
C0F
330
A02
100
AcDbEntity
  8
Fusion
100
AcDbSpline
210
0
220
0
230
1
 70
8
 71
3
 72
11
 73
7
 74
0
 40
0
 40
0
 40
0
 40
0
 40
0.685513
 40
0.685513
 40
0.685513
 40
1
 40
1
 40
1
 40
1
 10
115.401
 20
24.7907
 30
6.3
 10
114.385
 20
24.7934
 30
6.3
 10
113.363
 20
24.5906
 30
6.3
 10
112.46
 20
24.1265
 30
6.3
 10
112.044
 20
23.9137
 30
6.3
 10
111.66
 20
23.6549
 30
6.3
 10
111.305
 20
23.3501
 30
6.3
  0
LINE
  5
C10
330
A02
100
AcDbEntity
  8
Fusion
100
AcDbLine
 10
115.401
 20
24.7907
 30
6.3
 11
115.401
 21
24.7907
 31
9.5
  0
SPLINE
  5
C11
330
A02
100
AcDbEntity
  8
Fusion
100
AcDbSpline
210
0
220
0
230
1
 70
8
 71
2
 72
6
 73
3
 74
0
 40
0
 40
0
 40
0
 40
1
 40
1
 40
1
 10
111.305
 20
23.3501
 30
9.5
 10
112.985
 20
24.7907
 30
9.5
 10
115.401
 20
24.7907
 30
9.5
  0
LINE
  5
C12
330
A02
100
AcDbEntity
  8
Fusion
100
AcDbLine
 10
111.305
 20
23.3501
 30
6.3
 11
111.305
 21
23.3501
 31
9.5
  0
LINE
  5
C13
330
A02
100
AcDbEntity
  8
Fusion
100
AcDbLine
 10
95.7399
 20
10.4535
 30
9.5
 11
97.8861
 21
10.1395
 31
9.5
  0
SPLINE
  5
C14
330
A02
100
AcDbEntity
  8
Fusion
100
AcDbSpline
210
0
220
0
230
1
 70
8
 71
2
 72
6
 73
3
 74
0
 40
0
 40
0
 40
0
 40
1
 40
1
 40
1
 10
97.1257
 20
7.3115
 30
9.5
 10
95.6909
 20
8.35474
 30
9.5
 10
95.7399
 20
10.4535
 30
9.5
  0
SPLINE
  5
C15
330
A02
100
AcDbEntity
  8
Fusion
100
AcDbSpline
210
0
220
0
230
1
 70
8
 71
2
 72
6
 73
3
 74
0
 40
0
 40
0
 40
0
 40
1
 40
1
 40
1
 10
100.891
 20
6.26744
 30
9.5
 10
98.5606
 20
6.26744
 30
9.5
 10
97.1257
 20
7.3115
 30
9.5
  0
SPLINE
  5
C16
330
A02
100
AcDbEntity
  8
Fusion
100
AcDbSpline
210
0
220
0
230
1
 70
8
 71
2
 72
6
 73
3
 74
0
 40
0
 40
0
 40
0
 40
1
 40
1
 40
1
 10
104.195
 20
7.00164
 30
9.5
 10
102.853
 20
6.26744
 30
9.5
 10
100.891
 20
6.26744
 30
9.5
  0
SPLINE
  5
C17
330
A02
100
AcDbEntity
  8
Fusion
100
AcDbSpline
210
0
220
0
230
1
 70
8
 71
2
 72
6
 73
3
 74
0
 40
0
 40
0
 40
0
 40
1
 40
1
 40
1
 10
106.158
 20
9.00145
 30
9.5
 10
105.539
 20
7.73501
 30
9.5
 10
104.195
 20
7.00164
 30
9.5
  0
SPLINE
  5
C18
330
A02
100
AcDbEntity
  8
Fusion
100
AcDbSpline
210
0
220
0
230
1
 70
8
 71
2
 72
6
 73
3
 74
0
 40
0
 40
0
 40
0
 40
1
 40
1
 40
1
 10
106.777
 20
13.3003
 30
9.5
 10
106.777
 20
10.2671
 30
9.5
 10
106.158
 20
9.00145
 30
9.5
  0
LINE
  5
C19
330
A02
100
AcDbEntity
  8
Fusion
100
AcDbLine
 10
106.777
 20
24.5291
 30
9.5
 11
106.777
 21
13.3003
 31
9.5
  0
LINE
  5
C1A
330
A02
100
AcDbEntity
  8
Fusion
100
AcDbLine
 10
104.742
 20
24.5291
 30
9.5
 11
106.777
 21
24.5291
 31
9.5
  0
LINE
  5
C1B
330
A02
100
AcDbEntity
  8
Fusion
100
AcDbLine
 10
104.742
 20
22.9094
 30
9.5
 11
104.742
 21
24.5291
 31
9.5
  0
SPLINE
  5
C1C
330
A02
100
AcDbEntity
  8
Fusion
100
AcDbSpline
210
0
220
0
230
1
 70
8
 71
2
 72
6
 73
3
 74
0
 40
0
 40
0
 40
0
 40
1
 40
1
 40
1
 10
100.94
 20
24.7907
 30
9.5
 10
103.245
 20
24.7907
 30
9.5
 10
104.742
 20
22.9094
 30
9.5
  0
SPLINE
  5
C1D
330
A02
100
AcDbEntity
  8
Fusion
100
AcDbSpline
210
0
220
0
230
1
 70
8
 71
2
 72
6
 73
3
 74
0
 40
0
 40
0
 40
0
 40
1
 40
1
 40
1
 10
97.9286
 20
23.9339
 30
9.5
 10
99.2106
 20
24.7907
 30
9.5
 10
100.94
 20
24.7907
 30
9.5
  0
SPLINE
  5
C1E
330
A02
100
AcDbEntity
  8
Fusion
100
AcDbSpline
210
0
220
0
230
1
 70
8
 71
2
 72
6
 73
3
 74
0
 40
0
 40
0
 40
0
 40
1
 40
1
 40
1
 10
95.9729
 20
21.504
 30
9.5
 10
96.6474
 20
23.077
 30
9.5
 10
97.9286
 20
23.9339
 30
9.5
  0
SPLINE
  5
C1F
330
A02
100
AcDbEntity
  8
Fusion
100
AcDbSpline
210
0
220
0
230
1
 70
8
 71
2
 72
6
 73
3
 74
0
 40
0
 40
0
 40
0
 40
1
 40
1
 40
1
 10
95.2984
 20
18.0718
 30
9.5
 10
95.2984
 20
19.9318
 30
9.5
 10
95.9729
 20
21.504
 30
9.5
  0
SPLINE
  5
C20
330
A02
100
AcDbEntity
  8
Fusion
100
AcDbSpline
210
0
220
0
230
1
 70
8
 71
2
 72
6
 73
3
 74
0
 40
0
 40
0
 40
0
 40
1
 40
1
 40
1
 10
96.7701
 20
13.4336
 30
9.5
 10
95.2984
 20
15.3672
 30
9.5
 10
95.2984
 20
18.0718
 30
9.5
  0
SPLINE
  5
C21
330
A02
100
AcDbEntity
  8
Fusion
100
AcDbSpline
210
0
220
0
230
1
 70
8
 71
2
 72
6
 73
3
 74
0
 40
0
 40
0
 40
0
 40
1
 40
1
 40
1
 10
100.928
 20
11.5
 30
9.5
 10
98.2417
 20
11.5
 30
9.5
 10
96.7701
 20
13.4336
 30
9.5
  0
SPLINE
  5
C22
330
A02
100
AcDbEntity
  8
Fusion
100
AcDbSpline
210
0
220
0
230
1
 70
8
 71
2
 72
6
 73
3
 74
0
 40
0
 40
0
 40
0
 40
1
 40
1
 40
1
 10
104.533
 20
13.221
 30
9.5
 10
103.086
 20
11.5
 30
9.5
 10
100.928
 20
11.5
 30
9.5
  0
SPLINE
  5
C23
330
A02
100
AcDbEntity
  8
Fusion
100
AcDbSpline
210
0
220
0
230
1
 70
8
 71
2
 72
6
 73
3
 74
0
 40
0
 40
0
 40
0
 40
1
 40
1
 40
1
 10
104.374
 20
10.4175
 30
9.5
 10
104.545
 20
11.0855
 30
9.5
 10
104.533
 20
13.221
 30
9.5
  0
SPLINE
  5
C24
330
A02
100
AcDbEntity
  8
Fusion
100
AcDbSpline
210
0
220
0
230
1
 70
8
 71
2
 72
6
 73
3
 74
0
 40
0
 40
0
 40
0
 40
1
 40
1
 40
1
 10
103.245
 20
8.71857
 30
9.5
 10
104.079
 20
9.32522
 30
9.5
 10
104.374
 20
10.4175
 30
9.5
  0
SPLINE
  5
C25
330
A02
100
AcDbEntity
  8
Fusion
100
AcDbSpline
210
0
220
0
230
1
 70
8
 71
2
 72
6
 73
3
 74
0
 40
0
 40
0
 40
0
 40
1
 40
1
 40
1
 10
100.878
 20
8.11192
 30
9.5
 10
102.411
 20
8.11192
 30
9.5
 10
103.245
 20
8.71857
 30
9.5
  0
SPLINE
  5
C26
330
A02
100
AcDbEntity
  8
Fusion
100
AcDbSpline
210
0
220
0
230
1
 70
8
 71
2
 72
6
 73
3
 74
0
 40
0
 40
0
 40
0
 40
1
 40
1
 40
1
 10
98.6342
 20
8.7153
 30
9.5
 10
99.4559
 20
8.11192
 30
9.5
 10
100.878
 20
8.11192
 30
9.5
  0
SPLINE
  5
C27
330
A02
100
AcDbEntity
  8
Fusion
100
AcDbSpline
210
0
220
0
230
1
 70
8
 71
2
 72
6
 73
3
 74
0
 40
0
 40
0
 40
0
 40
1
 40
1
 40
1
 10
97.8861
 20
10.1395
 30
9.5
 10
98.021
 20
9.1617
 30
9.5
 10
98.6342
 20
8.7153
 30
9.5
  0
SPLINE
  5
C28
330
A02
100
AcDbEntity
  8
Fusion
100
AcDbSpline
210
0
220
0
230
1
 70
8
 71
2
 72
6
 73
3
 74
0
 40
0
 40
0
 40
0
 40
1
 40
1
 40
1
 10
97.5672
 20
18.2304
 30
9.5
 10
97.5672
 20
15.6836
 30
9.5
 10
98.5851
 20
14.5136
 30
9.5
  0
SPLINE
  5
C29
330
A02
100
AcDbEntity
  8
Fusion
100
AcDbSpline
210
0
220
0
230
1
 70
8
 71
2
 72
6
 73
3
 74
0
 40
0
 40
0
 40
0
 40
1
 40
1
 40
1
 10
98.5974
 20
21.7583
 30
9.5
 10
97.5672
 20
20.5703
 30
9.5
 10
97.5672
 20
18.2304
 30
9.5
  0
SPLINE
  5
C2A
330
A02
100
AcDbEntity
  8
Fusion
100
AcDbSpline
210
0
220
0
230
1
 70
8
 71
2
 72
6
 73
3
 74
0
 40
0
 40
0
 40
0
 40
1
 40
1
 40
1
 10
101.099
 20
22.9462
 30
9.5
 10
99.6275
 20
22.9462
 30
9.5
 10
98.5974
 20
21.7583
 30
9.5
  0
SPLINE
  5
C2B
330
A02
100
AcDbEntity
  8
Fusion
100
AcDbSpline
210
0
220
0
230
1
 70
8
 71
2
 72
6
 73
3
 74
0
 40
0
 40
0
 40
0
 40
1
 40
1
 40
1
 10
103.656
 20
21.7395
 30
9.5
 10
102.595
 20
22.9462
 30
9.5
 10
101.099
 20
22.9462
 30
9.5
  0
SPLINE
  5
C2C
330
A02
100
AcDbEntity
  8
Fusion
100
AcDbSpline
210
0
220
0
230
1
 70
8
 71
2
 72
6
 73
3
 74
0
 40
0
 40
0
 40
0
 40
1
 40
1
 40
1
 10
104.717
 20
18.1576
 30
9.5
 10
104.717
 20
20.5335
 30
9.5
 10
103.656
 20
21.7395
 30
9.5
  0
SPLINE
  5
C2D
330
A02
100
AcDbEntity
  8
Fusion
100
AcDbSpline
210
0
220
0
230
1
 70
8
 71
2
 72
6
 73
3
 74
0
 40
0
 40
0
 40
0
 40
1
 40
1
 40
1
 10
103.687
 20
14.5079
 30
9.5
 10
104.717
 20
15.6721
 30
9.5
 10
104.717
 20
18.1576
 30
9.5
  0
SPLINE
  5
C2E
330
A02
100
AcDbEntity
  8
Fusion
100
AcDbSpline
210
0
220
0
230
1
 70
8
 71
2
 72
6
 73
3
 74
0
 40
0
 40
0
 40
0
 40
1
 40
1
 40
1
 10
101.136
 20
13.3445
 30
9.5
 10
102.657
 20
13.3445
 30
9.5
 10
103.687
 20
14.5079
 30
9.5
  0
SPLINE
  5
C2F
330
A02
100
AcDbEntity
  8
Fusion
100
AcDbSpline
210
0
220
0
230
1
 70
8
 71
2
 72
6
 73
3
 74
0
 40
0
 40
0
 40
0
 40
1
 40
1
 40
1
 10
98.5851
 20
14.5136
 30
9.5
 10
99.603
 20
13.3445
 30
9.5
 10
101.136
 20
13.3445
 30
9.5
  0
LINE
  5
C30
330
A02
100
AcDbEntity
  8
Fusion
100
AcDbLine
 10
41
 20
11.5
 30
9.5
 11
41
 21
29.5
 31
9.5
  0
LINE
  5
C31
330
A02
100
AcDbEntity
  8
Fusion
100
AcDbLine
 10
43.3792
 20
11.5
 30
9.5
 11
41
 21
11.5
 31
9.5
  0
LINE
  5
C32
330
A02
100
AcDbEntity
  8
Fusion
100
AcDbLine
 10
43.3792
 20
29.5
 30
9.5
 11
43.3792
 21
11.5
 31
9.5
  0
LINE
  5
C33
330
A02
100
AcDbEntity
  8
Fusion
100
AcDbLine
 10
41
 20
29.5
 30
9.5
 11
43.3792
 21
29.5
 31
9.5
  0
LINE
  5
C34
330
A02
100
AcDbEntity
  8
Fusion
100
AcDbLine
 10
52.0922
 20
13.4491
 30
9.5
 11
52.4111
 21
11.5
 31
9.5
  0
SPLINE
  5
C35
330
A02
100
AcDbEntity
  8
Fusion
100
AcDbSpline
210
0
220
0
230
1
 70
8
 71
2
 72
6
 73
3
 74
0
 40
0
 40
0
 40
0
 40
1
 40
1
 40
1
 10
51.1234
 20
13.3706
 30
9.5
 10
51.4913
 20
13.3706
 30
9.5
 10
52.0922
 20
13.4491
 30
9.5
  0
SPLINE
  5
C36
330
A02
100
AcDbEntity
  8
Fusion
100
AcDbSpline
210
0
220
0
230
1
 70
8
 71
2
 72
6
 73
3
 74
0
 40
0
 40
0
 40
0
 40
1
 40
1
 40
1
 10
50.3687
 20
13.5301
 30
9.5
 10
50.6328
 20
13.3706
 30
9.5
 10
51.1234
 20
13.3706
 30
9.5
  0
SPLINE
  5
C37
330
A02
100
AcDbEntity
  8
Fusion
100
AcDbSpline
210
0
220
0
230
1
 70
8
 71
2
 72
6
 73
3
 74
0
 40
0
 40
0
 40
0
 40
1
 40
1
 40
1
 10
49.9886
 20
13.9609
 30
9.5
 10
50.1055
 20
13.6903
 30
9.5
 10
50.3687
 20
13.5301
 30
9.5
  0
SPLINE
  5
C38
330
A02
100
AcDbEntity
  8
Fusion
100
AcDbSpline
210
0
220
0
230
1
 70
8
 71
2
 72
6
 73
3
 74
0
 40
0
 40
0
 40
0
 40
1
 40
1
 40
1
 10
49.8725
 20
15.1783
 30
9.5
 10
49.8725
 20
14.2316
 30
9.5
 10
49.9886
 20
13.9609
 30
9.5
  0
LINE
  5
C39
330
A02
100
AcDbEntity
  8
Fusion
100
AcDbLine
 10
49.8725
 20
22.8154
 30
9.5
 11
49.8725
 21
15.1783
 31
9.5
  0
LINE
  5
C3A
330
A02
100
AcDbEntity
  8
Fusion
100
AcDbLine
 10
52.0922
 20
22.8154
 30
9.5
 11
49.8725
 21
22.8154
 31
9.5
  0
LINE
  5
C3B
330
A02
100
AcDbEntity
  8
Fusion
100
AcDbLine
 10
52.0922
 20
24.5291
 30
9.5
 11
52.0922
 21
22.8154
 31
9.5
  0
LINE
  5
C3C
330
A02
100
AcDbEntity
  8
Fusion
100
AcDbLine
 10
49.8725
 20
24.5291
 30
9.5
 11
52.0922
 21
24.5291
 31
9.5
  0
LINE
  5
C3D
330
A02
100
AcDbEntity
  8
Fusion
100
AcDbLine
 10
49.8725
 20
29.0814
 30
9.5
 11
49.8725
 21
24.5291
 31
9.5
  0
LINE
  5
C3E
330
A02
100
AcDbEntity
  8
Fusion
100
AcDbLine
 10
47.6772
 20
27.7561
 30
9.5
 11
49.8725
 21
29.0814
 31
9.5
  0
LINE
  5
C3F
330
A02
100
AcDbEntity
  8
Fusion
100
AcDbLine
 10
47.6772
 20
24.5291
 30
9.5
 11
47.6772
 21
27.7561
 31
9.5
  0
LINE
  5
C40
330
A02
100
AcDbEntity
  8
Fusion
100
AcDbLine
 10
46.0584
 20
24.5291
 30
9.5
 11
47.6772
 21
24.5291
 31
9.5
  0
LINE
  5
C41
330
A02
100
AcDbEntity
  8
Fusion
100
AcDbLine
 10
46.0584
 20
22.8154
 30
9.5
 11
46.0584
 21
24.5291
 31
9.5
  0
LINE
  5
C42
330
A02
100
AcDbEntity
  8
Fusion
100
AcDbLine
 10
47.6772
 20
22.8154
 30
9.5
 11
46.0584
 21
22.8154
 31
9.5
  0
LINE
  5
C43
330
A02
100
AcDbEntity
  8
Fusion
100
AcDbLine
 10
47.6772
 20
15.3263
 30
9.5
 11
47.6772
 21
22.8154
 31
9.5
  0
SPLINE
  5
C44
330
A02
100
AcDbEntity
  8
Fusion
100
AcDbSpline
210
0
220
0
230
1
 70
8
 71
2
 72
6
 73
3
 74
0
 40
0
 40
0
 40
0
 40
1
 40
1
 40
1
 10
47.947
 20
12.7215
 30
9.5
 10
47.6772
 20
13.3412
 30
9.5
 10
47.6772
 20
15.3263
 30
9.5
  0
SPLINE
  5
C45
330
A02
100
AcDbEntity
  8
Fusion
100
AcDbSpline
210
0
220
0
230
1
 70
8
 71
2
 72
6
 73
3
 74
0
 40
0
 40
0
 40
0
 40
1
 40
1
 40
1
 10
48.8791
 20
11.7224
 30
9.5
 10
48.2168
 20
12.1026
 30
9.5
 10
47.947
 20
12.7215
 30
9.5
  0
SPLINE
  5
C46
330
A02
100
AcDbEntity
  8
Fusion
100
AcDbSpline
210
0
220
0
230
1
 70
8
 71
2
 72
6
 73
3
 74
0
 40
0
 40
0
 40
0
 40
1
 40
1
 40
1
 10
50.7432
 20
11.343
 30
9.5
 10
49.5413
 20
11.343
 30
9.5
 10
48.8791
 20
11.7224
 30
9.5
  0
SPLINE
  5
C47
330
A02
100
AcDbEntity
  8
Fusion
100
AcDbSpline
210
0
220
0
230
1
 70
8
 71
2
 72
6
 73
3
 74
0
 40
0
 40
0
 40
0
 40
1
 40
1
 40
1
 10
52.4111
 20
11.5
 30
9.5
 10
51.479
 20
11.343
 30
9.5
 10
50.7432
 20
11.343
 30
9.5
  0
LINE
  5
C48
330
A02
100
AcDbEntity
  8
Fusion
100
AcDbLine
 10
62.6816
 20
11.5
 30
9.5
 11
62.6816
 21
13.1434
 31
9.5
  0
LINE
  5
C49
330
A02
100
AcDbEntity
  8
Fusion
100
AcDbLine
 10
64.7297
 20
11.5
 30
9.5
 11
62.6816
 21
11.5
 31
9.5
  0
LINE
  5
C4A
330
A02
100
AcDbEntity
  8
Fusion
100
AcDbLine
 10
64.7297
 20
29.5
 30
9.5
 11
64.7297
 21
11.5
 31
9.5
  0
LINE
  5
C4B
330
A02
100
AcDbEntity
  8
Fusion
100
AcDbLine
 10
62.5344
 20
29.5
 30
9.5
 11
64.7297
 21
29.5
 31
9.5
  0
LINE
  5
C4C
330
A02
100
AcDbEntity
  8
Fusion
100
AcDbLine
 10
62.5344
 20
23.028
 30
9.5
 11
62.5344
 21
29.5
 31
9.5
  0
SPLINE
  5
C4D
330
A02
100
AcDbEntity
  8
Fusion
100
AcDbSpline
210
0
220
0
230
1
 70
8
 71
2
 72
6
 73
3
 74
0
 40
0
 40
0
 40
0
 40
1
 40
1
 40
1
 10
61.0382
 20
24.3018
 30
9.5
 10
61.958
 20
23.8129
 30
9.5
 10
62.5344
 20
23.028
 30
9.5
  0
SPLINE
  5
C4E
330
A02
100
AcDbEntity
  8
Fusion
100
AcDbSpline
210
0
220
0
230
1
 70
8
 71
2
 72
6
 73
3
 74
0
 40
0
 40
0
 40
0
 40
1
 40
1
 40
1
 10
58.9411
 20
24.7907
 30
9.5
 10
60.1185
 20
24.7907
 30
9.5
 10
61.0382
 20
24.3018
 30
9.5
  0
SPLINE
  5
C4F
330
A02
100
AcDbEntity
  8
Fusion
100
AcDbSpline
210
0
220
0
230
1
 70
8
 71
2
 72
6
 73
3
 74
0
 40
0
 40
0
 40
0
 40
1
 40
1
 40
1
 10
56.0346
 20
23.9478
 30
9.5
 10
57.3346
 20
24.7907
 30
9.5
 10
58.9411
 20
24.7907
 30
9.5
  0
SPLINE
  5
C50
330
A02
100
AcDbEntity
  8
Fusion
100
AcDbSpline
210
0
220
0
230
1
 70
8
 71
2
 72
6
 73
3
 74
0
 40
0
 40
0
 40
0
 40
1
 40
1
 40
1
 10
54.0847
 20
21.5244
 30
9.5
 10
54.7346
 20
23.1057
 30
9.5
 10
56.0346
 20
23.9478
 30
9.5
  0
SPLINE
  5
C51
330
A02
100
AcDbEntity
  8
Fusion
100
AcDbSpline
210
0
220
0
230
1
 70
8
 71
2
 72
6
 73
3
 74
0
 40
0
 40
0
 40
0
 40
1
 40
1
 40
1
 10
53.4347
 20
18.0023
 30
9.5
 10
53.4347
 20
19.9432
 30
9.5
 10
54.0847
 20
21.5244
 30
9.5
  0
SPLINE
  5
C52
330
A02
100
AcDbEntity
  8
Fusion
100
AcDbSpline
210
0
220
0
230
1
 70
8
 71
2
 72
6
 73
3
 74
0
 40
0
 40
0
 40
0
 40
1
 40
1
 40
1
 10
54.1517
 20
14.4801
 30
9.5
 10
53.4347
 20
16.0123
 30
9.5
 10
53.4347
 20
18.0023
 30
9.5
  0
SPLINE
  5
C53
330
A02
100
AcDbEntity
  8
Fusion
100
AcDbSpline
210
0
220
0
230
1
 70
8
 71
2
 72
6
 73
3
 74
0
 40
0
 40
0
 40
0
 40
1
 40
1
 40
1
 10
56.1752
 20
12.0928
 30
9.5
 10
54.8695
 20
12.9479
 30
9.5
 10
54.1517
 20
14.4801
 30
9.5
  0
SPLINE
  5
C54
330
A02
100
AcDbEntity
  8
Fusion
100
AcDbSpline
210
0
220
0
230
1
 70
8
 71
2
 72
6
 73
3
 74
0
 40
0
 40
0
 40
0
 40
1
 40
1
 40
1
 10
59.0392
 20
11.2384
 30
9.5
 10
57.4817
 20
11.2384
 30
9.5
 10
56.1752
 20
12.0928
 30
9.5
  0
SPLINE
  5
C55
330
A02
100
AcDbEntity
  8
Fusion
100
AcDbSpline
210
0
220
0
230
1
 70
8
 71
2
 72
6
 73
3
 74
0
 40
0
 40
0
 40
0
 40
1
 40
1
 40
1
 10
62.6816
 20
13.1434
 30
9.5
 10
61.443
 20
11.2384
 30
9.5
 10
59.0392
 20
11.2384
 30
9.5
  0
SPLINE
  5
C56
330
A02
100
AcDbEntity
  8
Fusion
100
AcDbSpline
210
0
220
0
230
1
 70
8
 71
2
 72
6
 73
3
 74
0
 40
0
 40
0
 40
0
 40
1
 40
1
 40
1
 10
55.7035
 20
18.0088
 30
9.5
 10
55.7035
 20
15.5332
 30
9.5
 10
56.7582
 20
14.3076
 30
9.5
  0
SPLINE
  5
C57
330
A02
100
AcDbEntity
  8
Fusion
100
AcDbSpline
210
0
220
0
230
1
 70
8
 71
2
 72
6
 73
3
 74
0
 40
0
 40
0
 40
0
 40
1
 40
1
 40
1
 10
56.6903
 20
21.7574
 30
9.5
 10
55.7035
 20
20.5687
 30
9.5
 10
55.7035
 20
18.0088
 30
9.5
  0
SPLINE
  5
C58
330
A02
100
AcDbEntity
  8
Fusion
100
AcDbSpline
210
0
220
0
230
1
 70
8
 71
2
 72
6
 73
3
 74
0
 40
0
 40
0
 40
0
 40
1
 40
1
 40
1
 10
59.1496
 20
22.9462
 30
9.5
 10
57.678
 20
22.9462
 30
9.5
 10
56.6903
 20
21.7574
 30
9.5
  0
SPLINE
  5
C59
330
A02
100
AcDbEntity
  8
Fusion
100
AcDbSpline
210
0
220
0
230
1
 70
8
 71
2
 72
6
 73
3
 74
0
 40
0
 40
0
 40
0
 40
1
 40
1
 40
1
 10
61.6882
 20
21.7084
 30
9.5
 10
60.6581
 20
22.9462
 30
9.5
 10
59.1496
 20
22.9462
 30
9.5
  0
SPLINE
  5
C5A
330
A02
100
AcDbEntity
  8
Fusion
100
AcDbSpline
210
0
220
0
230
1
 70
8
 71
2
 72
6
 73
3
 74
0
 40
0
 40
0
 40
0
 40
1
 40
1
 40
1
 10
62.7184
 20
17.8265
 30
9.5
 10
62.7184
 20
20.4714
 30
9.5
 10
61.6882
 20
21.7084
 30
9.5
  0
SPLINE
  5
C5B
330
A02
100
AcDbEntity
  8
Fusion
100
AcDbSpline
210
0
220
0
230
1
 70
8
 71
2
 72
6
 73
3
 74
0
 40
0
 40
0
 40
0
 40
1
 40
1
 40
1
 10
61.7062
 20
14.2536
 30
9.5
 10
62.7184
 20
15.4244
 30
9.5
 10
62.7184
 20
17.8265
 30
9.5
  0
SPLINE
  5
C5C
330
A02
100
AcDbEntity
  8
Fusion
100
AcDbSpline
210
0
220
0
230
1
 70
8
 71
2
 72
6
 73
3
 74
0
 40
0
 40
0
 40
0
 40
1
 40
1
 40
1
 10
59.2477
 20
13.0828
 30
9.5
 10
60.6949
 20
13.0828
 30
9.5
 10
61.7062
 20
14.2536
 30
9.5
  0
SPLINE
  5
C5D
330
A02
100
AcDbEntity
  8
Fusion
100
AcDbSpline
210
0
220
0
230
1
 70
8
 71
2
 72
6
 73
3
 74
0
 40
0
 40
0
 40
0
 40
1
 40
1
 40
1
 10
56.7582
 20
14.3076
 30
9.5
 10
57.8129
 20
13.0828
 30
9.5
 10
59.2477
 20
13.0828
 30
9.5
  0
SPLINE
  5
C5E
330
A02
100
AcDbEntity
  8
Fusion
100
AcDbSpline
210
0
220
0
230
1
 70
8
 71
2
 72
6
 73
3
 74
0
 40
0
 40
0
 40
0
 40
1
 40
1
 40
1
 10
67.3811
 20
18.0145
 30
9.5
 10
67.3811
 20
21.616
 30
9.5
 10
69.3924
 20
23.3501
 30
9.5
  0
SPLINE
  5
C5F
330
A02
100
AcDbEntity
  8
Fusion
100
AcDbSpline
210
0
220
0
230
1
 70
8
 71
2
 72
6
 73
3
 74
0
 40
0
 40
0
 40
0
 40
1
 40
1
 40
1
 10
69.067
 20
12.9839
 30
9.5
 10
67.3811
 20
14.7303
 30
9.5
 10
67.3811
 20
18.0145
 30
9.5
  0
SPLINE
  5
C60
330
A02
100
AcDbEntity
  8
Fusion
100
AcDbSpline
210
0
220
0
230
1
 70
8
 71
2
 72
6
 73
3
 74
0
 40
0
 40
0
 40
0
 40
1
 40
1
 40
1
 10
73.4885
 20
11.2384
 30
9.5
 10
70.7536
 20
11.2384
 30
9.5
 10
69.067
 20
12.9839
 30
9.5
  0
SPLINE
  5
C61
330
A02
100
AcDbEntity
  8
Fusion
100
AcDbSpline
210
0
220
0
230
1
 70
8
 71
2
 72
6
 73
3
 74
0
 40
0
 40
0
 40
0
 40
1
 40
1
 40
1
 10
76.6337
 20
12.0314
 30
9.5
 10
75.1931
 20
11.2384
 30
9.5
 10
73.4885
 20
11.2384
 30
9.5
  0
SPLINE
  5
C62
330
A02
100
AcDbEntity
  8
Fusion
100
AcDbSpline
210
0
220
0
230
1
 70
8
 71
2
 72
6
 73
3
 74
0
 40
0
 40
0
 40
0
 40
1
 40
1
 40
1
 10
78.8289
 20
14.2602
 30
9.5
 10
78.0751
 20
12.8253
 30
9.5
 10
76.6337
 20
12.0314
 30
9.5
  0
SPLINE
  5
C63
330
A02
100
AcDbEntity
  8
Fusion
100
AcDbSpline
210
0
220
0
230
1
 70
8
 71
2
 72
6
 73
3
 74
0
 40
0
 40
0
 40
0
 40
1
 40
1
 40
1
 10
79.5836
 20
18.1977
 30
9.5
 10
79.5836
 20
15.695
 30
9.5
 10
78.8289
 20
14.2602
 30
9.5
  0
SPLINE
  5
C64
330
A02
100
AcDbEntity
  8
Fusion
100
AcDbSpline
210
0
220
0
230
1
 70
8
 71
2
 72
6
 73
3
 74
0
 40
0
 40
0
 40
0
 40
1
 40
1
 40
1
 10
77.8789
 20
23.0386
 30
9.5
 10
79.5836
 20
21.2865
 30
9.5
 10
79.5836
 20
18.1977
 30
9.5
  0
SPLINE
  5
C65
330
A02
100
AcDbEntity
  8
Fusion
100
AcDbSpline
210
0
220
0
230
1
 70
8
 71
2
 72
6
 73
3
 74
0
 40
0
 40
0
 40
0
 40
1
 40
1
 40
1
 10
73.4885
 20
24.7907
 30
9.5
 10
76.1742
 20
24.7907
 30
9.5
 10
77.8789
 20
23.0386
 30
9.5
  0
SPLINE
  5
C66
330
A02
100
AcDbEntity
  8
Fusion
100
AcDbSpline
210
0
220
0
230
1
 70
8
 71
2
 72
6
 73
3
 74
0
 40
0
 40
0
 40
0
 40
1
 40
1
 40
1
 10
69.3924
 20
23.3501
 30
9.5
 10
71.0725
 20
24.7907
 30
9.5
 10
73.4885
 20
24.7907
 30
9.5
  0
SPLINE
  5
C67
330
A02
100
AcDbEntity
  8
Fusion
100
AcDbSpline
210
0
220
0
230
1
 70
8
 71
2
 72
6
 73
3
 74
0
 40
0
 40
0
 40
0
 40
1
 40
1
 40
1
 10
69.6499
 20
18.0203
 30
9.5
 10
69.6499
 20
15.5454
 30
9.5
 10
70.7414
 20
14.3141
 30
9.5
  0
SPLINE
  5
C68
330
A02
100
AcDbEntity
  8
Fusion
100
AcDbSpline
210
0
220
0
230
1
 70
8
 71
2
 72
6
 73
3
 74
0
 40
0
 40
0
 40
0
 40
1
 40
1
 40
1
 10
70.7414
 20
21.7207
 30
9.5
 10
69.6499
 20
20.4959
 30
9.5
 10
69.6499
 20
18.0203
 30
9.5
  0
SPLINE
  5
C69
330
A02
100
AcDbEntity
  8
Fusion
100
AcDbSpline
210
0
220
0
230
1
 70
8
 71
2
 72
6
 73
3
 74
0
 40
0
 40
0
 40
0
 40
1
 40
1
 40
1
 10
73.4885
 20
22.9462
 30
9.5
 10
71.8328
 20
22.9462
 30
9.5
 10
70.7414
 20
21.7207
 30
9.5
  0
SPLINE
  5
C6A
330
A02
100
AcDbEntity
  8
Fusion
100
AcDbSpline
210
0
220
0
230
1
 70
8
 71
2
 72
6
 73
3
 74
0
 40
0
 40
0
 40
0
 40
1
 40
1
 40
1
 10
76.2168
 20
21.7149
 30
9.5
 10
75.1195
 20
22.9462
 30
9.5
 10
73.4885
 20
22.9462
 30
9.5
  0
SPLINE
  5
C6B
330
A02
100
AcDbEntity
  8
Fusion
100
AcDbSpline
210
0
220
0
230
1
 70
8
 71
2
 72
6
 73
3
 74
0
 40
0
 40
0
 40
0
 40
1
 40
1
 40
1
 10
77.3148
 20
18.093
 30
9.5
 10
77.3148
 20
20.4836
 30
9.5
 10
76.2168
 20
21.7149
 30
9.5
  0
SPLINE
  5
C6C
330
A02
100
AcDbEntity
  8
Fusion
100
AcDbSpline
210
0
220
0
230
1
 70
8
 71
2
 72
6
 73
3
 74
0
 40
0
 40
0
 40
0
 40
1
 40
1
 40
1
 10
76.2233
 20
14.3199
 30
9.5
 10
77.3148
 20
15.5577
 30
9.5
 10
77.3148
 20
18.093
 30
9.5
  0
SPLINE
  5
C6D
330
A02
100
AcDbEntity
  8
Fusion
100
AcDbSpline
210
0
220
0
230
1
 70
8
 71
2
 72
6
 73
3
 74
0
 40
0
 40
0
 40
0
 40
1
 40
1
 40
1
 10
73.4885
 20
13.0828
 30
9.5
 10
75.1318
 20
13.0828
 30
9.5
 10
76.2233
 20
14.3199
 30
9.5
  0
SPLINE
  5
C6E
330
A02
100
AcDbEntity
  8
Fusion
100
AcDbSpline
210
0
220
0
230
1
 70
8
 71
2
 72
6
 73
3
 74
0
 40
0
 40
0
 40
0
 40
1
 40
1
 40
1
 10
70.7414
 20
14.3141
 30
9.5
 10
71.8328
 20
13.0828
 30
9.5
 10
73.4885
 20
13.0828
 30
9.5
  0
LINE
  5
C6F
330
A02
100
AcDbEntity
  8
Fusion
100
AcDbLine
 10
82.1737
 20
11.5
 30
9.5
 11
82.1737
 21
24.5291
 31
9.5
  0
LINE
  5
C70
330
A02
100
AcDbEntity
  8
Fusion
100
AcDbLine
 10
84.3812
 20
11.5
 30
9.5
 11
82.1737
 21
11.5
 31
9.5
  0
LINE
  5
C71
330
A02
100
AcDbEntity
  8
Fusion
100
AcDbLine
 10
84.3812
 20
18.6057
 30
9.5
 11
84.3812
 21
11.5
 31
9.5
  0
SPLINE
  5
C72
330
A02
100
AcDbEntity
  8
Fusion
100
AcDbSpline
210
0
220
0
230
1
 70
8
 71
2
 72
6
 73
3
 74
0
 40
0
 40
0
 40
0
 40
1
 40
1
 40
1
 10
85.4048
 20
21.9995
 30
9.5
 10
84.3812
 20
21.105
 30
9.5
 10
84.3812
 20
18.6057
 30
9.5
  0
SPLINE
  5
C73
330
A02
100
AcDbEntity
  8
Fusion
100
AcDbSpline
210
0
220
0
230
1
 70
8
 71
2
 72
6
 73
3
 74
0
 40
0
 40
0
 40
0
 40
1
 40
1
 40
1
 10
87.8396
 20
22.8939
 30
9.5
 10
86.4292
 20
22.8939
 30
9.5
 10
85.4048
 20
21.9995
 30
9.5
  0
SPLINE
  5
C74
330
A02
100
AcDbEntity
  8
Fusion
100
AcDbSpline
210
0
220
0
230
1
 70
8
 71
2
 72
6
 73
3
 74
0
 40
0
 40
0
 40
0
 40
1
 40
1
 40
1
 10
89.3783
 20
22.4957
 30
9.5
 10
88.7226
 20
22.8939
 30
9.5
 10
87.8396
 20
22.8939
 30
9.5
  0
SPLINE
  5
C75
330
A02
100
AcDbEntity
  8
Fusion
100
AcDbSpline
210
0
220
0
230
1
 70
8
 71
2
 72
6
 73
3
 74
0
 40
0
 40
0
 40
0
 40
1
 40
1
 40
1
 10
90.2923
 20
21.4296
 30
9.5
 10
90.0348
 20
22.0976
 30
9.5
 10
89.3783
 20
22.4957
 30
9.5
  0
SPLINE
  5
C76
330
A02
100
AcDbEntity
  8
Fusion
100
AcDbSpline
210
0
220
0
230
1
 70
8
 71
2
 72
6
 73
3
 74
0
 40
0
 40
0
 40
0
 40
1
 40
1
 40
1
 10
90.5499
 20
19.4142
 30
9.5
 10
90.5499
 20
20.7624
 30
9.5
 10
90.2923
 20
21.4296
 30
9.5
  0
LINE
  5
C77
330
A02
100
AcDbEntity
  8
Fusion
100
AcDbLine
 10
90.5499
 20
11.5
 30
9.5
 11
90.5499
 21
19.4142
 31
9.5
  0
LINE
  5
C78
330
A02
100
AcDbEntity
  8
Fusion
100
AcDbLine
 10
92.7574
 20
11.5
 30
9.5
 11
90.5499
 21
11.5
 31
9.5
  0
LINE
  5
C79
330
A02
100
AcDbEntity
  8
Fusion
100
AcDbLine
 10
92.7574
 20
19.4919
 30
9.5
 11
92.7574
 21
11.5
 31
9.5
  0
SPLINE
  5
C7A
330
A02
100
AcDbEntity
  8
Fusion
100
AcDbSpline
210
0
220
0
230
1
 70
8
 71
2
 72
6
 73
3
 74
0
 40
0
 40
0
 40
0
 40
1
 40
1
 40
1
 10
92.6347
 20
21.6332
 30
9.5
 10
92.7574
 20
21.0216
 30
9.5
 10
92.7574
 20
19.4919
 30
9.5
  0
SPLINE
  5
C7B
330
A02
100
AcDbEntity
  8
Fusion
100
AcDbSpline
210
0
220
0
230
1
 70
8
 71
2
 72
6
 73
3
 74
0
 40
0
 40
0
 40
0
 40
1
 40
1
 40
1
 10
91.9479
 20
23.261
 30
9.5
 10
92.4385
 20
22.5759
 30
9.5
 10
92.6347
 20
21.6332
 30
9.5
  0
SPLINE
  5
C7C
330
A02
100
AcDbEntity
  8
Fusion
100
AcDbSpline
210
0
220
0
230
1
 70
8
 71
2
 72
6
 73
3
 74
0
 40
0
 40
0
 40
0
 40
1
 40
1
 40
1
 10
90.4697
 20
24.368
 30
9.5
 10
91.4574
 20
23.9461
 30
9.5
 10
91.9479
 20
23.261
 30
9.5
  0
SPLINE
  5
C7D
330
A02
100
AcDbEntity
  8
Fusion
100
AcDbSpline
210
0
220
0
230
1
 70
8
 71
2
 72
6
 73
3
 74
0
 40
0
 40
0
 40
0
 40
1
 40
1
 40
1
 10
88.3056
 20
24.7907
 30
9.5
 10
89.4829
 20
24.7907
 30
9.5
 10
90.4697
 20
24.368
 30
9.5
  0
SPLINE
  5
C7E
330
A02
100
AcDbEntity
  8
Fusion
100
AcDbSpline
210
0
220
0
230
1
 70
8
 71
2
 72
6
 73
3
 74
0
 40
0
 40
0
 40
0
 40
1
 40
1
 40
1
 10
84.1604
 20
22.6609
 30
9.5
 10
85.5953
 20
24.7907
 30
9.5
 10
88.3056
 20
24.7907
 30
9.5
  0
LINE
  5
C7F
330
A02
100
AcDbEntity
  8
Fusion
100
AcDbLine
 10
84.1604
 20
24.5291
 30
9.5
 11
84.1604
 21
22.6609
 31
9.5
  0
LINE
  5
C80
330
A02
100
AcDbEntity
  8
Fusion
100
AcDbLine
 10
82.1737
 20
24.5291
 30
9.5
 11
84.1604
 21
24.5291
 31
9.5
  0
SPLINE
  5
C81
330
A02
100
AcDbEntity
  8
Fusion
100
AcDbSpline
210
0
220
0
230
1
 70
8
 71
2
 72
6
 73
3
 74
0
 40
0
 40
0
 40
0
 40
1
 40
1
 40
1
 10
109.294
 20
18.0145
 30
9.5
 10
109.294
 20
21.616
 30
9.5
 10
111.305
 20
23.3501
 30
9.5
  0
SPLINE
  5
C82
330
A02
100
AcDbEntity
  8
Fusion
100
AcDbSpline
210
0
220
0
230
1
 70
8
 71
2
 72
6
 73
3
 74
0
 40
0
 40
0
 40
0
 40
1
 40
1
 40
1
 10
110.98
 20
12.9839
 30
9.5
 10
109.294
 20
14.7303
 30
9.5
 10
109.294
 20
18.0145
 30
9.5
  0
SPLINE
  5
C83
330
A02
100
AcDbEntity
  8
Fusion
100
AcDbSpline
210
0
220
0
230
1
 70
8
 71
2
 72
6
 73
3
 74
0
 40
0
 40
0
 40
0
 40
1
 40
1
 40
1
 10
115.401
 20
11.2384
 30
9.5
 10
112.666
 20
11.2384
 30
9.5
 10
110.98
 20
12.9839
 30
9.5
  0
SPLINE
  5
C84
330
A02
100
AcDbEntity
  8
Fusion
100
AcDbSpline
210
0
220
0
230
1
 70
8
 71
2
 72
6
 73
3
 74
0
 40
0
 40
0
 40
0
 40
1
 40
1
 40
1
 10
118.547
 20
12.0314
 30
9.5
 10
117.106
 20
11.2384
 30
9.5
 10
115.401
 20
11.2384
 30
9.5
  0
SPLINE
  5
C85
330
A02
100
AcDbEntity
  8
Fusion
100
AcDbSpline
210
0
220
0
230
1
 70
8
 71
2
 72
6
 73
3
 74
0
 40
0
 40
0
 40
0
 40
1
 40
1
 40
1
 10
120.742
 20
14.2602
 30
9.5
 10
119.988
 20
12.8253
 30
9.5
 10
118.547
 20
12.0314
 30
9.5
  0
SPLINE
  5
C86
330
A02
100
AcDbEntity
  8
Fusion
100
AcDbSpline
210
0
220
0
230
1
 70
8
 71
2
 72
6
 73
3
 74
0
 40
0
 40
0
 40
0
 40
1
 40
1
 40
1
 10
121.496
 20
18.1977
 30
9.5
 10
121.496
 20
15.695
 30
9.5
 10
120.742
 20
14.2602
 30
9.5
  0
SPLINE
  5
C87
330
A02
100
AcDbEntity
  8
Fusion
100
AcDbSpline
210
0
220
0
230
1
 70
8
 71
2
 72
6
 73
3
 74
0
 40
0
 40
0
 40
0
 40
1
 40
1
 40
1
 10
119.792
 20
23.0386
 30
9.5
 10
121.496
 20
21.2865
 30
9.5
 10
121.496
 20
18.1977
 30
9.5
  0
SPLINE
  5
C88
330
A02
100
AcDbEntity
  8
Fusion
100
AcDbSpline
210
0
220
0
230
1
 70
8
 71
2
 72
6
 73
3
 74
0
 40
0
 40
0
 40
0
 40
1
 40
1
 40
1
 10
115.401
 20
24.7907
 30
9.5
 10
118.087
 20
24.7907
 30
9.5
 10
119.792
 20
23.0386
 30
9.5
  0
SPLINE
  5
C89
330
A02
100
AcDbEntity
  8
Fusion
100
AcDbSpline
210
0
220
0
230
1
 70
8
 71
2
 72
6
 73
3
 74
0
 40
0
 40
0
 40
0
 40
1
 40
1
 40
1
 10
111.305
 20
23.3501
 30
9.5
 10
112.985
 20
24.7907
 30
9.5
 10
115.401
 20
24.7907
 30
9.5
  0
SPLINE
  5
C8A
330
A02
100
AcDbEntity
  8
Fusion
100
AcDbSpline
210
0
220
0
230
1
 70
8
 71
2
 72
6
 73
3
 74
0
 40
0
 40
0
 40
0
 40
1
 40
1
 40
1
 10
111.563
 20
18.0203
 30
9.5
 10
111.563
 20
15.5454
 30
9.5
 10
112.654
 20
14.3141
 30
9.5
  0
SPLINE
  5
C8B
330
A02
100
AcDbEntity
  8
Fusion
100
AcDbSpline
210
0
220
0
230
1
 70
8
 71
2
 72
6
 73
3
 74
0
 40
0
 40
0
 40
0
 40
1
 40
1
 40
1
 10
112.654
 20
21.7207
 30
9.5
 10
111.563
 20
20.4959
 30
9.5
 10
111.563
 20
18.0203
 30
9.5
  0
SPLINE
  5
C8C
330
A02
100
AcDbEntity
  8
Fusion
100
AcDbSpline
210
0
220
0
230
1
 70
8
 71
2
 72
6
 73
3
 74
0
 40
0
 40
0
 40
0
 40
1
 40
1
 40
1
 10
115.401
 20
22.9462
 30
9.5
 10
113.746
 20
22.9462
 30
9.5
 10
112.654
 20
21.7207
 30
9.5
  0
SPLINE
  5
C8D
330
A02
100
AcDbEntity
  8
Fusion
100
AcDbSpline
210
0
220
0
230
1
 70
8
 71
2
 72
6
 73
3
 74
0
 40
0
 40
0
 40
0
 40
1
 40
1
 40
1
 10
118.13
 20
21.7149
 30
9.5
 10
117.032
 20
22.9462
 30
9.5
 10
115.401
 20
22.9462
 30
9.5
  0
SPLINE
  5
C8E
330
A02
100
AcDbEntity
  8
Fusion
100
AcDbSpline
210
0
220
0
230
1
 70
8
 71
2
 72
6
 73
3
 74
0
 40
0
 40
0
 40
0
 40
1
 40
1
 40
1
 10
119.228
 20
18.093
 30
9.5
 10
119.228
 20
20.4836
 30
9.5
 10
118.13
 20
21.7149
 30
9.5
  0
SPLINE
  5
C8F
330
A02
100
AcDbEntity
  8
Fusion
100
AcDbSpline
210
0
220
0
230
1
 70
8
 71
2
 72
6
 73
3
 74
0
 40
0
 40
0
 40
0
 40
1
 40
1
 40
1
 10
118.136
 20
14.3199
 30
9.5
 10
119.228
 20
15.5577
 30
9.5
 10
119.228
 20
18.093
 30
9.5
  0
SPLINE
  5
C90
330
A02
100
AcDbEntity
  8
Fusion
100
AcDbSpline
210
0
220
0
230
1
 70
8
 71
2
 72
6
 73
3
 74
0
 40
0
 40
0
 40
0
 40
1
 40
1
 40
1
 10
115.401
 20
13.0828
 30
9.5
 10
117.045
 20
13.0828
 30
9.5
 10
118.136
 20
14.3199
 30
9.5
  0
SPLINE
  5
C91
330
A02
100
AcDbEntity
  8
Fusion
100
AcDbSpline
210
0
220
0
230
1
 70
8
 71
2
 72
6
 73
3
 74
0
 40
0
 40
0
 40
0
 40
1
 40
1
 40
1
 10
112.654
 20
14.3141
 30
9.5
 10
113.746
 20
13.0828
 30
9.5
 10
115.401
 20
13.0828
 30
9.5
  0
SPLINE
  5
C92
330
A02
100
AcDbEntity
  8
Fusion
100
AcDbSpline
210
0
220
0
230
1
 70
8
 71
3
 72
11
 73
7
 74
0
 40
0
 40
0
 40
0
 40
0
 40
0.357162
 40
0.357162
 40
0.357162
 40
1
 40
1
 40
1
 40
1
 10
98.5851
 20
14.5136
 30
6.3
 10
98.2822
 20
14.8614
 30
6.3
 10
98.0661
 20
15.2809
 30
6.3
 10
97.9156
 20
15.7218
 30
6.3
 10
97.646
 20
16.5196
 30
6.3
 10
97.5693
 20
17.3787
 30
6.3
 10
97.5672
 20
18.2304
 30
6.3
  0
LINE
  5
C93
330
A02
100
AcDbEntity
  8
Fusion
100
AcDbLine
 10
98.5851
 20
14.5136
 30
6.3
 11
98.5851
 21
14.5136
 31
9.5
  0
SPLINE
  5
C94
330
A02
100
AcDbEntity
  8
Fusion
100
AcDbSpline
210
0
220
0
230
1
 70
8
 71
2
 72
6
 73
3
 74
0
 40
0
 40
0
 40
0
 40
1
 40
1
 40
1
 10
97.5672
 20
18.2304
 30
9.5
 10
97.5672
 20
15.6836
 30
9.5
 10
98.5851
 20
14.5136
 30
9.5
  0
LINE
  5
C95
330
A02
100
AcDbEntity
  8
Fusion
100
AcDbLine
 10
97.5672
 20
18.2304
 30
6.3
 11
97.5672
 21
18.2304
 31
9.5
  0
SPLINE
  5
C96
330
A02
100
AcDbEntity
  8
Fusion
100
AcDbSpline
210
0
220
0
230
1
 70
8
 71
3
 72
11
 73
7
 74
0
 40
0
 40
0
 40
0
 40
0
 40
0.565828
 40
0.565828
 40
0.565828
 40
1
 40
1
 40
1
 40
1
 10
97.5672
 20
18.2304
 30
6.3
 10
97.568
 20
18.9461
 30
6.3
 10
97.6368
 20
19.6644
 30
6.3
 10
97.8426
 20
20.342
 30
6.3
 10
98.0001
 20
20.8602
 30
6.3
 10
98.2449
 20
21.3529
 30
6.3
 10
98.5974
 20
21.7583
 30
6.3
  0
LINE
  5
C97
330
A02
100
AcDbEntity
  8
Fusion
100
AcDbLine
 10
97.5672
 20
18.2304
 30
6.3
 11
97.5672
 21
18.2304
 31
9.5
  0
SPLINE
  5
C98
330
A02
100
AcDbEntity
  8
Fusion
100
AcDbSpline
210
0
220
0
230
1
 70
8
 71
2
 72
6
 73
3
 74
0
 40
0
 40
0
 40
0
 40
1
 40
1
 40
1
 10
98.5974
 20
21.7583
 30
9.5
 10
97.5672
 20
20.5703
 30
9.5
 10
97.5672
 20
18.2304
 30
9.5
  0
LINE
  5
C99
330
A02
100
AcDbEntity
  8
Fusion
100
AcDbLine
 10
98.5974
 20
21.7583
 30
6.3
 11
98.5974
 21
21.7583
 31
9.5
  0
SPLINE
  5
C9A
330
A02
100
AcDbEntity
  8
Fusion
100
AcDbSpline
210
0
220
0
230
1
 70
8
 71
3
 72
11
 73
7
 74
0
 40
0
 40
0
 40
0
 40
0
 40
0.600261
 40
0.600261
 40
0.600261
 40
1
 40
1
 40
1
 40
1
 10
98.5974
 20
21.7583
 30
6.3
 10
98.9743
 20
22.1954
 30
6.3
 10
99.4429
 20
22.5536
 30
6.3
 10
99.9796
 20
22.7514
 30
6.3
 10
100.336
 20
22.8844
 30
6.3
 10
100.717
 20
22.9467
 30
6.3
 10
101.099
 20
22.9462
 30
6.3
  0
LINE
  5
C9B
330
A02
100
AcDbEntity
  8
Fusion
100
AcDbLine
 10
98.5974
 20
21.7583
 30
6.3
 11
98.5974
 21
21.7583
 31
9.5
  0
SPLINE
  5
C9C
330
A02
100
AcDbEntity
  8
Fusion
100
AcDbSpline
210
0
220
0
230
1
 70
8
 71
2
 72
6
 73
3
 74
0
 40
0
 40
0
 40
0
 40
1
 40
1
 40
1
 10
101.099
 20
22.9462
 30
9.5
 10
99.6275
 20
22.9462
 30
9.5
 10
98.5974
 20
21.7583
 30
9.5
  0
LINE
  5
C9D
330
A02
100
AcDbEntity
  8
Fusion
100
AcDbLine
 10
101.099
 20
22.9462
 30
6.3
 11
101.099
 21
22.9462
 31
9.5
  0
SPLINE
  5
C9E
330
A02
100
AcDbEntity
  8
Fusion
100
AcDbSpline
210
0
220
0
230
1
 70
8
 71
3
 72
11
 73
7
 74
0
 40
0
 40
0
 40
0
 40
0
 40
0.390392
 40
0.390392
 40
0.390392
 40
1
 40
1
 40
1
 40
1
 10
101.099
 20
22.9462
 30
6.3
 10
101.48
 20
22.9467
 30
6.3
 10
101.86
 20
22.886
 30
6.3
 10
102.216
 20
22.757
 30
6.3
 10
102.774
 20
22.5575
 30
6.3
 10
103.262
 20
22.1897
 30
6.3
 10
103.656
 20
21.7395
 30
6.3
  0
LINE
  5
C9F
330
A02
100
AcDbEntity
  8
Fusion
100
AcDbLine
 10
101.099
 20
22.9462
 30
6.3
 11
101.099
 21
22.9462
 31
9.5
  0
SPLINE
  5
CA0
330
A02
100
AcDbEntity
  8
Fusion
100
AcDbSpline
210
0
220
0
230
1
 70
8
 71
2
 72
6
 73
3
 74
0
 40
0
 40
0
 40
0
 40
1
 40
1
 40
1
 10
103.656
 20
21.7395
 30
9.5
 10
102.595
 20
22.9462
 30
9.5
 10
101.099
 20
22.9462
 30
9.5
  0
LINE
  5
CA1
330
A02
100
AcDbEntity
  8
Fusion
100
AcDbLine
 10
103.656
 20
21.7395
 30
6.3
 11
103.656
 21
21.7395
 31
9.5
  0
SPLINE
  5
CA2
330
A02
100
AcDbEntity
  8
Fusion
100
AcDbSpline
210
0
220
0
230
1
 70
8
 71
3
 72
11
 73
7
 74
0
 40
0
 40
0
 40
0
 40
0
 40
0.441552
 40
0.441552
 40
0.441552
 40
1
 40
1
 40
1
 40
1
 10
103.656
 20
21.7395
 30
6.3
 10
104.024
 20
21.3226
 30
6.3
 10
104.279
 20
20.813
 30
6.3
 10
104.441
 20
20.2767
 30
6.3
 10
104.647
 20
19.5963
 30
6.3
 10
104.716
 20
18.8757
 30
6.3
 10
104.717
 20
18.1576
 30
6.3
  0
LINE
  5
CA3
330
A02
100
AcDbEntity
  8
Fusion
100
AcDbLine
 10
103.656
 20
21.7395
 30
6.3
 11
103.656
 21
21.7395
 31
9.5
  0
SPLINE
  5
CA4
330
A02
100
AcDbEntity
  8
Fusion
100
AcDbSpline
210
0
220
0
230
1
 70
8
 71
2
 72
6
 73
3
 74
0
 40
0
 40
0
 40
0
 40
1
 40
1
 40
1
 10
104.717
 20
18.1576
 30
9.5
 10
104.717
 20
20.5335
 30
9.5
 10
103.656
 20
21.7395
 30
9.5
  0
LINE
  5
CA5
330
A02
100
AcDbEntity
  8
Fusion
100
AcDbLine
 10
104.717
 20
18.1576
 30
6.3
 11
104.717
 21
18.1576
 31
9.5
  0
SPLINE
  5
CA6
330
A02
100
AcDbEntity
  8
Fusion
100
AcDbSpline
210
0
220
0
230
1
 70
8
 71
3
 72
11
 73
7
 74
0
 40
0
 40
0
 40
0
 40
0
 40
0.619872
 40
0.619872
 40
0.619872
 40
1
 40
1
 40
1
 40
1
 10
104.717
 20
18.1576
 30
6.3
 10
104.715
 20
17.3486
 30
6.3
 10
104.64
 20
16.5338
 30
6.3
 10
104.389
 20
15.7743
 30
6.3
 10
104.235
 20
15.3106
 30
6.3
 10
104.008
 20
14.8701
 30
6.3
 10
103.687
 20
14.5079
 30
6.3
  0
LINE
  5
CA7
330
A02
100
AcDbEntity
  8
Fusion
100
AcDbLine
 10
104.717
 20
18.1576
 30
6.3
 11
104.717
 21
18.1576
 31
9.5
  0
SPLINE
  5
CA8
330
A02
100
AcDbEntity
  8
Fusion
100
AcDbSpline
210
0
220
0
230
1
 70
8
 71
2
 72
6
 73
3
 74
0
 40
0
 40
0
 40
0
 40
1
 40
1
 40
1
 10
103.687
 20
14.5079
 30
9.5
 10
104.717
 20
15.6721
 30
9.5
 10
104.717
 20
18.1576
 30
9.5
  0
LINE
  5
CA9
330
A02
100
AcDbEntity
  8
Fusion
100
AcDbLine
 10
103.687
 20
14.5079
 30
6.3
 11
103.687
 21
14.5079
 31
9.5
  0
SPLINE
  5
CAA
330
A02
100
AcDbEntity
  8
Fusion
100
AcDbSpline
210
0
220
0
230
1
 70
8
 71
3
 72
11
 73
7
 74
0
 40
0
 40
0
 40
0
 40
0
 40
0.533771
 40
0.533771
 40
0.533771
 40
1
 40
1
 40
1
 40
1
 10
103.687
 20
14.5079
 30
6.3
 10
103.344
 20
14.1191
 30
6.3
 10
102.926
 20
13.798
 30
6.3
 10
102.452
 20
13.5993
 30
6.3
 10
102.039
 20
13.4241
 30
6.3
 10
101.588
 20
13.3437
 30
6.3
 10
101.136
 20
13.3445
 30
6.3
  0
LINE
  5
CAB
330
A02
100
AcDbEntity
  8
Fusion
100
AcDbLine
 10
103.687
 20
14.5079
 30
6.3
 11
103.687
 21
14.5079
 31
9.5
  0
SPLINE
  5
CAC
330
A02
100
AcDbEntity
  8
Fusion
100
AcDbSpline
210
0
220
0
230
1
 70
8
 71
2
 72
6
 73
3
 74
0
 40
0
 40
0
 40
0
 40
1
 40
1
 40
1
 10
101.136
 20
13.3445
 30
9.5
 10
102.657
 20
13.3445
 30
9.5
 10
103.687
 20
14.5079
 30
9.5
  0
LINE
  5
CAD
330
A02
100
AcDbEntity
  8
Fusion
100
AcDbLine
 10
101.136
 20
13.3445
 30
6.3
 11
101.136
 21
13.3445
 31
9.5
  0
SPLINE
  5
CAE
330
A02
100
AcDbEntity
  8
Fusion
100
AcDbSpline
210
0
220
0
230
1
 70
8
 71
3
 72
11
 73
7
 74
0
 40
0
 40
0
 40
0
 40
0
 40
0.483076
 40
0.483076
 40
0.483076
 40
1
 40
1
 40
1
 40
1
 10
101.136
 20
13.3445
 30
6.3
 10
100.667
 20
13.3436
 30
6.3
 10
100.199
 20
13.4296
 30
6.3
 10
99.7727
 20
13.6184
 30
6.3
 10
99.3159
 20
13.8185
 30
6.3
 10
98.9143
 20
14.1339
 30
6.3
 10
98.5851
 20
14.5136
 30
6.3
  0
LINE
  5
CAF
330
A02
100
AcDbEntity
  8
Fusion
100
AcDbLine
 10
101.136
 20
13.3445
 30
6.3
 11
101.136
 21
13.3445
 31
9.5
  0
SPLINE
  5
CB0
330
A02
100
AcDbEntity
  8
Fusion
100
AcDbSpline
210
0
220
0
230
1
 70
8
 71
2
 72
6
 73
3
 74
0
 40
0
 40
0
 40
0
 40
1
 40
1
 40
1
 10
98.5851
 20
14.5136
 30
9.5
 10
99.603
 20
13.3445
 30
9.5
 10
101.136
 20
13.3445
 30
9.5
  0
LINE
  5
CB1
330
A02
100
AcDbEntity
  8
Fusion
100
AcDbLine
 10
98.5851
 20
14.5136
 30
6.3
 11
98.5851
 21
14.5136
 31
9.5
  0
SPLINE
  5
CB2
330
A02
100
AcDbEntity
  8
Fusion
100
AcDbSpline
210
0
220
0
230
1
 70
8
 71
3
 72
11
 73
7
 74
0
 40
0
 40
0
 40
0
 40
0
 40
0.40824
 40
0.40824
 40
0.40824
 40
1
 40
1
 40
1
 40
1
 10
56.7582
 20
14.3076
 30
6.3
 10
56.4131
 20
14.7078
 30
6.3
 10
56.1712
 20
15.1915
 30
6.3
 10
56.011
 20
15.6996
 30
6.3
 10
55.7788
 20
16.4391
 30
6.3
 10
55.7046
 20
17.226
 30
6.3
 10
55.7035
 20
18.0088
 30
6.3
  0
LINE
  5
CB3
330
A02
100
AcDbEntity
  8
Fusion
100
AcDbLine
 10
56.7582
 20
14.3076
 30
6.3
 11
56.7582
 21
14.3076
 31
9.5
  0
SPLINE
  5
CB4
330
A02
100
AcDbEntity
  8
Fusion
100
AcDbSpline
210
0
220
0
230
1
 70
8
 71
2
 72
6
 73
3
 74
0
 40
0
 40
0
 40
0
 40
1
 40
1
 40
1
 10
55.7035
 20
18.0088
 30
9.5
 10
55.7035
 20
15.5332
 30
9.5
 10
56.7582
 20
14.3076
 30
9.5
  0
LINE
  5
CB5
330
A02
100
AcDbEntity
  8
Fusion
100
AcDbLine
 10
55.7035
 20
18.0088
 30
6.3
 11
55.7035
 21
18.0088
 31
9.5
  0
SPLINE
  5
CB6
330
A02
100
AcDbEntity
  8
Fusion
100
AcDbSpline
210
0
220
0
230
1
 70
8
 71
3
 72
14
 73
10
 74
0
 40
0
 40
0
 40
0
 40
0
 40
0.353917
 40
0.353917
 40
0.353917
 40
0.655879
 40
0.655879
 40
0.655879
 40
1
 40
1
 40
1
 40
1
 10
55.7035
 20
18.0088
 30
6.3
 10
55.7012
 20
18.4819
 30
6.3
 10
55.7306
 20
18.9514
 30
6.3
 10
55.7917
 20
19.417
 30
6.3
 10
55.8436
 20
19.8151
 30
6.3
 10
55.9318
 20
20.2028
 30
6.3
 10
56.0564
 20
20.5801
 30
6.3
 10
56.201
 20
21.0071
 30
6.3
 10
56.4054
 20
21.4144
 30
6.3
 10
56.6903
 20
21.7574
 30
6.3
  0
LINE
  5
CB7
330
A02
100
AcDbEntity
  8
Fusion
100
AcDbLine
 10
55.7035
 20
18.0088
 30
6.3
 11
55.7035
 21
18.0088
 31
9.5
  0
SPLINE
  5
CB8
330
A02
100
AcDbEntity
  8
Fusion
100
AcDbSpline
210
0
220
0
230
1
 70
8
 71
2
 72
6
 73
3
 74
0
 40
0
 40
0
 40
0
 40
1
 40
1
 40
1
 10
56.6903
 20
21.7574
 30
9.5
 10
55.7035
 20
20.5687
 30
9.5
 10
55.7035
 20
18.0088
 30
9.5
  0
LINE
  5
CB9
330
A02
100
AcDbEntity
  8
Fusion
100
AcDbLine
 10
56.6903
 20
21.7574
 30
6.3
 11
56.6903
 21
21.7574
 31
9.5
  0
SPLINE
  5
CBA
330
A02
100
AcDbEntity
  8
Fusion
100
AcDbSpline
210
0
220
0
230
1
 70
8
 71
3
 72
11
 73
7
 74
0
 40
0
 40
0
 40
0
 40
0
 40
0.571949
 40
0.571949
 40
0.571949
 40
1
 40
1
 40
1
 40
1
 10
56.6903
 20
21.7574
 30
6.3
 10
57.0364
 20
22.1764
 30
6.3
 10
57.4691
 20
22.523
 30
6.3
 10
57.9684
 20
22.7244
 30
6.3
 10
58.3408
 20
22.8765
 30
6.3
 10
58.7445
 20
22.9468
 30
6.3
 10
59.1496
 20
22.9462
 30
6.3
  0
LINE
  5
CBB
330
A02
100
AcDbEntity
  8
Fusion
100
AcDbLine
 10
56.6903
 20
21.7574
 30
6.3
 11
56.6903
 21
21.7574
 31
9.5
  0
SPLINE
  5
CBC
330
A02
100
AcDbEntity
  8
Fusion
100
AcDbSpline
210
0
220
0
230
1
 70
8
 71
2
 72
6
 73
3
 74
0
 40
0
 40
0
 40
0
 40
1
 40
1
 40
1
 10
59.1496
 20
22.9462
 30
9.5
 10
57.678
 20
22.9462
 30
9.5
 10
56.6903
 20
21.7574
 30
9.5
  0
LINE
  5
CBD
330
A02
100
AcDbEntity
  8
Fusion
100
AcDbLine
 10
59.1496
 20
22.9462
 30
6.3
 11
59.1496
 21
22.9462
 31
9.5
  0
SPLINE
  5
CBE
330
A02
100
AcDbEntity
  8
Fusion
100
AcDbSpline
210
0
220
0
230
1
 70
8
 71
3
 72
11
 73
7
 74
0
 40
0
 40
0
 40
0
 40
0
 40
0.404738
 40
0.404738
 40
0.404738
 40
1
 40
1
 40
1
 40
1
 10
59.1496
 20
22.9462
 30
6.3
 10
59.5452
 20
22.9468
 30
6.3
 10
59.9396
 20
22.8805
 30
6.3
 10
60.3061
 20
22.7381
 30
6.3
 10
60.8474
 20
22.5309
 30
6.3
 10
61.3156
 20
22.1588
 30
6.3
 10
61.6882
 20
21.7084
 30
6.3
  0
LINE
  5
CBF
330
A02
100
AcDbEntity
  8
Fusion
100
AcDbLine
 10
59.1496
 20
22.9462
 30
6.3
 11
59.1496
 21
22.9462
 31
9.5
  0
SPLINE
  5
CC0
330
A02
100
AcDbEntity
  8
Fusion
100
AcDbSpline
210
0
220
0
230
1
 70
8
 71
2
 72
6
 73
3
 74
0
 40
0
 40
0
 40
0
 40
1
 40
1
 40
1
 10
61.6882
 20
21.7084
 30
9.5
 10
60.6581
 20
22.9462
 30
9.5
 10
59.1496
 20
22.9462
 30
9.5
  0
LINE
  5
CC1
330
A02
100
AcDbEntity
  8
Fusion
100
AcDbLine
 10
61.6882
 20
21.7084
 30
6.3
 11
61.6882
 21
21.7084
 31
9.5
  0
SPLINE
  5
CC2
330
A02
100
AcDbEntity
  8
Fusion
100
AcDbSpline
210
0
220
0
230
1
 70
8
 71
3
 72
14
 73
10
 74
0
 40
0
 40
0
 40
0
 40
0
 40
0.348552
 40
0.348552
 40
0.348552
 40
0.64883
 40
0.64883
 40
0.64883
 40
1
 40
1
 40
1
 40
1
 10
61.6882
 20
21.7084
 30
6.3
 10
61.9884
 20
21.3483
 30
6.3
 10
62.2034
 20
20.9203
 30
6.3
 10
62.3549
 20
20.4719
 30
6.3
 10
62.4831
 20
20.0829
 30
6.3
 10
62.5739
 20
19.6834
 30
6.3
 10
62.6275
 20
19.2734
 30
6.3
 10
62.6904
 20
18.7948
 30
6.3
 10
62.7207
 20
18.3125
 30
6.3
 10
62.7184
 20
17.8265
 30
6.3
  0
LINE
  5
CC3
330
A02
100
AcDbEntity
  8
Fusion
100
AcDbLine
 10
61.6882
 20
21.7084
 30
6.3
 11
61.6882
 21
21.7084
 31
9.5
  0
SPLINE
  5
CC4
330
A02
100
AcDbEntity
  8
Fusion
100
AcDbSpline
210
0
220
0
230
1
 70
8
 71
2
 72
6
 73
3
 74
0
 40
0
 40
0
 40
0
 40
1
 40
1
 40
1
 10
62.7184
 20
17.8265
 30
9.5
 10
62.7184
 20
20.4714
 30
9.5
 10
61.6882
 20
21.7084
 30
9.5
  0
LINE
  5
CC5
330
A02
100
AcDbEntity
  8
Fusion
100
AcDbLine
 10
62.7184
 20
17.8265
 30
6.3
 11
62.7184
 21
17.8265
 31
9.5
  0
SPLINE
  5
CC6
330
A02
100
AcDbEntity
  8
Fusion
100
AcDbSpline
210
0
220
0
230
1
 70
8
 71
3
 72
11
 73
7
 74
0
 40
0
 40
0
 40
0
 40
0
 40
0.60084
 40
0.60084
 40
0.60084
 40
1
 40
1
 40
1
 40
1
 10
62.7184
 20
17.8265
 30
6.3
 10
62.7172
 20
17.0588
 30
6.3
 10
62.6449
 20
16.2869
 30
6.3
 10
62.4144
 20
15.5636
 30
6.3
 10
62.2613
 20
15.085
 30
6.3
 10
62.0321
 20
14.6298
 30
6.3
 10
61.7062
 20
14.2536
 30
6.3
  0
LINE
  5
CC7
330
A02
100
AcDbEntity
  8
Fusion
100
AcDbLine
 10
62.7184
 20
17.8265
 30
6.3
 11
62.7184
 21
17.8265
 31
9.5
  0
SPLINE
  5
CC8
330
A02
100
AcDbEntity
  8
Fusion
100
AcDbSpline
210
0
220
0
230
1
 70
8
 71
2
 72
6
 73
3
 74
0
 40
0
 40
0
 40
0
 40
1
 40
1
 40
1
 10
61.7062
 20
14.2536
 30
9.5
 10
62.7184
 20
15.4244
 30
9.5
 10
62.7184
 20
17.8265
 30
9.5
  0
LINE
  5
CC9
330
A02
100
AcDbEntity
  8
Fusion
100
AcDbLine
 10
61.7062
 20
14.2536
 30
6.3
 11
61.7062
 21
14.2536
 31
9.5
  0
SPLINE
  5
CCA
330
A02
100
AcDbEntity
  8
Fusion
100
AcDbSpline
210
0
220
0
230
1
 70
8
 71
3
 72
11
 73
7
 74
0
 40
0
 40
0
 40
0
 40
0
 40
0.601272
 40
0.601272
 40
0.601272
 40
1
 40
1
 40
1
 40
1
 10
61.7062
 20
14.2536
 30
6.3
 10
61.3357
 20
13.8221
 30
6.3
 10
60.8745
 20
13.4687
 30
6.3
 10
60.3459
 20
13.2739
 30
6.3
 10
59.9966
 20
13.1435
 30
6.3
 10
59.6229
 20
13.0824
 30
6.3
 10
59.2477
 20
13.0828
 30
6.3
  0
LINE
  5
CCB
330
A02
100
AcDbEntity
  8
Fusion
100
AcDbLine
 10
61.7062
 20
14.2536
 30
6.3
 11
61.7062
 21
14.2536
 31
9.5
  0
SPLINE
  5
CCC
330
A02
100
AcDbEntity
  8
Fusion
100
AcDbSpline
210
0
220
0
230
1
 70
8
 71
2
 72
6
 73
3
 74
0
 40
0
 40
0
 40
0
 40
1
 40
1
 40
1
 10
59.2477
 20
13.0828
 30
9.5
 10
60.6949
 20
13.0828
 30
9.5
 10
61.7062
 20
14.2536
 30
9.5
  0
LINE
  5
CCD
330
A02
100
AcDbEntity
  8
Fusion
100
AcDbLine
 10
59.2477
 20
13.0828
 30
6.3
 11
59.2477
 21
13.0828
 31
9.5
  0
SPLINE
  5
CCE
330
A02
100
AcDbEntity
  8
Fusion
100
AcDbSpline
210
0
220
0
230
1
 70
8
 71
3
 72
11
 73
7
 74
0
 40
0
 40
0
 40
0
 40
0
 40
0.603778
 40
0.603778
 40
0.603778
 40
1
 40
1
 40
1
 40
1
 10
59.2477
 20
13.0828
 30
6.3
 10
58.67
 20
13.0796
 30
6.3
 10
58.098
 20
13.2431
 30
6.3
 10
57.6122
 20
13.5552
 30
6.3
 10
57.2924
 20
13.758
 30
6.3
 10
57.008
 20
14.0173
 30
6.3
 10
56.7582
 20
14.3076
 30
6.3
  0
LINE
  5
CCF
330
A02
100
AcDbEntity
  8
Fusion
100
AcDbLine
 10
59.2477
 20
13.0828
 30
6.3
 11
59.2477
 21
13.0828
 31
9.5
  0
SPLINE
  5
CD0
330
A02
100
AcDbEntity
  8
Fusion
100
AcDbSpline
210
0
220
0
230
1
 70
8
 71
2
 72
6
 73
3
 74
0
 40
0
 40
0
 40
0
 40
1
 40
1
 40
1
 10
56.7582
 20
14.3076
 30
9.5
 10
57.8129
 20
13.0828
 30
9.5
 10
59.2477
 20
13.0828
 30
9.5
  0
LINE
  5
CD1
330
A02
100
AcDbEntity
  8
Fusion
100
AcDbLine
 10
56.7582
 20
14.3076
 30
6.3
 11
56.7582
 21
14.3076
 31
9.5
  0
SPLINE
  5
CD2
330
A02
100
AcDbEntity
  8
Fusion
100
AcDbSpline
210
0
220
0
230
1
 70
8
 71
3
 72
11
 73
7
 74
0
 40
0
 40
0
 40
0
 40
0
 40
0.427612
 40
0.427612
 40
0.427612
 40
1
 40
1
 40
1
 40
1
 10
70.7414
 20
14.3141
 30
6.3
 10
70.3713
 20
14.7304
 30
6.3
 10
70.1137
 20
15.2396
 30
6.3
 10
69.9473
 20
15.7754
 30
6.3
 10
69.7241
 20
16.4952
 30
6.3
 10
69.6508
 20
17.2595
 30
6.3
 10
69.6499
 20
18.0203
 30
6.3
  0
LINE
  5
CD3
330
A02
100
AcDbEntity
  8
Fusion
100
AcDbLine
 10
70.7414
 20
14.3141
 30
6.3
 11
70.7414
 21
14.3141
 31
9.5
  0
SPLINE
  5
CD4
330
A02
100
AcDbEntity
  8
Fusion
100
AcDbSpline
210
0
220
0
230
1
 70
8
 71
2
 72
6
 73
3
 74
0
 40
0
 40
0
 40
0
 40
1
 40
1
 40
1
 10
69.6499
 20
18.0203
 30
9.5
 10
69.6499
 20
15.5454
 30
9.5
 10
70.7414
 20
14.3141
 30
9.5
  0
LINE
  5
CD5
330
A02
100
AcDbEntity
  8
Fusion
100
AcDbLine
 10
69.6499
 20
18.0203
 30
6.3
 11
69.6499
 21
18.0203
 31
9.5
  0
SPLINE
  5
CD6
330
A02
100
AcDbEntity
  8
Fusion
100
AcDbSpline
210
0
220
0
230
1
 70
8
 71
3
 72
11
 73
7
 74
0
 40
0
 40
0
 40
0
 40
0
 40
0.573773
 40
0.573773
 40
0.573773
 40
1
 40
1
 40
1
 40
1
 10
69.6499
 20
18.0203
 30
6.3
 10
69.6509
 20
18.7819
 30
6.3
 10
69.7241
 20
19.5473
 30
6.3
 10
69.9484
 20
20.2676
 30
6.3
 10
70.1148
 20
20.8008
 30
6.3
 10
70.372
 20
21.3073
 30
6.3
 10
70.7414
 20
21.7207
 30
6.3
  0
LINE
  5
CD7
330
A02
100
AcDbEntity
  8
Fusion
100
AcDbLine
 10
69.6499
 20
18.0203
 30
6.3
 11
69.6499
 21
18.0203
 31
9.5
  0
SPLINE
  5
CD8
330
A02
100
AcDbEntity
  8
Fusion
100
AcDbSpline
210
0
220
0
230
1
 70
8
 71
2
 72
6
 73
3
 74
0
 40
0
 40
0
 40
0
 40
1
 40
1
 40
1
 10
70.7414
 20
21.7207
 30
9.5
 10
69.6499
 20
20.4959
 30
9.5
 10
69.6499
 20
18.0203
 30
9.5
  0
LINE
  5
CD9
330
A02
100
AcDbEntity
  8
Fusion
100
AcDbLine
 10
70.7414
 20
21.7207
 30
6.3
 11
70.7414
 21
21.7207
 31
9.5
  0
SPLINE
  5
CDA
330
A02
100
AcDbEntity
  8
Fusion
100
AcDbSpline
210
0
220
0
230
1
 70
8
 71
3
 72
11
 73
7
 74
0
 40
0
 40
0
 40
0
 40
0
 40
0.486266
 40
0.486266
 40
0.486266
 40
1
 40
1
 40
1
 40
1
 10
70.7414
 20
21.7207
 30
6.3
 10
71.0769
 20
22.0988
 30
6.3
 10
71.4813
 20
22.4145
 30
6.3
 10
71.9383
 20
22.6237
 30
6.3
 10
72.4202
 20
22.8468
 30
6.3
 10
72.954
 20
22.9473
 30
6.3
 10
73.4885
 20
22.9462
 30
6.3
  0
LINE
  5
CDB
330
A02
100
AcDbEntity
  8
Fusion
100
AcDbLine
 10
70.7414
 20
21.7207
 30
6.3
 11
70.7414
 21
21.7207
 31
9.5
  0
SPLINE
  5
CDC
330
A02
100
AcDbEntity
  8
Fusion
100
AcDbSpline
210
0
220
0
230
1
 70
8
 71
2
 72
6
 73
3
 74
0
 40
0
 40
0
 40
0
 40
1
 40
1
 40
1
 10
73.4885
 20
22.9462
 30
9.5
 10
71.8328
 20
22.9462
 30
9.5
 10
70.7414
 20
21.7207
 30
9.5
  0
LINE
  5
CDD
330
A02
100
AcDbEntity
  8
Fusion
100
AcDbLine
 10
73.4885
 20
22.9462
 30
6.3
 11
73.4885
 21
22.9462
 31
9.5
  0
SPLINE
  5
CDE
330
A02
100
AcDbEntity
  8
Fusion
100
AcDbSpline
210
0
220
0
230
1
 70
8
 71
3
 72
11
 73
7
 74
0
 40
0
 40
0
 40
0
 40
0
 40
0.482096
 40
0.482096
 40
0.482096
 40
1
 40
1
 40
1
 40
1
 10
73.4885
 20
22.9462
 30
6.3
 10
73.9872
 20
22.9471
 30
6.3
 10
74.485
 20
22.8569
 30
6.3
 10
74.9395
 20
22.659
 30
6.3
 10
75.4289
 20
22.4484
 30
6.3
 10
75.8609
 20
22.116
 30
6.3
 10
76.2168
 20
21.7149
 30
6.3
  0
LINE
  5
CDF
330
A02
100
AcDbEntity
  8
Fusion
100
AcDbLine
 10
73.4885
 20
22.9462
 30
6.3
 11
73.4885
 21
22.9462
 31
9.5
  0
SPLINE
  5
CE0
330
A02
100
AcDbEntity
  8
Fusion
100
AcDbSpline
210
0
220
0
230
1
 70
8
 71
2
 72
6
 73
3
 74
0
 40
0
 40
0
 40
0
 40
1
 40
1
 40
1
 10
76.2168
 20
21.7149
 30
9.5
 10
75.1195
 20
22.9462
 30
9.5
 10
73.4885
 20
22.9462
 30
9.5
  0
LINE
  5
CE1
330
A02
100
AcDbEntity
  8
Fusion
100
AcDbLine
 10
76.2168
 20
21.7149
 30
6.3
 11
76.2168
 21
21.7149
 31
9.5
  0
SPLINE
  5
CE2
330
A02
100
AcDbEntity
  8
Fusion
100
AcDbSpline
210
0
220
0
230
1
 70
8
 71
3
 72
11
 73
7
 74
0
 40
0
 40
0
 40
0
 40
0
 40
0.462481
 40
0.462481
 40
0.462481
 40
1
 40
1
 40
1
 40
1
 10
76.2168
 20
21.7149
 30
6.3
 10
76.6111
 20
21.2744
 30
6.3
 10
76.8821
 20
20.7321
 30
6.3
 10
77.0501
 20
20.1611
 30
6.3
 10
77.2462
 20
19.4956
 30
6.3
 10
77.3142
 20
18.7933
 30
6.3
 10
77.3148
 20
18.093
 30
6.3
  0
LINE
  5
CE3
330
A02
100
AcDbEntity
  8
Fusion
100
AcDbLine
 10
76.2168
 20
21.7149
 30
6.3
 11
76.2168
 21
21.7149
 31
9.5
  0
SPLINE
  5
CE4
330
A02
100
AcDbEntity
  8
Fusion
100
AcDbSpline
210
0
220
0
230
1
 70
8
 71
2
 72
6
 73
3
 74
0
 40
0
 40
0
 40
0
 40
1
 40
1
 40
1
 10
77.3148
 20
18.093
 30
9.5
 10
77.3148
 20
20.4836
 30
9.5
 10
76.2168
 20
21.7149
 30
9.5
  0
LINE
  5
CE5
330
A02
100
AcDbEntity
  8
Fusion
100
AcDbLine
 10
77.3148
 20
18.093
 30
6.3
 11
77.3148
 21
18.093
 31
9.5
  0
SPLINE
  5
CE6
330
A02
100
AcDbEntity
  8
Fusion
100
AcDbSpline
210
0
220
0
230
1
 70
8
 71
3
 72
11
 73
7
 74
0
 40
0
 40
0
 40
0
 40
0
 40
0.591435
 40
0.591435
 40
0.591435
 40
1
 40
1
 40
1
 40
1
 10
77.3148
 20
18.093
 30
6.3
 10
77.3136
 20
17.2943
 30
6.3
 10
77.2375
 20
16.4909
 30
6.3
 10
76.9977
 20
15.7369
 30
6.3
 10
76.8321
 20
15.2181
 30
6.3
 10
76.5812
 20
14.7248
 30
6.3
 10
76.2233
 20
14.3199
 30
6.3
  0
LINE
  5
CE7
330
A02
100
AcDbEntity
  8
Fusion
100
AcDbLine
 10
77.3148
 20
18.093
 30
6.3
 11
77.3148
 21
18.093
 31
9.5
  0
SPLINE
  5
CE8
330
A02
100
AcDbEntity
  8
Fusion
100
AcDbSpline
210
0
220
0
230
1
 70
8
 71
2
 72
6
 73
3
 74
0
 40
0
 40
0
 40
0
 40
1
 40
1
 40
1
 10
76.2233
 20
14.3199
 30
9.5
 10
77.3148
 20
15.5577
 30
9.5
 10
77.3148
 20
18.093
 30
9.5
  0
LINE
  5
CE9
330
A02
100
AcDbEntity
  8
Fusion
100
AcDbLine
 10
76.2233
 20
14.3199
 30
6.3
 11
76.2233
 21
14.3199
 31
9.5
  0
SPLINE
  5
CEA
330
A02
100
AcDbEntity
  8
Fusion
100
AcDbSpline
210
0
220
0
230
1
 70
8
 71
3
 72
11
 73
7
 74
0
 40
0
 40
0
 40
0
 40
0
 40
0.506313
 40
0.506313
 40
0.506313
 40
1
 40
1
 40
1
 40
1
 10
76.2233
 20
14.3199
 30
6.3
 10
75.8763
 20
13.925
 30
6.3
 10
75.455
 20
13.5964
 30
6.3
 10
74.9774
 20
13.3847
 30
6.3
 10
74.5127
 20
13.1764
 30
6.3
 10
74.0009
 20
13.0819
 30
6.3
 10
73.4885
 20
13.0828
 30
6.3
  0
LINE
  5
CEB
330
A02
100
AcDbEntity
  8
Fusion
100
AcDbLine
 10
76.2233
 20
14.3199
 30
6.3
 11
76.2233
 21
14.3199
 31
9.5
  0
SPLINE
  5
CEC
330
A02
100
AcDbEntity
  8
Fusion
100
AcDbSpline
210
0
220
0
230
1
 70
8
 71
2
 72
6
 73
3
 74
0
 40
0
 40
0
 40
0
 40
1
 40
1
 40
1
 10
73.4885
 20
13.0828
 30
9.5
 10
75.1318
 20
13.0828
 30
9.5
 10
76.2233
 20
14.3199
 30
9.5
  0
LINE
  5
CED
330
A02
100
AcDbEntity
  8
Fusion
100
AcDbLine
 10
73.4885
 20
13.0828
 30
6.3
 11
73.4885
 21
13.0828
 31
9.5
  0
SPLINE
  5
CEE
330
A02
100
AcDbEntity
  8
Fusion
100
AcDbSpline
210
0
220
0
230
1
 70
8
 71
3
 72
11
 73
7
 74
0
 40
0
 40
0
 40
0
 40
0
 40
0.50952
 40
0.50952
 40
0.50952
 40
1
 40
1
 40
1
 40
1
 10
73.4885
 20
13.0828
 30
6.3
 10
72.958
 20
13.0818
 30
6.3
 10
72.428
 20
13.1813
 30
6.3
 10
71.9492
 20
13.4019
 30
6.3
 10
71.4875
 20
13.6122
 30
6.3
 10
71.0793
 20
13.9315
 30
6.3
 10
70.7414
 20
14.3141
 30
6.3
  0
LINE
  5
CEF
330
A02
100
AcDbEntity
  8
Fusion
100
AcDbLine
 10
73.4885
 20
13.0828
 30
6.3
 11
73.4885
 21
13.0828
 31
9.5
  0
SPLINE
  5
CF0
330
A02
100
AcDbEntity
  8
Fusion
100
AcDbSpline
210
0
220
0
230
1
 70
8
 71
2
 72
6
 73
3
 74
0
 40
0
 40
0
 40
0
 40
1
 40
1
 40
1
 10
70.7414
 20
14.3141
 30
9.5
 10
71.8328
 20
13.0828
 30
9.5
 10
73.4885
 20
13.0828
 30
9.5
  0
LINE
  5
CF1
330
A02
100
AcDbEntity
  8
Fusion
100
AcDbLine
 10
70.7414
 20
14.3141
 30
6.3
 11
70.7414
 21
14.3141
 31
9.5
  0
SPLINE
  5
CF2
330
A02
100
AcDbEntity
  8
Fusion
100
AcDbSpline
210
0
220
0
230
1
 70
8
 71
3
 72
11
 73
7
 74
0
 40
0
 40
0
 40
0
 40
0
 40
0.427612
 40
0.427612
 40
0.427612
 40
1
 40
1
 40
1
 40
1
 10
112.654
 20
14.3141
 30
6.3
 10
112.284
 20
14.7304
 30
6.3
 10
112.027
 20
15.2396
 30
6.3
 10
111.86
 20
15.7754
 30
6.3
 10
111.637
 20
16.4952
 30
6.3
 10
111.564
 20
17.2595
 30
6.3
 10
111.563
 20
18.0203
 30
6.3
  0
LINE
  5
CF3
330
A02
100
AcDbEntity
  8
Fusion
100
AcDbLine
 10
112.654
 20
14.3141
 30
6.3
 11
112.654
 21
14.3141
 31
9.5
  0
SPLINE
  5
CF4
330
A02
100
AcDbEntity
  8
Fusion
100
AcDbSpline
210
0
220
0
230
1
 70
8
 71
2
 72
6
 73
3
 74
0
 40
0
 40
0
 40
0
 40
1
 40
1
 40
1
 10
111.563
 20
18.0203
 30
9.5
 10
111.563
 20
15.5454
 30
9.5
 10
112.654
 20
14.3141
 30
9.5
  0
LINE
  5
CF5
330
A02
100
AcDbEntity
  8
Fusion
100
AcDbLine
 10
111.563
 20
18.0203
 30
6.3
 11
111.563
 21
18.0203
 31
9.5
  0
SPLINE
  5
CF6
330
A02
100
AcDbEntity
  8
Fusion
100
AcDbSpline
210
0
220
0
230
1
 70
8
 71
3
 72
11
 73
7
 74
0
 40
0
 40
0
 40
0
 40
0
 40
0.573773
 40
0.573773
 40
0.573773
 40
1
 40
1
 40
1
 40
1
 10
111.563
 20
18.0203
 30
6.3
 10
111.564
 20
18.7819
 30
6.3
 10
111.637
 20
19.5473
 30
6.3
 10
111.861
 20
20.2676
 30
6.3
 10
112.028
 20
20.8008
 30
6.3
 10
112.285
 20
21.3073
 30
6.3
 10
112.654
 20
21.7207
 30
6.3
  0
LINE
  5
CF7
330
A02
100
AcDbEntity
  8
Fusion
100
AcDbLine
 10
111.563
 20
18.0203
 30
6.3
 11
111.563
 21
18.0203
 31
9.5
  0
SPLINE
  5
CF8
330
A02
100
AcDbEntity
  8
Fusion
100
AcDbSpline
210
0
220
0
230
1
 70
8
 71
2
 72
6
 73
3
 74
0
 40
0
 40
0
 40
0
 40
1
 40
1
 40
1
 10
112.654
 20
21.7207
 30
9.5
 10
111.563
 20
20.4959
 30
9.5
 10
111.563
 20
18.0203
 30
9.5
  0
LINE
  5
CF9
330
A02
100
AcDbEntity
  8
Fusion
100
AcDbLine
 10
112.654
 20
21.7207
 30
6.3
 11
112.654
 21
21.7207
 31
9.5
  0
SPLINE
  5
CFA
330
A02
100
AcDbEntity
  8
Fusion
100
AcDbSpline
210
0
220
0
230
1
 70
8
 71
3
 72
11
 73
7
 74
0
 40
0
 40
0
 40
0
 40
0
 40
0.486266
 40
0.486266
 40
0.486266
 40
1
 40
1
 40
1
 40
1
 10
112.654
 20
21.7207
 30
6.3
 10
112.99
 20
22.0988
 30
6.3
 10
113.394
 20
22.4145
 30
6.3
 10
113.851
 20
22.6237
 30
6.3
 10
114.333
 20
22.8468
 30
6.3
 10
114.867
 20
22.9473
 30
6.3
 10
115.401
 20
22.9462
 30
6.3
  0
LINE
  5
CFB
330
A02
100
AcDbEntity
  8
Fusion
100
AcDbLine
 10
112.654
 20
21.7207
 30
6.3
 11
112.654
 21
21.7207
 31
9.5
  0
SPLINE
  5
CFC
330
A02
100
AcDbEntity
  8
Fusion
100
AcDbSpline
210
0
220
0
230
1
 70
8
 71
2
 72
6
 73
3
 74
0
 40
0
 40
0
 40
0
 40
1
 40
1
 40
1
 10
115.401
 20
22.9462
 30
9.5
 10
113.746
 20
22.9462
 30
9.5
 10
112.654
 20
21.7207
 30
9.5
  0
LINE
  5
CFD
330
A02
100
AcDbEntity
  8
Fusion
100
AcDbLine
 10
115.401
 20
22.9462
 30
6.3
 11
115.401
 21
22.9462
 31
9.5
  0
SPLINE
  5
CFE
330
A02
100
AcDbEntity
  8
Fusion
100
AcDbSpline
210
0
220
0
230
1
 70
8
 71
3
 72
11
 73
7
 74
0
 40
0
 40
0
 40
0
 40
0
 40
0.482096
 40
0.482096
 40
0.482096
 40
1
 40
1
 40
1
 40
1
 10
115.401
 20
22.9462
 30
6.3
 10
115.9
 20
22.9471
 30
6.3
 10
116.398
 20
22.8569
 30
6.3
 10
116.852
 20
22.659
 30
6.3
 10
117.342
 20
22.4484
 30
6.3
 10
117.774
 20
22.116
 30
6.3
 10
118.13
 20
21.7149
 30
6.3
  0
LINE
  5
CFF
330
A02
100
AcDbEntity
  8
Fusion
100
AcDbLine
 10
115.401
 20
22.9462
 30
6.3
 11
115.401
 21
22.9462
 31
9.5
  0
SPLINE
  5
D00
330
A02
100
AcDbEntity
  8
Fusion
100
AcDbSpline
210
0
220
0
230
1
 70
8
 71
2
 72
6
 73
3
 74
0
 40
0
 40
0
 40
0
 40
1
 40
1
 40
1
 10
118.13
 20
21.7149
 30
9.5
 10
117.032
 20
22.9462
 30
9.5
 10
115.401
 20
22.9462
 30
9.5
  0
LINE
  5
D01
330
A02
100
AcDbEntity
  8
Fusion
100
AcDbLine
 10
118.13
 20
21.7149
 30
6.3
 11
118.13
 21
21.7149
 31
9.5
  0
SPLINE
  5
D02
330
A02
100
AcDbEntity
  8
Fusion
100
AcDbSpline
210
0
220
0
230
1
 70
8
 71
3
 72
11
 73
7
 74
0
 40
0
 40
0
 40
0
 40
0
 40
0.462481
 40
0.462481
 40
0.462481
 40
1
 40
1
 40
1
 40
1
 10
118.13
 20
21.7149
 30
6.3
 10
118.524
 20
21.2744
 30
6.3
 10
118.795
 20
20.7321
 30
6.3
 10
118.963
 20
20.1611
 30
6.3
 10
119.159
 20
19.4956
 30
6.3
 10
119.227
 20
18.7933
 30
6.3
 10
119.228
 20
18.093
 30
6.3
  0
LINE
  5
D03
330
A02
100
AcDbEntity
  8
Fusion
100
AcDbLine
 10
118.13
 20
21.7149
 30
6.3
 11
118.13
 21
21.7149
 31
9.5
  0
SPLINE
  5
D04
330
A02
100
AcDbEntity
  8
Fusion
100
AcDbSpline
210
0
220
0
230
1
 70
8
 71
2
 72
6
 73
3
 74
0
 40
0
 40
0
 40
0
 40
1
 40
1
 40
1
 10
119.228
 20
18.093
 30
9.5
 10
119.228
 20
20.4836
 30
9.5
 10
118.13
 20
21.7149
 30
9.5
  0
LINE
  5
D05
330
A02
100
AcDbEntity
  8
Fusion
100
AcDbLine
 10
119.228
 20
18.093
 30
6.3
 11
119.228
 21
18.093
 31
9.5
  0
SPLINE
  5
D06
330
A02
100
AcDbEntity
  8
Fusion
100
AcDbSpline
210
0
220
0
230
1
 70
8
 71
3
 72
11
 73
7
 74
0
 40
0
 40
0
 40
0
 40
0
 40
0.591435
 40
0.591435
 40
0.591435
 40
1
 40
1
 40
1
 40
1
 10
119.228
 20
18.093
 30
6.3
 10
119.226
 20
17.2943
 30
6.3
 10
119.15
 20
16.4909
 30
6.3
 10
118.91
 20
15.7369
 30
6.3
 10
118.745
 20
15.2181
 30
6.3
 10
118.494
 20
14.7248
 30
6.3
 10
118.136
 20
14.3199
 30
6.3
  0
LINE
  5
D07
330
A02
100
AcDbEntity
  8
Fusion
100
AcDbLine
 10
119.228
 20
18.093
 30
6.3
 11
119.228
 21
18.093
 31
9.5
  0
SPLINE
  5
D08
330
A02
100
AcDbEntity
  8
Fusion
100
AcDbSpline
210
0
220
0
230
1
 70
8
 71
2
 72
6
 73
3
 74
0
 40
0
 40
0
 40
0
 40
1
 40
1
 40
1
 10
118.136
 20
14.3199
 30
9.5
 10
119.228
 20
15.5577
 30
9.5
 10
119.228
 20
18.093
 30
9.5
  0
LINE
  5
D09
330
A02
100
AcDbEntity
  8
Fusion
100
AcDbLine
 10
118.136
 20
14.3199
 30
6.3
 11
118.136
 21
14.3199
 31
9.5
  0
SPLINE
  5
D0A
330
A02
100
AcDbEntity
  8
Fusion
100
AcDbSpline
210
0
220
0
230
1
 70
8
 71
3
 72
11
 73
7
 74
0
 40
0
 40
0
 40
0
 40
0
 40
0.506313
 40
0.506313
 40
0.506313
 40
1
 40
1
 40
1
 40
1
 10
118.136
 20
14.3199
 30
6.3
 10
117.789
 20
13.925
 30
6.3
 10
117.368
 20
13.5964
 30
6.3
 10
116.89
 20
13.3847
 30
6.3
 10
116.425
 20
13.1764
 30
6.3
 10
115.914
 20
13.0819
 30
6.3
 10
115.401
 20
13.0828
 30
6.3
  0
LINE
  5
D0B
330
A02
100
AcDbEntity
  8
Fusion
100
AcDbLine
 10
118.136
 20
14.3199
 30
6.3
 11
118.136
 21
14.3199
 31
9.5
  0
SPLINE
  5
D0C
330
A02
100
AcDbEntity
  8
Fusion
100
AcDbSpline
210
0
220
0
230
1
 70
8
 71
2
 72
6
 73
3
 74
0
 40
0
 40
0
 40
0
 40
1
 40
1
 40
1
 10
115.401
 20
13.0828
 30
9.5
 10
117.045
 20
13.0828
 30
9.5
 10
118.136
 20
14.3199
 30
9.5
  0
LINE
  5
D0D
330
A02
100
AcDbEntity
  8
Fusion
100
AcDbLine
 10
115.401
 20
13.0828
 30
6.3
 11
115.401
 21
13.0828
 31
9.5
  0
SPLINE
  5
D0E
330
A02
100
AcDbEntity
  8
Fusion
100
AcDbSpline
210
0
220
0
230
1
 70
8
 71
3
 72
11
 73
7
 74
0
 40
0
 40
0
 40
0
 40
0
 40
0.50952
 40
0.50952
 40
0.50952
 40
1
 40
1
 40
1
 40
1
 10
115.401
 20
13.0828
 30
6.3
 10
114.871
 20
13.0818
 30
6.3
 10
114.341
 20
13.1813
 30
6.3
 10
113.862
 20
13.4019
 30
6.3
 10
113.4
 20
13.6122
 30
6.3
 10
112.992
 20
13.9315
 30
6.3
 10
112.654
 20
14.3141
 30
6.3
  0
LINE
  5
D0F
330
A02
100
AcDbEntity
  8
Fusion
100
AcDbLine
 10
115.401
 20
13.0828
 30
6.3
 11
115.401
 21
13.0828
 31
9.5
  0
SPLINE
  5
D10
330
A02
100
AcDbEntity
  8
Fusion
100
AcDbSpline
210
0
220
0
230
1
 70
8
 71
2
 72
6
 73
3
 74
0
 40
0
 40
0
 40
0
 40
1
 40
1
 40
1
 10
112.654
 20
14.3141
 30
9.5
 10
113.746
 20
13.0828
 30
9.5
 10
115.401
 20
13.0828
 30
9.5
  0
LINE
  5
D11
330
A02
100
AcDbEntity
  8
Fusion
100
AcDbLine
 10
112.654
 20
14.3141
 30
6.3
 11
112.654
 21
14.3141
 31
9.5
  0
SPLINE
  5
D12
330
A02
100
AcDbEntity
  8
Fusion
100
AcDbSpline
210
0
220
0
230
1
 70
8
 71
3
 72
11
 73
7
 74
0
 40
0
 40
0
 40
0
 40
0
 40
0.357162
 40
0.357162
 40
0.357162
 40
1
 40
1
 40
1
 40
1
 10
98.5851
 20
14.5136
 30
6.3
 10
98.2822
 20
14.8614
 30
6.3
 10
98.0661
 20
15.2809
 30
6.3
 10
97.9156
 20
15.7218
 30
6.3
 10
97.646
 20
16.5196
 30
6.3
 10
97.5693
 20
17.3787
 30
6.3
 10
97.5672
 20
18.2304
 30
6.3
  0
SPLINE
  5
D13
330
A02
100
AcDbEntity
  8
Fusion
100
AcDbSpline
210
0
220
0
230
1
 70
8
 71
3
 72
11
 73
7
 74
0
 40
0
 40
0
 40
0
 40
0
 40
0.565828
 40
0.565828
 40
0.565828
 40
1
 40
1
 40
1
 40
1
 10
97.5672
 20
18.2304
 30
6.3
 10
97.568
 20
18.9461
 30
6.3
 10
97.6368
 20
19.6644
 30
6.3
 10
97.8426
 20
20.342
 30
6.3
 10
98.0001
 20
20.8602
 30
6.3
 10
98.2449
 20
21.3529
 30
6.3
 10
98.5974
 20
21.7583
 30
6.3
  0
SPLINE
  5
D14
330
A02
100
AcDbEntity
  8
Fusion
100
AcDbSpline
210
0
220
0
230
1
 70
8
 71
3
 72
11
 73
7
 74
0
 40
0
 40
0
 40
0
 40
0
 40
0.600261
 40
0.600261
 40
0.600261
 40
1
 40
1
 40
1
 40
1
 10
98.5974
 20
21.7583
 30
6.3
 10
98.9743
 20
22.1954
 30
6.3
 10
99.4429
 20
22.5536
 30
6.3
 10
99.9796
 20
22.7514
 30
6.3
 10
100.336
 20
22.8844
 30
6.3
 10
100.717
 20
22.9467
 30
6.3
 10
101.099
 20
22.9462
 30
6.3
  0
SPLINE
  5
D15
330
A02
100
AcDbEntity
  8
Fusion
100
AcDbSpline
210
0
220
0
230
1
 70
8
 71
3
 72
11
 73
7
 74
0
 40
0
 40
0
 40
0
 40
0
 40
0.390392
 40
0.390392
 40
0.390392
 40
1
 40
1
 40
1
 40
1
 10
101.099
 20
22.9462
 30
6.3
 10
101.48
 20
22.9467
 30
6.3
 10
101.86
 20
22.886
 30
6.3
 10
102.216
 20
22.757
 30
6.3
 10
102.774
 20
22.5575
 30
6.3
 10
103.262
 20
22.1897
 30
6.3
 10
103.656
 20
21.7395
 30
6.3
  0
SPLINE
  5
D16
330
A02
100
AcDbEntity
  8
Fusion
100
AcDbSpline
210
0
220
0
230
1
 70
8
 71
3
 72
11
 73
7
 74
0
 40
0
 40
0
 40
0
 40
0
 40
0.441552
 40
0.441552
 40
0.441552
 40
1
 40
1
 40
1
 40
1
 10
103.656
 20
21.7395
 30
6.3
 10
104.024
 20
21.3226
 30
6.3
 10
104.279
 20
20.813
 30
6.3
 10
104.441
 20
20.2767
 30
6.3
 10
104.647
 20
19.5963
 30
6.3
 10
104.716
 20
18.8757
 30
6.3
 10
104.717
 20
18.1576
 30
6.3
  0
SPLINE
  5
D17
330
A02
100
AcDbEntity
  8
Fusion
100
AcDbSpline
210
0
220
0
230
1
 70
8
 71
3
 72
11
 73
7
 74
0
 40
0
 40
0
 40
0
 40
0
 40
0.619872
 40
0.619872
 40
0.619872
 40
1
 40
1
 40
1
 40
1
 10
104.717
 20
18.1576
 30
6.3
 10
104.715
 20
17.3486
 30
6.3
 10
104.64
 20
16.5338
 30
6.3
 10
104.389
 20
15.7743
 30
6.3
 10
104.235
 20
15.3106
 30
6.3
 10
104.008
 20
14.8701
 30
6.3
 10
103.687
 20
14.5079
 30
6.3
  0
SPLINE
  5
D18
330
A02
100
AcDbEntity
  8
Fusion
100
AcDbSpline
210
0
220
0
230
1
 70
8
 71
3
 72
11
 73
7
 74
0
 40
0
 40
0
 40
0
 40
0
 40
0.533771
 40
0.533771
 40
0.533771
 40
1
 40
1
 40
1
 40
1
 10
103.687
 20
14.5079
 30
6.3
 10
103.344
 20
14.1191
 30
6.3
 10
102.926
 20
13.798
 30
6.3
 10
102.452
 20
13.5993
 30
6.3
 10
102.039
 20
13.4241
 30
6.3
 10
101.588
 20
13.3437
 30
6.3
 10
101.136
 20
13.3445
 30
6.3
  0
SPLINE
  5
D19
330
A02
100
AcDbEntity
  8
Fusion
100
AcDbSpline
210
0
220
0
230
1
 70
8
 71
3
 72
11
 73
7
 74
0
 40
0
 40
0
 40
0
 40
0
 40
0.483076
 40
0.483076
 40
0.483076
 40
1
 40
1
 40
1
 40
1
 10
101.136
 20
13.3445
 30
6.3
 10
100.667
 20
13.3436
 30
6.3
 10
100.199
 20
13.4296
 30
6.3
 10
99.7727
 20
13.6184
 30
6.3
 10
99.3159
 20
13.8185
 30
6.3
 10
98.9143
 20
14.1339
 30
6.3
 10
98.5851
 20
14.5136
 30
6.3
  0
SPLINE
  5
D1A
330
A02
100
AcDbEntity
  8
Fusion
100
AcDbSpline
210
0
220
0
230
1
 70
8
 71
3
 72
11
 73
7
 74
0
 40
0
 40
0
 40
0
 40
0
 40
0.40824
 40
0.40824
 40
0.40824
 40
1
 40
1
 40
1
 40
1
 10
56.7582
 20
14.3076
 30
6.3
 10
56.4131
 20
14.7078
 30
6.3
 10
56.1712
 20
15.1915
 30
6.3
 10
56.011
 20
15.6996
 30
6.3
 10
55.7788
 20
16.4391
 30
6.3
 10
55.7046
 20
17.226
 30
6.3
 10
55.7035
 20
18.0088
 30
6.3
  0
SPLINE
  5
D1B
330
A02
100
AcDbEntity
  8
Fusion
100
AcDbSpline
210
0
220
0
230
1
 70
8
 71
3
 72
14
 73
10
 74
0
 40
0
 40
0
 40
0
 40
0
 40
0.353917
 40
0.353917
 40
0.353917
 40
0.655879
 40
0.655879
 40
0.655879
 40
1
 40
1
 40
1
 40
1
 10
55.7035
 20
18.0088
 30
6.3
 10
55.7012
 20
18.4819
 30
6.3
 10
55.7306
 20
18.9514
 30
6.3
 10
55.7917
 20
19.417
 30
6.3
 10
55.8436
 20
19.8151
 30
6.3
 10
55.9318
 20
20.2028
 30
6.3
 10
56.0564
 20
20.5801
 30
6.3
 10
56.201
 20
21.0071
 30
6.3
 10
56.4054
 20
21.4144
 30
6.3
 10
56.6903
 20
21.7574
 30
6.3
  0
SPLINE
  5
D1C
330
A02
100
AcDbEntity
  8
Fusion
100
AcDbSpline
210
0
220
0
230
1
 70
8
 71
3
 72
11
 73
7
 74
0
 40
0
 40
0
 40
0
 40
0
 40
0.571949
 40
0.571949
 40
0.571949
 40
1
 40
1
 40
1
 40
1
 10
56.6903
 20
21.7574
 30
6.3
 10
57.0364
 20
22.1764
 30
6.3
 10
57.4691
 20
22.523
 30
6.3
 10
57.9684
 20
22.7244
 30
6.3
 10
58.3408
 20
22.8765
 30
6.3
 10
58.7445
 20
22.9468
 30
6.3
 10
59.1496
 20
22.9462
 30
6.3
  0
SPLINE
  5
D1D
330
A02
100
AcDbEntity
  8
Fusion
100
AcDbSpline
210
0
220
0
230
1
 70
8
 71
3
 72
11
 73
7
 74
0
 40
0
 40
0
 40
0
 40
0
 40
0.404738
 40
0.404738
 40
0.404738
 40
1
 40
1
 40
1
 40
1
 10
59.1496
 20
22.9462
 30
6.3
 10
59.5452
 20
22.9468
 30
6.3
 10
59.9396
 20
22.8805
 30
6.3
 10
60.3061
 20
22.7381
 30
6.3
 10
60.8474
 20
22.5309
 30
6.3
 10
61.3156
 20
22.1588
 30
6.3
 10
61.6882
 20
21.7084
 30
6.3
  0
SPLINE
  5
D1E
330
A02
100
AcDbEntity
  8
Fusion
100
AcDbSpline
210
0
220
0
230
1
 70
8
 71
3
 72
14
 73
10
 74
0
 40
0
 40
0
 40
0
 40
0
 40
0.348552
 40
0.348552
 40
0.348552
 40
0.64883
 40
0.64883
 40
0.64883
 40
1
 40
1
 40
1
 40
1
 10
61.6882
 20
21.7084
 30
6.3
 10
61.9884
 20
21.3483
 30
6.3
 10
62.2034
 20
20.9203
 30
6.3
 10
62.3549
 20
20.4719
 30
6.3
 10
62.4831
 20
20.0829
 30
6.3
 10
62.5739
 20
19.6834
 30
6.3
 10
62.6275
 20
19.2734
 30
6.3
 10
62.6904
 20
18.7948
 30
6.3
 10
62.7207
 20
18.3125
 30
6.3
 10
62.7184
 20
17.8265
 30
6.3
  0
SPLINE
  5
D1F
330
A02
100
AcDbEntity
  8
Fusion
100
AcDbSpline
210
0
220
0
230
1
 70
8
 71
3
 72
11
 73
7
 74
0
 40
0
 40
0
 40
0
 40
0
 40
0.60084
 40
0.60084
 40
0.60084
 40
1
 40
1
 40
1
 40
1
 10
62.7184
 20
17.8265
 30
6.3
 10
62.7172
 20
17.0588
 30
6.3
 10
62.6449
 20
16.2869
 30
6.3
 10
62.4144
 20
15.5636
 30
6.3
 10
62.2613
 20
15.085
 30
6.3
 10
62.0321
 20
14.6298
 30
6.3
 10
61.7062
 20
14.2536
 30
6.3
  0
SPLINE
  5
D20
330
A02
100
AcDbEntity
  8
Fusion
100
AcDbSpline
210
0
220
0
230
1
 70
8
 71
3
 72
11
 73
7
 74
0
 40
0
 40
0
 40
0
 40
0
 40
0.601272
 40
0.601272
 40
0.601272
 40
1
 40
1
 40
1
 40
1
 10
61.7062
 20
14.2536
 30
6.3
 10
61.3357
 20
13.8221
 30
6.3
 10
60.8745
 20
13.4687
 30
6.3
 10
60.3459
 20
13.2739
 30
6.3
 10
59.9966
 20
13.1435
 30
6.3
 10
59.6229
 20
13.0824
 30
6.3
 10
59.2477
 20
13.0828
 30
6.3
  0
SPLINE
  5
D21
330
A02
100
AcDbEntity
  8
Fusion
100
AcDbSpline
210
0
220
0
230
1
 70
8
 71
3
 72
11
 73
7
 74
0
 40
0
 40
0
 40
0
 40
0
 40
0.603778
 40
0.603778
 40
0.603778
 40
1
 40
1
 40
1
 40
1
 10
59.2477
 20
13.0828
 30
6.3
 10
58.67
 20
13.0796
 30
6.3
 10
58.098
 20
13.2431
 30
6.3
 10
57.6122
 20
13.5552
 30
6.3
 10
57.2924
 20
13.758
 30
6.3
 10
57.008
 20
14.0173
 30
6.3
 10
56.7582
 20
14.3076
 30
6.3
  0
SPLINE
  5
D22
330
A02
100
AcDbEntity
  8
Fusion
100
AcDbSpline
210
0
220
0
230
1
 70
8
 71
3
 72
11
 73
7
 74
0
 40
0
 40
0
 40
0
 40
0
 40
0.427612
 40
0.427612
 40
0.427612
 40
1
 40
1
 40
1
 40
1
 10
70.7414
 20
14.3141
 30
6.3
 10
70.3713
 20
14.7304
 30
6.3
 10
70.1137
 20
15.2396
 30
6.3
 10
69.9473
 20
15.7754
 30
6.3
 10
69.7241
 20
16.4952
 30
6.3
 10
69.6508
 20
17.2595
 30
6.3
 10
69.6499
 20
18.0203
 30
6.3
  0
SPLINE
  5
D23
330
A02
100
AcDbEntity
  8
Fusion
100
AcDbSpline
210
0
220
0
230
1
 70
8
 71
3
 72
11
 73
7
 74
0
 40
0
 40
0
 40
0
 40
0
 40
0.573773
 40
0.573773
 40
0.573773
 40
1
 40
1
 40
1
 40
1
 10
69.6499
 20
18.0203
 30
6.3
 10
69.6509
 20
18.7819
 30
6.3
 10
69.7241
 20
19.5473
 30
6.3
 10
69.9484
 20
20.2676
 30
6.3
 10
70.1148
 20
20.8008
 30
6.3
 10
70.372
 20
21.3073
 30
6.3
 10
70.7414
 20
21.7207
 30
6.3
  0
SPLINE
  5
D24
330
A02
100
AcDbEntity
  8
Fusion
100
AcDbSpline
210
0
220
0
230
1
 70
8
 71
3
 72
11
 73
7
 74
0
 40
0
 40
0
 40
0
 40
0
 40
0.486266
 40
0.486266
 40
0.486266
 40
1
 40
1
 40
1
 40
1
 10
70.7414
 20
21.7207
 30
6.3
 10
71.0769
 20
22.0988
 30
6.3
 10
71.4813
 20
22.4145
 30
6.3
 10
71.9383
 20
22.6237
 30
6.3
 10
72.4202
 20
22.8468
 30
6.3
 10
72.954
 20
22.9473
 30
6.3
 10
73.4885
 20
22.9462
 30
6.3
  0
SPLINE
  5
D25
330
A02
100
AcDbEntity
  8
Fusion
100
AcDbSpline
210
0
220
0
230
1
 70
8
 71
3
 72
11
 73
7
 74
0
 40
0
 40
0
 40
0
 40
0
 40
0.482096
 40
0.482096
 40
0.482096
 40
1
 40
1
 40
1
 40
1
 10
73.4885
 20
22.9462
 30
6.3
 10
73.9872
 20
22.9471
 30
6.3
 10
74.485
 20
22.8569
 30
6.3
 10
74.9395
 20
22.659
 30
6.3
 10
75.4289
 20
22.4484
 30
6.3
 10
75.8609
 20
22.116
 30
6.3
 10
76.2168
 20
21.7149
 30
6.3
  0
SPLINE
  5
D26
330
A02
100
AcDbEntity
  8
Fusion
100
AcDbSpline
210
0
220
0
230
1
 70
8
 71
3
 72
11
 73
7
 74
0
 40
0
 40
0
 40
0
 40
0
 40
0.462481
 40
0.462481
 40
0.462481
 40
1
 40
1
 40
1
 40
1
 10
76.2168
 20
21.7149
 30
6.3
 10
76.6111
 20
21.2744
 30
6.3
 10
76.8821
 20
20.7321
 30
6.3
 10
77.0501
 20
20.1611
 30
6.3
 10
77.2462
 20
19.4956
 30
6.3
 10
77.3142
 20
18.7933
 30
6.3
 10
77.3148
 20
18.093
 30
6.3
  0
SPLINE
  5
D27
330
A02
100
AcDbEntity
  8
Fusion
100
AcDbSpline
210
0
220
0
230
1
 70
8
 71
3
 72
11
 73
7
 74
0
 40
0
 40
0
 40
0
 40
0
 40
0.591435
 40
0.591435
 40
0.591435
 40
1
 40
1
 40
1
 40
1
 10
77.3148
 20
18.093
 30
6.3
 10
77.3136
 20
17.2943
 30
6.3
 10
77.2375
 20
16.4909
 30
6.3
 10
76.9977
 20
15.7369
 30
6.3
 10
76.8321
 20
15.2181
 30
6.3
 10
76.5812
 20
14.7248
 30
6.3
 10
76.2233
 20
14.3199
 30
6.3
  0
SPLINE
  5
D28
330
A02
100
AcDbEntity
  8
Fusion
100
AcDbSpline
210
0
220
0
230
1
 70
8
 71
3
 72
11
 73
7
 74
0
 40
0
 40
0
 40
0
 40
0
 40
0.506313
 40
0.506313
 40
0.506313
 40
1
 40
1
 40
1
 40
1
 10
76.2233
 20
14.3199
 30
6.3
 10
75.8763
 20
13.925
 30
6.3
 10
75.455
 20
13.5964
 30
6.3
 10
74.9774
 20
13.3847
 30
6.3
 10
74.5127
 20
13.1764
 30
6.3
 10
74.0009
 20
13.0819
 30
6.3
 10
73.4885
 20
13.0828
 30
6.3
  0
SPLINE
  5
D29
330
A02
100
AcDbEntity
  8
Fusion
100
AcDbSpline
210
0
220
0
230
1
 70
8
 71
3
 72
11
 73
7
 74
0
 40
0
 40
0
 40
0
 40
0
 40
0.50952
 40
0.50952
 40
0.50952
 40
1
 40
1
 40
1
 40
1
 10
73.4885
 20
13.0828
 30
6.3
 10
72.958
 20
13.0818
 30
6.3
 10
72.428
 20
13.1813
 30
6.3
 10
71.9492
 20
13.4019
 30
6.3
 10
71.4875
 20
13.6122
 30
6.3
 10
71.0793
 20
13.9315
 30
6.3
 10
70.7414
 20
14.3141
 30
6.3
  0
SPLINE
  5
D2A
330
A02
100
AcDbEntity
  8
Fusion
100
AcDbSpline
210
0
220
0
230
1
 70
8
 71
3
 72
11
 73
7
 74
0
 40
0
 40
0
 40
0
 40
0
 40
0.427612
 40
0.427612
 40
0.427612
 40
1
 40
1
 40
1
 40
1
 10
112.654
 20
14.3141
 30
6.3
 10
112.284
 20
14.7304
 30
6.3
 10
112.027
 20
15.2396
 30
6.3
 10
111.86
 20
15.7754
 30
6.3
 10
111.637
 20
16.4952
 30
6.3
 10
111.564
 20
17.2595
 30
6.3
 10
111.563
 20
18.0203
 30
6.3
  0
SPLINE
  5
D2B
330
A02
100
AcDbEntity
  8
Fusion
100
AcDbSpline
210
0
220
0
230
1
 70
8
 71
3
 72
11
 73
7
 74
0
 40
0
 40
0
 40
0
 40
0
 40
0.573773
 40
0.573773
 40
0.573773
 40
1
 40
1
 40
1
 40
1
 10
111.563
 20
18.0203
 30
6.3
 10
111.564
 20
18.7819
 30
6.3
 10
111.637
 20
19.5473
 30
6.3
 10
111.861
 20
20.2676
 30
6.3
 10
112.028
 20
20.8008
 30
6.3
 10
112.285
 20
21.3073
 30
6.3
 10
112.654
 20
21.7207
 30
6.3
  0
SPLINE
  5
D2C
330
A02
100
AcDbEntity
  8
Fusion
100
AcDbSpline
210
0
220
0
230
1
 70
8
 71
3
 72
11
 73
7
 74
0
 40
0
 40
0
 40
0
 40
0
 40
0.486266
 40
0.486266
 40
0.486266
 40
1
 40
1
 40
1
 40
1
 10
112.654
 20
21.7207
 30
6.3
 10
112.99
 20
22.0988
 30
6.3
 10
113.394
 20
22.4145
 30
6.3
 10
113.851
 20
22.6237
 30
6.3
 10
114.333
 20
22.8468
 30
6.3
 10
114.867
 20
22.9473
 30
6.3
 10
115.401
 20
22.9462
 30
6.3
  0
SPLINE
  5
D2D
330
A02
100
AcDbEntity
  8
Fusion
100
AcDbSpline
210
0
220
0
230
1
 70
8
 71
3
 72
11
 73
7
 74
0
 40
0
 40
0
 40
0
 40
0
 40
0.482096
 40
0.482096
 40
0.482096
 40
1
 40
1
 40
1
 40
1
 10
115.401
 20
22.9462
 30
6.3
 10
115.9
 20
22.9471
 30
6.3
 10
116.398
 20
22.8569
 30
6.3
 10
116.852
 20
22.659
 30
6.3
 10
117.342
 20
22.4484
 30
6.3
 10
117.774
 20
22.116
 30
6.3
 10
118.13
 20
21.7149
 30
6.3
  0
SPLINE
  5
D2E
330
A02
100
AcDbEntity
  8
Fusion
100
AcDbSpline
210
0
220
0
230
1
 70
8
 71
3
 72
11
 73
7
 74
0
 40
0
 40
0
 40
0
 40
0
 40
0.462481
 40
0.462481
 40
0.462481
 40
1
 40
1
 40
1
 40
1
 10
118.13
 20
21.7149
 30
6.3
 10
118.524
 20
21.2744
 30
6.3
 10
118.795
 20
20.7321
 30
6.3
 10
118.963
 20
20.1611
 30
6.3
 10
119.159
 20
19.4956
 30
6.3
 10
119.227
 20
18.7933
 30
6.3
 10
119.228
 20
18.093
 30
6.3
  0
SPLINE
  5
D2F
330
A02
100
AcDbEntity
  8
Fusion
100
AcDbSpline
210
0
220
0
230
1
 70
8
 71
3
 72
11
 73
7
 74
0
 40
0
 40
0
 40
0
 40
0
 40
0.591435
 40
0.591435
 40
0.591435
 40
1
 40
1
 40
1
 40
1
 10
119.228
 20
18.093
 30
6.3
 10
119.226
 20
17.2943
 30
6.3
 10
119.15
 20
16.4909
 30
6.3
 10
118.91
 20
15.7369
 30
6.3
 10
118.745
 20
15.2181
 30
6.3
 10
118.494
 20
14.7248
 30
6.3
 10
118.136
 20
14.3199
 30
6.3
  0
SPLINE
  5
D30
330
A02
100
AcDbEntity
  8
Fusion
100
AcDbSpline
210
0
220
0
230
1
 70
8
 71
3
 72
11
 73
7
 74
0
 40
0
 40
0
 40
0
 40
0
 40
0.506313
 40
0.506313
 40
0.506313
 40
1
 40
1
 40
1
 40
1
 10
118.136
 20
14.3199
 30
6.3
 10
117.789
 20
13.925
 30
6.3
 10
117.368
 20
13.5964
 30
6.3
 10
116.89
 20
13.3847
 30
6.3
 10
116.425
 20
13.1764
 30
6.3
 10
115.914
 20
13.0819
 30
6.3
 10
115.401
 20
13.0828
 30
6.3
  0
SPLINE
  5
D31
330
A02
100
AcDbEntity
  8
Fusion
100
AcDbSpline
210
0
220
0
230
1
 70
8
 71
3
 72
11
 73
7
 74
0
 40
0
 40
0
 40
0
 40
0
 40
0.50952
 40
0.50952
 40
0.50952
 40
1
 40
1
 40
1
 40
1
 10
115.401
 20
13.0828
 30
6.3
 10
114.871
 20
13.0818
 30
6.3
 10
114.341
 20
13.1813
 30
6.3
 10
113.862
 20
13.4019
 30
6.3
 10
113.4
 20
13.6122
 30
6.3
 10
112.992
 20
13.9315
 30
6.3
 10
112.654
 20
14.3141
 30
6.3
  0
ENDSEC
  0
SECTION
  2
OBJECTS
  0
DICTIONARY
  5
F000
330
0
100
AcDbDictionary
  3
ACAD_GROUP
350
F001
  0
DICTIONARY
  5
F001
330
F000
100
AcDbDictionary
  0
ENDSEC
  0
EOF