<?xml version="1.0" standalone="no"?>
<!DOCTYPE svg PUBLIC "-//W3C//DTD SVG 20010904//EN"
 "http://www.w3.org/TR/2001/REC-SVG-20010904/DTD/svg10.dtd">
<svg version="1.0" xmlns="http://www.w3.org/2000/svg"
 width="450.000000pt" height="244.000000pt" viewBox="0 0 450.000000 244.000000"
 preserveAspectRatio="xMidYMid meet">

<g transform="translate(0.000000,244.000000) scale(0.100000,-0.100000)"
fill="#000000" stroke="none">
<path d="M2217 2390 c-383 -48 -669 -204 -770 -418 -23 -50 -31 -82 -35 -150
-6 -106 11 -180 67 -291 l39 -79 -126 -7 c-119 -7 -659 -2 -667 7 -2 2 -5 36
-6 76 -1 40 -5 75 -9 77 -6 4 -640 -181 -647 -189 -2 -2 43 -20 99 -41 57 -20
113 -48 126 -61 31 -32 55 -44 215 -98 113 -39 146 -46 178 -41 24 4 43 14 47
23 3 10 19 36 34 58 15 23 28 53 28 67 0 23 5 26 53 32 29 4 195 5 369 3 314
-3 316 -3 334 -26 11 -12 35 -30 54 -40 63 -31 110 -156 110 -292 0 -67 -2
-72 -45 -131 -93 -127 -98 -247 -16 -372 19 -30 25 -53 26 -102 3 -95 39 -161
125 -230 81 -64 105 -75 169 -75 95 0 197 78 221 170 5 19 7 64 5 100 -1 36
-6 130 -9 210 -7 163 -22 226 -65 286 -34 45 -107 89 -163 98 -21 3 -54 8 -73
11 -28 5 -35 10 -35 28 0 12 -11 69 -25 127 -16 64 -24 121 -21 148 4 38 1 45
-22 60 l-26 17 29 6 c40 9 1185 11 1185 2 0 -3 -15 -54 -34 -112 -19 -58 -39
-135 -46 -171 -6 -36 -13 -75 -16 -86 -3 -18 -13 -22 -67 -26 -109 -9 -185
-56 -230 -143 -25 -49 -35 -174 -18 -240 9 -38 9 -50 -4 -76 -45 -85 -23 -211
48 -282 125 -124 192 -149 298 -112 83 30 136 100 163 216 8 35 29 98 47 139
34 81 42 144 27 237 -10 62 -24 93 -79 175 -33 49 -39 66 -39 112 0 110 14
147 81 219 33 37 81 78 105 92 24 14 44 32 44 39 0 20 77 26 341 26 l235 0 50
-52 c82 -86 204 -189 243 -205 64 -27 191 -19 191 11 0 17 22 26 61 26 16 0
29 4 29 8 0 5 -38 50 -85 100 -47 51 -85 98 -85 106 0 7 11 28 25 47 42 59 57
91 51 112 -4 16 8 37 45 79 l50 58 -171 0 -172 0 -115 -106 -115 -107 -285 5
c-156 3 -288 9 -293 14 -9 9 -5 31 25 134 21 74 21 267 -1 341 -52 177 -197
317 -410 394 -162 59 -459 89 -647 65z m408 -34 c139 -25 207 -46 312 -97 260
-125 366 -334 303 -595 -23 -99 -50 -162 -136 -315 -84 -150 -101 -198 -115
-313 l-12 -94 43 -49 c105 -118 120 -254 42 -382 l-20 -33 -16 30 c-14 28 -14
34 0 68 11 26 15 59 12 106 -3 57 -8 73 -34 105 -58 72 -151 105 -231 84 -87
-24 -133 -92 -139 -205 -3 -59 -7 -73 -26 -88 -22 -16 -23 -16 -31 5 -16 40
-3 188 20 232 43 82 111 124 217 134 l70 6 18 89 c21 111 71 259 115 340 146
274 169 369 122 508 -40 119 -118 199 -264 269 -138 67 -252 91 -456 96 -319
9 -544 -50 -717 -187 -88 -69 -152 -194 -152 -296 0 -95 49 -236 118 -338 57
-84 140 -317 157 -437 l6 -46 63 -5 c112 -9 189 -59 229 -148 23 -51 33 -159
20 -208 l-8 -34 -28 22 c-16 13 -27 32 -28 48 -1 17 -3 21 -6 10 -6 -22 -11
-22 -59 -2 -74 31 -188 4 -256 -60 -15 -14 -31 -26 -35 -26 -5 0 -14 -14 -20
-31 -10 -27 -15 -30 -27 -20 -8 7 -26 36 -41 64 -49 98 -27 215 60 321 33 40
35 47 35 116 0 132 -38 232 -155 410 -77 117 -97 156 -124 244 -52 168 -7 335
123 460 118 113 332 205 561 240 121 19 388 20 490 2z m-105 -186 c156 -14
266 -42 386 -100 125 -60 174 -111 204 -208 24 -77 25 -137 5 -217 -18 -69
-70 -186 -88 -197 -14 -9 -1196 -9 -1282 1 -56 6 -61 8 -82 46 -13 22 -33 71
-45 109 -19 62 -20 75 -9 134 48 259 330 422 766 441 17 0 82 -4 145 -9z
m1765 -558 c-6 -5 -49 -14 -96 -20 -75 -9 -97 -17 -164 -56 -42 -26 -79 -46
-83 -46 -3 0 25 29 63 64 l70 64 110 1 c67 1 106 -2 100 -7z m-3655 -85 c0 -2
-31 -27 -69 -55 l-69 -53 -112 3 -112 3 168 51 c161 49 194 58 194 51z m718
-114 c-114 -2 -303 -2 -420 0 -117 1 -24 2 207 2 231 0 327 -1 213 -2z m1340
0 c-181 -2 -475 -2 -655 0 -181 1 -33 2 327 2 360 0 508 -1 328 -2z m1205 0
c-134 -2 -352 -2 -485 0 -134 1 -25 2 242 2 267 0 376 -1 243 -2z m-1002 -574
c50 -15 108 -64 125 -105 8 -19 14 -52 14 -75 0 -43 -19 -109 -30 -109 -4 0
-17 12 -31 26 -59 65 -185 93 -266 59 -19 -8 -39 -15 -44 -15 -13 0 -11 93 2
127 32 85 126 123 230 92z m-880 -220 c152 -46 205 -262 91 -375 -63 -64 -180
-92 -252 -62 -187 79 -198 333 -18 422 57 29 116 33 179 15z m911 -26 c115
-83 132 -250 34 -347 -67 -68 -174 -94 -250 -62 -156 65 -196 267 -75 383 52
49 94 64 176 60 62 -2 77 -7 115 -34z"/>
<path d="M1820 861 c-102 -36 -161 -133 -139 -230 5 -24 14 -51 20 -60 9 -13
9 -12 4 4 -52 150 57 288 216 273 56 -6 93 -28 127 -78 23 -35 30 -33 11 3
-46 88 -139 123 -239 88z"/>
<path d="M2072 705 c0 -16 2 -22 5 -12 2 9 2 23 0 30 -3 6 -5 -1 -5 -18z"/>
<path d="M1875 546 c-40 -17 -82 -67 -94 -111 -13 -50 4 -102 49 -147 35 -35
42 -38 95 -38 105 0 172 71 163 172 -6 57 -33 91 -93 119 -47 22 -79 23 -120
5z m122 -36 c45 -27 65 -62 65 -113 2 -106 -87 -164 -187 -123 -52 22 -77 69
-72 135 3 47 9 59 40 88 30 27 45 33 79 33 25 0 57 -8 75 -20z"/>
<path d="M2710 538 c-39 -26 -80 -98 -80 -139 0 -42 42 -110 80 -130 73 -39
168 -15 209 52 64 106 4 223 -120 236 -46 4 -59 1 -89 -19z m147 -28 c112 -68
63 -250 -67 -250 -62 0 -123 53 -136 118 -9 42 12 97 47 127 39 32 109 34 156
5z"/>
</g>
</svg>
